<?xml version="1.0" encoding="UTF-8"?>
<svg xmlns="http://www.w3.org/2000/svg" width="94" height="155" viewBox="0 0 94 155" fill="none">
  <g clip-path="url(#clip0_933_7643)">
    <path d="M93.3762 83.9888V84.1534C93.3487 84.2083 93.2234 84.4584 92.9849 84.8151C92.9526 84.8622 92.923 84.9111 92.8962 84.9615C92.4631 85.5733 91.9837 86.1513 91.4623 86.6904C91.4073 86.7453 91.3431 86.8002 91.2819 86.8703C91.2208 86.9405 91.1657 86.9862 91.0985 87.0472C90.912 87.2241 90.7071 87.41 90.487 87.6022C90.1232 87.9071 89.7196 88.2303 89.264 88.5474L88.7137 88.9164L88.408 89.0993C88.2429 89.203 88.0778 89.2975 87.9065 89.4043C86.6864 90.0992 85.3936 90.6585 84.0512 91.0722C83.9472 91.1088 83.8433 91.1423 83.7454 91.1698L83.1615 91.3345C82.8557 91.4168 82.55 91.49 82.2198 91.5662C81.8896 91.6424 81.5686 91.7034 81.2322 91.7644C80.8959 91.8254 80.5932 91.8742 80.2661 91.923C77.2387 92.3087 74.173 92.2851 71.152 91.8528C59.9283 90.3892 53.4496 94.4874 50.1905 97.7318L49.9703 97.9513C49.8358 98.0947 49.6982 98.238 49.5729 98.3752C49.4475 98.5124 49.3191 98.6496 49.209 98.7869C48.9828 99.046 48.7841 99.2991 48.5976 99.5309C48.4722 99.6894 48.3652 99.8358 48.2673 99.9761L48.1298 100.174C48.0833 100.234 48.0404 100.296 48.0014 100.36C47.9372 100.455 47.876 100.543 47.8271 100.626C47.7782 100.708 47.7384 100.763 47.7048 100.824C47.6712 100.885 47.6559 100.906 47.6375 100.943C47.5977 101.001 47.5629 101.062 47.5336 101.126C47.5336 101.126 47.5336 101.141 47.5336 101.147C47.5174 101.167 47.505 101.19 47.4969 101.214V101.275C46.9557 101.495 37.0467 105.361 25.6579 92.6243C13.9847 79.5826 2.20457 84.0711 1.62061 84.3029V84.0986C1.92635 83.5039 5.24973 77.5152 15.2199 76.3107C18.0757 75.9948 20.96 76.0378 23.8051 76.4388C41.0947 78.7044 47.1117 67.7637 47.4571 67.0989C47.4571 67.0654 47.4755 67.0166 47.4908 67.0166C48.2368 66.7117 58.0419 63.0739 69.3084 75.6734C70.3569 76.8396 71.4804 77.9366 72.6715 78.9575C83.4489 88.1297 93.3762 83.9888 93.3762 83.9888Z" fill="#69ADF8" stroke="black" stroke-linecap="round" stroke-linejoin="round"></path>
    <path d="M1.62378 137.305L47.5001 154.378L1.62378 137.302V137.305Z" fill="#F25453" stroke="black" stroke-linecap="round" stroke-linejoin="round"></path>
    <path d="M47.5153 101.281V120.232L1.6543 137.308V84.312C2.23826 84.0803 14.0184 79.5917 25.6916 92.6334C37.0498 105.367 46.9589 101.501 47.5153 101.281Z" fill="#545DEC" stroke="black" stroke-linecap="round" stroke-linejoin="round"></path>
    <path d="M93.3764 84.1656V137.317L47.5154 120.241V101.229C47.5298 101.208 47.5421 101.186 47.5521 101.162C47.5521 101.162 47.5521 101.147 47.5521 101.141L47.656 100.958C47.6744 100.921 47.7019 100.882 47.7233 100.839C47.7447 100.796 47.7997 100.717 47.8456 100.641C47.8914 100.565 47.9556 100.47 48.0199 100.376C48.0841 100.281 48.1024 100.251 48.1483 100.19L48.2858 99.9913C48.3898 99.8541 48.4907 99.7047 48.616 99.5461C48.7934 99.3144 48.9921 99.0613 49.2275 98.8021C49.3468 98.6649 49.4629 98.5277 49.5914 98.3905C49.7198 98.2532 49.8543 98.1099 49.9888 97.9666L50.2089 97.7471C53.4681 94.5027 59.9468 90.4044 71.1705 91.8681C74.1915 92.3004 77.2572 92.324 80.2846 91.9382C80.6117 91.8894 80.9358 91.8345 81.2507 91.7797C81.5656 91.7248 81.9172 91.6485 82.2383 91.5815C82.5593 91.5144 82.8712 91.432 83.18 91.3497L83.7639 91.185C83.8648 91.1576 83.9688 91.1241 84.0697 91.0875C85.4121 90.6738 86.7049 90.1145 87.925 89.4195C88.0963 89.322 88.2613 89.2274 88.4264 89.1146L88.7322 88.9316L89.2825 88.5627C89.7289 88.2578 90.1325 87.9254 90.5055 87.6174C90.7256 87.4314 90.9243 87.2485 91.117 87.0624C91.1842 87.0015 91.2454 86.9405 91.3004 86.8856L91.4808 86.7057C92.0022 86.1666 92.4815 85.5886 92.9147 84.9768C92.9415 84.9264 92.9711 84.8775 93.0034 84.8304C93.2419 84.4614 93.3672 84.2205 93.3947 84.1687L93.3764 84.1656Z" fill="#545DEC" stroke="black" stroke-linecap="round" stroke-linejoin="round"></path>
    <path d="M1.62378 137.302L47.5001 154.378V120.229L1.62378 137.302Z" fill="#0019C7" stroke="black" stroke-linecap="round" stroke-linejoin="round"></path>
    <path d="M47.5 154.378L93.3763 137.302L47.5 120.229V154.378Z" fill="#0019C7" stroke="black" stroke-linecap="round" stroke-linejoin="round"></path>
  </g>
  <mask id="path-7-outside-1_933_7643" maskUnits="userSpaceOnUse" x="-1" y="75.9244" width="94" height="61" fill="black">
    <rect fill="white" x="-1" y="75.9244" width="94" height="61"></rect>
    <path d="M0.917759 124.295L6.94252 116.241C8.97191 118.27 11.2761 119.285 13.8551 119.285C15.3772 119.285 16.6244 118.883 17.5968 118.08C18.5693 117.277 19.0555 116.325 19.0555 115.226C19.0555 114.296 18.6538 113.387 17.8505 112.499C17.0895 111.569 16.1382 110.681 14.9967 109.835C13.8551 108.948 12.7136 107.996 11.5721 106.982C10.4305 105.967 9.45812 104.677 8.65482 103.113C7.8938 101.549 7.51329 99.7942 7.51329 97.8494C7.51329 94.5093 8.61254 91.5498 10.8111 88.9708C13.0096 86.3495 15.8634 84.6372 19.3726 83.8339L20.7043 77.2383H26.9194L25.7144 83.5168C29.1813 83.8973 32.162 85.0177 34.6564 86.8779L29.3927 95.3126C27.5747 93.9174 25.4819 93.2198 23.1142 93.2198C21.5499 93.2198 20.3027 93.6214 19.3726 94.4248C18.4424 95.2281 17.9773 96.2005 17.9773 97.342C17.9773 99.0332 19.3303 100.851 22.0361 102.796C23.1354 103.515 24.0232 104.149 24.6997 104.699C25.3762 105.248 26.1372 106.009 26.9828 106.982C27.8284 107.912 28.4625 108.969 28.8853 110.153C29.3504 111.336 29.5829 112.647 29.5829 114.084C29.5829 117.509 28.4203 120.638 26.0949 123.47C23.7273 126.345 20.6409 128.121 16.8358 128.798L15.6309 135.203H9.41584L10.6208 128.861C6.60429 128.311 3.36994 126.789 0.917759 124.295ZM56.6438 128.924H31.7838L33.4961 120.046H40.7892L44.4675 101.084L45.2919 97.9128H45.1651C45.1228 98.3778 44.6789 98.9486 43.8333 99.6251L41.2965 101.781L36.0962 95.3126L49.2239 83.5802H57.9756L50.9362 120.046H58.3561L56.6438 128.924ZM74.2484 117.953H59.4085L60.6134 111.231L77.0388 83.5802H91.1812L86.2979 108.757H90.1665L88.3908 117.953H84.5222L82.366 128.924H72.0922L74.2484 117.953ZM71.0141 108.631V108.757H76.0241L77.9901 98.6738L79.1951 93.6003H79.1316C78.2438 95.672 77.3982 97.342 76.5949 98.6104L71.0141 108.631Z"></path>
  </mask>
  <path d="M0.917759 124.295L6.94252 116.241C8.97191 118.27 11.2761 119.285 13.8551 119.285C15.3772 119.285 16.6244 118.883 17.5968 118.08C18.5693 117.277 19.0555 116.325 19.0555 115.226C19.0555 114.296 18.6538 113.387 17.8505 112.499C17.0895 111.569 16.1382 110.681 14.9967 109.835C13.8551 108.948 12.7136 107.996 11.5721 106.982C10.4305 105.967 9.45812 104.677 8.65482 103.113C7.8938 101.549 7.51329 99.7942 7.51329 97.8494C7.51329 94.5093 8.61254 91.5498 10.8111 88.9708C13.0096 86.3495 15.8634 84.6372 19.3726 83.8339L20.7043 77.2383H26.9194L25.7144 83.5168C29.1813 83.8973 32.162 85.0177 34.6564 86.8779L29.3927 95.3126C27.5747 93.9174 25.4819 93.2198 23.1142 93.2198C21.5499 93.2198 20.3027 93.6214 19.3726 94.4248C18.4424 95.2281 17.9773 96.2005 17.9773 97.342C17.9773 99.0332 19.3303 100.851 22.0361 102.796C23.1354 103.515 24.0232 104.149 24.6997 104.699C25.3762 105.248 26.1372 106.009 26.9828 106.982C27.8284 107.912 28.4625 108.969 28.8853 110.153C29.3504 111.336 29.5829 112.647 29.5829 114.084C29.5829 117.509 28.4203 120.638 26.0949 123.47C23.7273 126.345 20.6409 128.121 16.8358 128.798L15.6309 135.203H9.41584L10.6208 128.861C6.60429 128.311 3.36994 126.789 0.917759 124.295ZM56.6438 128.924H31.7838L33.4961 120.046H40.7892L44.4675 101.084L45.2919 97.9128H45.1651C45.1228 98.3778 44.6789 98.9486 43.8333 99.6251L41.2965 101.781L36.0962 95.3126L49.2239 83.5802H57.9756L50.9362 120.046H58.3561L56.6438 128.924ZM74.2484 117.953H59.4085L60.6134 111.231L77.0388 83.5802H91.1812L86.2979 108.757H90.1665L88.3908 117.953H84.5222L82.366 128.924H72.0922L74.2484 117.953ZM71.0141 108.631V108.757H76.0241L77.9901 98.6738L79.1951 93.6003H79.1316C78.2438 95.672 77.3982 97.342 76.5949 98.6104L71.0141 108.631Z" fill="#CFFF5E"></path>
  <path d="M0.917759 124.295L0.117003 123.696L-0.397374 124.384L0.204635 124.996L0.917759 124.295ZM6.94252 116.241L7.64963 115.534L6.83329 114.717L6.14176 115.642L6.94252 116.241ZM17.5968 118.08L18.2337 118.851L17.5968 118.08ZM17.8505 112.499L17.0766 113.132L17.0923 113.152L17.109 113.17L17.8505 112.499ZM14.9967 109.835L14.3827 110.625L14.392 110.632L14.4014 110.639L14.9967 109.835ZM11.5721 106.982L12.2364 106.234V106.234L11.5721 106.982ZM8.65482 103.113L7.75559 103.551L7.76032 103.56L7.76525 103.57L8.65482 103.113ZM10.8111 88.9708L11.5721 89.6195L11.5772 89.6134L10.8111 88.9708ZM19.3726 83.8339L19.5957 84.8086L20.225 84.6646L20.3528 84.0318L19.3726 83.8339ZM20.7043 77.2383V76.2383H19.8861L19.7241 77.0404L20.7043 77.2383ZM26.9194 77.2383L27.9014 77.4268L28.1295 76.2383H26.9194V77.2383ZM25.7144 83.5168L24.7323 83.3283L24.5281 84.3926L25.6053 84.5108L25.7144 83.5168ZM34.6564 86.8779L35.5048 87.4074L35.9921 86.6265L35.2542 86.0763L34.6564 86.8779ZM29.3927 95.3126L28.7839 96.1059L29.6578 96.7766L30.241 95.842L29.3927 95.3126ZM19.3726 94.4247L20.0262 95.1816H20.0262L19.3726 94.4247ZM22.0361 102.796L21.4525 103.608L21.4704 103.621L21.4889 103.633L22.0361 102.796ZM24.6997 104.699L25.3303 103.922L24.6997 104.699ZM26.9828 106.982L26.2282 107.638L26.2354 107.646L26.2428 107.654L26.9828 106.982ZM28.8853 110.153L27.9436 110.489L27.9489 110.504L27.9546 110.518L28.8853 110.153ZM26.0949 123.47L26.8669 124.106L26.8678 124.105L26.0949 123.47ZM16.8358 128.798L16.6608 127.813L15.9807 127.934L15.8531 128.613L16.8358 128.798ZM15.6309 135.203V136.203H16.4603L16.6136 135.388L15.6309 135.203ZM9.41584 135.203L8.43342 135.016L8.20795 136.203H9.41584V135.203ZM10.6208 128.861L11.6032 129.048L11.7998 128.013L10.7564 127.87L10.6208 128.861ZM1.71852 124.894L7.74328 116.84L6.14176 115.642L0.117003 123.696L1.71852 124.894ZM6.23541 116.948C8.42917 119.142 10.9798 120.285 13.8551 120.285V118.285C11.5724 118.285 9.51465 117.399 7.64963 115.534L6.23541 116.948ZM13.8551 120.285C15.5597 120.285 17.047 119.831 18.2337 118.851L16.96 117.309C16.2018 117.935 15.1947 118.285 13.8551 118.285V120.285ZM18.2337 118.851C19.3981 117.889 20.0555 116.67 20.0555 115.226H18.0555C18.0555 115.981 17.7404 116.664 16.96 117.309L18.2337 118.851ZM20.0555 115.226C20.0555 113.983 19.5125 112.845 18.592 111.828L17.109 113.17C17.7952 113.928 18.0555 114.609 18.0555 115.226H20.0555ZM18.6245 111.866C17.8027 110.861 16.7881 109.918 15.5919 109.032L14.4014 110.639C15.4883 111.444 16.3763 112.276 17.0766 113.132L18.6245 111.866ZM15.6106 109.046C14.4873 108.172 13.3625 107.235 12.2364 106.234L10.9077 107.729C12.0647 108.757 13.223 109.723 14.3827 110.625L15.6106 109.046ZM12.2364 106.234C11.2002 105.313 10.2997 104.127 9.54439 102.656L7.76525 103.57C8.61658 105.228 9.66092 106.621 10.9077 107.729L12.2364 106.234ZM9.55406 102.676C8.86681 101.263 8.51329 99.6607 8.51329 97.8494H6.51329C6.51329 99.9277 6.92079 101.835 7.75559 103.551L9.55406 102.676ZM8.51329 97.8494C8.51329 94.7509 9.52534 92.0205 11.5721 89.6195L10.05 88.322C7.69975 91.0791 6.51329 94.2677 6.51329 97.8494H8.51329ZM11.5772 89.6134C13.6281 87.1681 16.287 85.566 19.5957 84.8086L19.1494 82.8591C15.4398 83.7083 12.391 85.5308 10.0449 88.3281L11.5772 89.6134ZM20.3528 84.0318L21.6846 77.4363L19.7241 77.0404L18.3923 83.6359L20.3528 84.0318ZM20.7043 78.2383H26.9194V76.2383H20.7043V78.2383ZM25.9373 77.0498L24.7323 83.3283L26.6965 83.7052L27.9014 77.4268L25.9373 77.0498ZM25.6053 84.5108C28.917 84.8743 31.7237 85.9383 34.0586 87.6796L35.2542 86.0763C32.6002 84.0971 29.4456 82.9203 25.8235 82.5227L25.6053 84.5108ZM33.8081 86.3485L28.5443 94.7832L30.241 95.842L35.5048 87.4074L33.8081 86.3485ZM30.0015 94.5193C28.0027 92.9853 25.6942 92.2198 23.1142 92.2198V94.2198C25.2696 94.2198 27.1467 94.8495 28.7839 96.1059L30.0015 94.5193ZM23.1142 92.2198C21.3772 92.2198 19.8759 92.6688 18.7189 93.6679L20.0262 95.1816C20.7295 94.5741 21.7226 94.2198 23.1142 94.2198V92.2198ZM18.7189 93.6679C17.5879 94.6447 16.9773 95.8855 16.9773 97.342H18.9773C18.9773 96.5154 19.2969 95.8114 20.0262 95.1816L18.7189 93.6679ZM16.9773 97.342C16.9773 99.5625 18.7189 101.643 21.4525 103.608L22.6198 101.984C19.9417 100.059 18.9773 98.5039 18.9773 97.342H16.9773ZM21.4889 103.633C22.5722 104.341 23.4291 104.955 24.0691 105.475L25.3303 103.922C24.6174 103.343 23.6986 102.688 22.5834 101.959L21.4889 103.633ZM24.0691 105.475C24.6852 105.975 25.4043 106.69 26.2282 107.638L27.7374 106.325C26.8701 105.328 26.0672 104.521 25.3303 103.922L24.0691 105.475ZM26.2428 107.654C26.9996 108.487 27.5652 109.429 27.9436 110.489L29.8271 109.816C29.3599 108.508 28.6571 107.337 27.7227 106.309L26.2428 107.654ZM27.9546 110.518C28.3683 111.571 28.5829 112.756 28.5829 114.084H30.5829C30.5829 112.538 30.3325 111.101 29.8161 109.787L27.9546 110.518ZM28.5829 114.084C28.5829 117.261 27.5116 120.169 25.322 122.836L26.8678 124.105C29.3289 121.107 30.5829 117.757 30.5829 114.084H28.5829ZM25.323 122.835C23.1126 125.519 20.2414 127.176 16.6608 127.813L17.0108 129.782C21.0405 129.066 24.342 127.172 26.8669 124.106L25.323 122.835ZM15.8531 128.613L14.6481 135.018L16.6136 135.388L17.8186 128.982L15.8531 128.613ZM15.6309 134.203H9.41584V136.203H15.6309V134.203ZM10.3983 135.39L11.6032 129.048L9.63837 128.674L8.43342 135.016L10.3983 135.39ZM10.7564 127.87C6.92278 127.346 3.90401 125.906 1.63088 123.594L0.204635 124.996C2.83587 127.673 6.2858 129.277 10.4852 129.852L10.7564 127.87ZM56.6438 128.924V129.924H57.4694L57.6257 129.114L56.6438 128.924ZM31.7838 128.924L30.8019 128.735L30.5725 129.924H31.7838V128.924ZM33.4961 120.046V119.046H32.6705L32.5142 119.856L33.4961 120.046ZM40.7892 120.046V121.046H41.6139L41.7709 120.236L40.7892 120.046ZM44.4675 101.084L43.4996 100.832L43.4917 100.862L43.4858 100.893L44.4675 101.084ZM45.2919 97.9128L46.2597 98.1644L46.5852 96.9128H45.2919V97.9128ZM45.1651 97.9128V96.9128H44.2519L44.1692 97.8222L45.1651 97.9128ZM43.8333 99.6251L43.2086 98.8442L43.197 98.8535L43.1856 98.8631L43.8333 99.6251ZM41.2965 101.781L40.5172 102.408L41.1611 103.209L41.9442 102.543L41.2965 101.781ZM36.0962 95.3126L35.4298 94.567L34.7222 95.1995L35.3168 95.9392L36.0962 95.3126ZM49.2239 83.5802V82.5802H48.8421L48.5575 82.8346L49.2239 83.5802ZM57.9756 83.5802L58.9575 83.7697L59.1871 82.5802H57.9756V83.5802ZM50.9362 120.046L49.9543 119.856L49.7247 121.046H50.9362V120.046ZM58.3561 120.046L59.338 120.235L59.5674 119.046H58.3561V120.046ZM56.6438 127.924H31.7838V129.924H56.6438V127.924ZM32.7657 129.114L34.478 120.235L32.5142 119.856L30.8019 128.735L32.7657 129.114ZM33.4961 121.046H40.7892V119.046H33.4961V121.046ZM41.7709 120.236L45.4492 101.274L43.4858 100.893L39.8075 119.855L41.7709 120.236ZM45.4353 101.335L46.2597 98.1644L44.3241 97.6611L43.4996 100.832L45.4353 101.335ZM45.2919 96.9128H45.1651V98.9128H45.2919V96.9128ZM44.1692 97.8222C44.1724 97.7864 44.175 97.8649 44.0111 98.0757C43.8547 98.2767 43.5972 98.5333 43.2086 98.8442L44.458 100.406C44.9149 100.04 45.3022 99.6733 45.5898 99.3036C45.8698 98.9436 46.1154 98.5042 46.161 98.0033L44.1692 97.8222ZM43.1856 98.8631L40.6489 101.019L41.9442 102.543L44.4809 100.387L43.1856 98.8631ZM42.0759 101.155L36.8756 94.6861L35.3168 95.9392L40.5172 102.408L42.0759 101.155ZM36.7626 96.0582L49.8902 84.3258L48.5575 82.8346L35.4298 94.567L36.7626 96.0582ZM49.2239 84.5802H57.9756V82.5802H49.2239V84.5802ZM56.9937 83.3906L49.9543 119.856L51.918 120.235L58.9575 83.7697L56.9937 83.3906ZM50.9362 121.046H58.3561V119.046H50.9362V121.046ZM57.3742 119.856L55.6619 128.735L57.6257 129.114L59.338 120.235L57.3742 119.856ZM74.2484 117.953L75.2297 118.146L75.4641 116.953H74.2484V117.953ZM59.4085 117.953L58.4242 117.777L58.2133 118.953H59.4085V117.953ZM60.6134 111.231L59.7537 110.72L59.6611 110.876L59.6291 111.054L60.6134 111.231ZM77.0388 83.5802V82.5802H76.4697L76.1791 83.0695L77.0388 83.5802ZM91.1812 83.5802L92.1629 83.7706L92.3938 82.5802H91.1812V83.5802ZM86.2979 108.757L85.3162 108.567L85.0854 109.757H86.2979V108.757ZM90.1665 108.757L91.1483 108.947L91.3781 107.757H90.1665V108.757ZM88.3908 117.953V118.953H89.2161L89.3726 118.143L88.3908 117.953ZM84.5222 117.953V116.953H83.6996L83.541 117.76L84.5222 117.953ZM82.366 128.924V129.924H83.1886L83.3472 129.117L82.366 128.924ZM72.0922 128.924L71.111 128.732L70.8765 129.924H72.0922V128.924ZM71.0141 108.631L70.1404 108.144L70.0141 108.371V108.631H71.0141ZM71.0141 108.757H70.0141V109.757H71.0141V108.757ZM76.0241 108.757V109.757H76.848L77.0057 108.949L76.0241 108.757ZM77.9901 98.6738L77.0172 98.4427L77.0125 98.4625L77.0086 98.4824L77.9901 98.6738ZM79.1951 93.6003L80.168 93.8314L80.4604 92.6003H79.1951V93.6003ZM79.1317 93.6003V92.6003H78.4723L78.2125 93.2064L79.1317 93.6003ZM76.5949 98.6104L75.7501 98.0753L75.735 98.0992L75.7213 98.1238L76.5949 98.6104ZM74.2484 116.953H59.4085V118.953H74.2484V116.953ZM60.3928 118.129L61.5977 111.407L59.6291 111.054L58.4242 117.777L60.3928 118.129ZM61.4732 111.741L77.8986 84.0909L76.1791 83.0695L59.7537 110.72L61.4732 111.741ZM77.0388 84.5802H91.1812V82.5802H77.0388V84.5802ZM90.1995 83.3898L85.3162 108.567L87.2796 108.948L92.1629 83.7706L90.1995 83.3898ZM86.2979 109.757H90.1665V107.757H86.2979V109.757ZM89.1846 108.568L87.4089 117.763L89.3726 118.143L91.1483 108.947L89.1846 108.568ZM88.3908 116.953H84.5222V118.953H88.3908V116.953ZM83.541 117.76L81.3848 128.732L83.3472 129.117L85.5035 118.146L83.541 117.76ZM82.366 127.924H72.0922V129.924H82.366V127.924ZM73.0734 129.117L75.2297 118.146L73.2672 117.76L71.111 128.732L73.0734 129.117ZM70.0141 108.631V108.757H72.0141V108.631H70.0141ZM71.0141 109.757H76.0241V107.757H71.0141V109.757ZM77.0057 108.949L78.9716 98.8652L77.0086 98.4824L75.0426 108.566L77.0057 108.949ZM78.9631 98.9049L80.168 93.8314L78.2221 93.3692L77.0172 98.4427L78.9631 98.9049ZM79.1951 92.6003H79.1317V94.6003H79.1951V92.6003ZM78.2125 93.2064C77.3363 95.2508 76.5146 96.8682 75.7501 98.0753L77.4397 99.1454C78.2818 97.8158 79.1513 96.0932 80.0508 93.9942L78.2125 93.2064ZM75.7213 98.1238L70.1404 108.144L71.8877 109.117L77.4685 99.097L75.7213 98.1238Z" fill="black" mask="url(#path-7-outside-1_933_7643)"></path>
  <g clip-path="url(#clip1_933_7643)">
    <path d="M93.3764 83.4707V83.6366C93.3458 83.6919 93.2235 83.9437 92.985 84.3062C92.952 84.351 92.9224 84.3982 92.8963 84.4474C92.4651 85.0662 91.9856 85.6495 91.4624 86.192L91.282 86.3701C91.227 86.4285 91.1659 86.4899 91.0986 86.5513C90.9559 86.6885 90.8061 86.8267 90.6492 86.966L90.4871 87.1072C90.1233 87.4144 89.7167 87.7461 89.2642 88.0624L88.7138 88.4341L88.4081 88.6184C88.243 88.7228 88.0779 88.818 87.9036 88.9255C86.6836 89.6264 85.3907 90.1908 84.0482 90.6086L83.7425 90.7038C83.5499 90.7591 83.3573 90.8144 83.1585 90.8666C82.8528 90.9526 82.5471 91.0263 82.2199 91.1031C81.8928 91.1799 81.5656 91.2413 81.2324 91.3027C80.8991 91.3642 80.5934 91.4133 80.2632 91.4625C77.2358 91.851 74.1701 91.8272 71.1491 91.3918C59.9253 89.9175 53.4467 94.0455 50.1875 97.3134C50.1141 97.3902 50.0438 97.4578 49.9674 97.5315C49.8329 97.6789 49.6953 97.8233 49.573 97.9615C49.4507 98.0997 49.3192 98.2379 49.2061 98.373C48.9799 98.6372 48.7811 98.8921 48.5946 99.1255C48.5641 99.1655 48.5335 99.2023 48.506 99.2422C48.4173 99.359 48.3347 99.4695 48.2644 99.574C48.1941 99.6784 48.1666 99.7122 48.1299 99.7767C48.0802 99.8337 48.0362 99.8954 47.9984 99.9609C47.9373 100.059 47.8761 100.145 47.8242 100.228C47.7722 100.311 47.7355 100.366 47.7019 100.428C47.6835 100.47 47.6599 100.509 47.6315 100.545C47.5934 100.605 47.5597 100.669 47.5306 100.735C47.5306 100.735 47.5306 100.735 47.5306 100.753C47.5145 100.773 47.502 100.796 47.494 100.821V100.882C46.9528 101.103 37.0438 104.995 25.655 92.1689C13.9818 79.0295 2.20164 83.5537 1.61768 83.7871V83.5782C1.92342 82.964 5.24681 76.9502 15.22 75.737C18.0748 75.4188 20.9581 75.4621 23.8022 75.866C41.0918 78.148 47.1087 67.1279 47.4512 66.4615C47.4512 66.4277 47.4756 66.3785 47.4878 66.3785C48.2369 66.0714 58.042 62.4072 69.3085 75.0951C70.3539 76.2737 71.4775 77.3799 72.6716 78.406C83.449 87.6417 93.3764 83.4707 93.3764 83.4707Z" stroke="black" stroke-linecap="round" stroke-linejoin="round"></path>
    <path d="M1.62955 137.18H1.62378V137.174L1.62955 137.18Z" stroke="black" stroke-linecap="round" stroke-linejoin="round"></path>
    <path d="M1.62378 137.174L1.62955 137.18H1.62378V137.174Z" stroke="black" stroke-linecap="round" stroke-linejoin="round"></path>
    <path d="M47.5028 119.977H47.4971V119.983H47.5028V119.977Z" stroke="black" stroke-linecap="round" stroke-linejoin="round"></path>
    <path d="M93.3764 83.6489V137.189L47.5154 154.389V119.989V100.839C47.5298 100.818 47.5421 100.795 47.5521 100.772C47.5521 100.772 47.5521 100.756 47.5521 100.753L47.653 100.563C47.6813 100.527 47.7049 100.488 47.7233 100.446C47.7661 100.385 47.7997 100.323 47.8456 100.247C47.8914 100.17 47.9587 100.078 48.0198 99.9794C48.081 99.8811 48.0993 99.8565 48.1513 99.7951C48.2033 99.7337 48.24 99.663 48.2858 99.5924C48.3317 99.5217 48.4418 99.3774 48.5274 99.2607C48.5549 99.2207 48.5855 99.1839 48.616 99.144C48.7934 98.9105 48.9921 98.6556 49.2275 98.3915C49.3437 98.2563 49.4629 98.1181 49.5944 97.9799C49.7259 97.8417 49.8543 97.6973 49.9888 97.5499C50.0653 97.4762 50.1356 97.4086 50.2089 97.3318C53.4681 94.0639 59.9468 89.936 71.1705 91.4102C74.1915 91.8457 77.2572 91.8694 80.2846 91.4809C80.6148 91.4317 80.9358 91.3764 81.2538 91.3212C81.5718 91.2659 81.9172 91.1891 82.2413 91.1215C82.5654 91.0539 82.8712 90.971 83.1799 90.885C83.3787 90.8328 83.5713 90.7775 83.7639 90.7222L84.0697 90.627C85.4122 90.2092 86.705 89.6448 87.925 88.9439C88.0993 88.8456 88.2644 88.7504 88.4295 88.6368L88.7352 88.4525L89.2856 88.0809C89.7289 87.7737 90.1355 87.4389 90.5085 87.1257L90.6706 86.9844C90.8255 86.8451 90.9753 86.7069 91.12 86.5697C91.1873 86.5083 91.2484 86.4469 91.3035 86.3885L91.4838 86.2104C92.007 85.6679 92.4865 85.0846 92.9178 84.4659C92.9438 84.4166 92.9735 84.3694 93.0064 84.3246C93.2449 83.9499 93.3672 83.7103 93.3978 83.655L93.3764 83.6489Z" stroke="black" stroke-linecap="round" stroke-linejoin="round"></path>
    <path d="M47.5153 100.889V119.974V154.373L1.6543 137.174V83.7933C2.23826 83.5598 14.0184 79.0357 25.6916 92.175C37.0498 105.001 46.9588 101.11 47.5153 100.889Z" stroke="black" stroke-linecap="round" stroke-linejoin="round"></path>
    <path d="M47.5028 119.977H47.4971V119.983H47.5028V119.977Z" stroke="black" stroke-linecap="round" stroke-linejoin="round"></path>
    <path d="M49.6556 53.703C49.8512 51.9062 48.0474 51.0585 48.0474 51.0585L51.3188 49.5689L52.1901 53.703H49.6556Z" fill="#69ADF8" stroke="black" stroke-linecap="round" stroke-linejoin="round"></path>
    <path d="M51.9516 62.567C51.3688 62.5933 50.7883 62.477 50.26 62.2283C49.7317 61.9795 49.2714 61.6056 48.9187 61.1388C48.9187 61.1388 52.0464 59.6031 54.6177 55.0329C55.1176 55.8072 55.4103 56.6979 55.4677 57.619C55.6511 60.202 54.0765 62.4165 51.9516 62.567Z" fill="#F25453" stroke="black" stroke-linecap="round" stroke-linejoin="round"></path>
    <path d="M54.6176 55.0329C52.0464 59.597 48.9186 61.1388 48.9186 61.1388C48.2422 60.2886 47.8439 59.2491 47.7782 58.1626C47.5978 55.5796 49.1724 53.3621 51.2973 53.2147C52.6181 53.1195 53.838 53.8566 54.6176 55.0329Z" fill="#69ADF8" stroke="black" stroke-linecap="round" stroke-linejoin="round"></path>
    <path d="M53.8043 51.12C52.5813 52.37 48.2857 51.9554 45.855 49.8669C41.6725 46.2519 44.5587 42.5293 44.5587 42.5293C43.8127 40.9414 43.1554 39.0249 41.6939 34.4086C40.8195 31.6444 40.6514 28.7634 39.9971 27.194C41.1305 28.8485 42.6328 30.2144 44.3845 31.1827C46.1361 32.151 48.0886 32.6951 50.0865 32.7716C49.9219 33.2035 49.8518 33.666 49.8808 34.1275C49.9098 34.5891 50.0373 35.039 50.2546 35.4468C51.603 37.9192 53.6698 41.0367 54.6053 43.6258C54.6176 43.6258 55.8619 49.0069 53.8043 51.12Z" fill="#CFFF5E" stroke="black" stroke-linecap="round" stroke-linejoin="round"></path>
    <path d="M47.439 46.3593C47.439 46.3593 49.0563 42.9962 52.1932 45.3949C52.1932 45.3949 54.1194 53.7398 54.3548 57.6282C54.3548 57.6282 54.7431 58.6018 55.4799 62.9447C55.8171 64.8095 55.9585 66.7047 55.9018 68.5991C55.9018 68.5991 55.8682 74.4102 55.5961 75.6203C55.324 76.8304 54.2478 73.4888 53.9023 71.9592C53.5568 70.4297 53.4529 69.2349 53.8534 68.5623C53.8534 68.5623 50.9213 60.5122 51.2149 58.5312C51.6429 55.6994 48.7384 51.2489 47.439 46.3593Z" fill="#69ADF8" stroke="black" stroke-linecap="round" stroke-linejoin="round"></path>
    <path d="M50.0989 32.7715C48.101 32.6951 46.1485 32.151 44.3968 31.1827C42.6452 30.2143 41.1429 28.8485 40.0094 27.1939C37.163 20.3663 37.2578 17.3072 37.2578 17.3072C36.4867 15.9271 35.7996 14.5014 35.2001 13.0379C34.7843 11.9538 32.6136 7.07642 32.6136 7.07642C32.6136 7.07642 27.6698 -0.663443 31.0849 0.820031C31.0849 0.820031 31.8829 1.69845 32.7695 2.59222C33.6562 3.48599 34.7874 4.60396 34.0383 5.80179C34.0383 5.80179 40.8747 12.4237 40.3794 15.5381C40.3794 15.5381 44.9655 22.4916 45.7084 23.7356C45.7145 23.7294 52.7129 27.0342 50.0989 32.7715Z" fill="#69ADF8" stroke="black" stroke-linecap="round" stroke-linejoin="round"></path>
    <path d="M65.4102 65.7397C65.4102 65.7397 69.2869 59.5663 73.1301 61.5197C73.4544 61.655 73.7319 61.8832 73.9282 62.1757C74.1245 62.4682 74.2308 62.8122 74.2341 63.165C74.2374 63.5177 74.1374 63.8637 73.9465 64.1598C73.7557 64.4559 73.4824 64.6892 73.1607 64.8306C71.8643 65.3097 69.4215 62.9663 65.4102 65.7397Z" fill="#69ADF8" stroke="black" stroke-linecap="round" stroke-linejoin="round"></path>
    <path d="M43.3113 64.1917C43.3113 64.1917 39.4131 56.5133 34.6772 58.3838C32.4942 59.2499 33.017 61.6701 34.2828 62.2752C35.7565 62.9847 38.8873 60.4876 43.3113 64.1917Z" fill="#69ADF8" stroke="black" stroke-linecap="round" stroke-linejoin="round"></path>
    <path d="M59.1333 70.2577C59.1333 70.2577 61.5486 58.8721 71.687 57.8985" stroke="black" stroke-linecap="round" stroke-linejoin="round"></path>
    <path d="M36.8328 66.2803C36.8328 66.2803 46.6348 65.7827 50.6797 75.8691" stroke="black" stroke-linecap="round" stroke-linejoin="round"></path>
  </g>
  <defs>
    <clipPath id="clip0_933_7643">
      <rect width="93" height="89.322" fill="white" transform="translate(1 65.678)"></rect>
    </clipPath>
    <clipPath id="clip1_933_7643">
      <rect width="93" height="155" fill="white" transform="translate(1)"></rect>
    </clipPath>
  </defs>
</svg>
