<?xml version="1.0" encoding="UTF-8"?>
<svg xmlns="http://www.w3.org/2000/svg" width="93" height="155" viewBox="0 0 93 155" fill="none">
  <g clip-path="url(#clip0_615_4443)">
    <path d="M92.3764 83.9888V84.1534C92.3488 84.2083 92.2235 84.4584 91.985 84.8151C91.9528 84.8622 91.9232 84.9111 91.8963 84.9615C91.4632 85.5733 90.9838 86.1513 90.4624 86.6904C90.4074 86.7453 90.3432 86.8002 90.282 86.8703C90.2209 86.9405 90.1658 86.9862 90.0986 87.0472C89.9121 87.2241 89.7072 87.41 89.4871 87.6022C89.1233 87.9071 88.7197 88.2303 88.2641 88.5474L87.7138 88.9164L87.4081 89.0993C87.243 89.203 87.0779 89.2975 86.9067 89.4043C85.6866 90.0992 84.3937 90.6585 83.0513 91.0722C82.9473 91.1088 82.8434 91.1423 82.7455 91.1698L82.1616 91.3345C81.8558 91.4168 81.5501 91.49 81.2199 91.5662C80.8897 91.6424 80.5687 91.7034 80.2324 91.7644C79.896 91.8254 79.5934 91.8742 79.2662 91.923C76.2389 92.3087 73.1731 92.2851 70.1521 91.8528C58.9284 90.3892 52.4498 94.4874 49.1906 97.7318L48.9704 97.9513C48.8359 98.0947 48.6983 98.238 48.573 98.3752C48.4476 98.5124 48.3192 98.6496 48.2092 98.7869C47.9829 99.046 47.7842 99.2991 47.5977 99.5309C47.4723 99.6894 47.3653 99.8358 47.2675 99.9761L47.1299 100.174C47.0834 100.234 47.0405 100.296 47.0015 100.36C46.9373 100.455 46.8761 100.543 46.8272 100.626C46.7783 100.708 46.7385 100.763 46.7049 100.824C46.6713 100.885 46.656 100.906 46.6376 100.943C46.5978 101.001 46.563 101.062 46.5337 101.126C46.5337 101.126 46.5337 101.141 46.5337 101.147C46.5175 101.167 46.5051 101.19 46.497 101.214V101.275C45.9559 101.495 36.0468 105.361 24.658 92.6243C12.9849 79.5826 1.20469 84.0711 0.620728 84.3029V84.0986C0.926468 83.5039 4.24986 77.5152 14.22 76.3107C17.0759 75.9948 19.9602 76.0378 22.8052 76.4388C40.0948 78.7044 46.1118 67.7637 46.4573 67.0989C46.4573 67.0654 46.4756 67.0166 46.4909 67.0166C47.2369 66.7117 57.042 63.0739 68.3085 75.6734C69.3571 76.8396 70.4805 77.9366 71.6716 78.9575C82.449 88.1297 92.3764 83.9888 92.3764 83.9888Z" fill="#69ADF8" stroke="black" stroke-linecap="round" stroke-linejoin="round"></path>
    <path d="M0.623657 137.305L46.5 154.378L0.623657 137.302V137.305Z" fill="#F25453" stroke="black" stroke-linecap="round" stroke-linejoin="round"></path>
    <path d="M46.5153 101.281V120.232L0.654297 137.308V84.312C1.23826 84.0803 13.0184 79.5917 24.6916 92.6334C36.0498 105.367 45.9589 101.501 46.5153 101.281Z" fill="#545DEC" stroke="black" stroke-linecap="round" stroke-linejoin="round"></path>
    <path d="M92.3763 84.1656V137.317L46.5153 120.241V101.229C46.5297 101.208 46.542 101.186 46.5519 101.162C46.5519 101.162 46.5519 101.147 46.5519 101.141L46.6559 100.958C46.6742 100.921 46.7018 100.882 46.7232 100.839C46.7446 100.796 46.7996 100.717 46.8455 100.641C46.8913 100.565 46.9555 100.47 47.0197 100.376C47.0839 100.281 47.1023 100.251 47.1481 100.19L47.2857 99.9913C47.3897 99.8541 47.4906 99.7047 47.6159 99.5461C47.7933 99.3144 47.992 99.0613 48.2274 98.8021C48.3466 98.6649 48.4628 98.5277 48.5912 98.3905C48.7196 98.2532 48.8542 98.1099 48.9887 97.9666L49.2088 97.7471C52.468 94.5027 58.9466 90.4044 70.1704 91.8681C73.1914 92.3004 76.2571 92.324 79.2845 91.9382C79.6116 91.8894 79.9357 91.8345 80.2506 91.7797C80.5655 91.7248 80.9171 91.6485 81.2382 91.5815C81.5592 91.5144 81.871 91.432 82.1798 91.3497L82.7638 91.185C82.8647 91.1576 82.9686 91.1241 83.0695 91.0875C84.412 90.6738 85.7048 90.1145 86.9249 89.4195C87.0961 89.322 87.2612 89.2274 87.4263 89.1146L87.7321 88.9316L88.2824 88.5627C88.7288 88.2578 89.1324 87.9254 89.5054 87.6174C89.7255 87.4314 89.9242 87.2485 90.1168 87.0624C90.1841 87.0015 90.2452 86.9405 90.3003 86.8856L90.4807 86.7057C91.0021 86.1666 91.4814 85.5886 91.9146 84.9768C91.9414 84.9264 91.971 84.8775 92.0033 84.8304C92.2417 84.4614 92.3671 84.2205 92.3946 84.1687L92.3763 84.1656Z" fill="#545DEC" stroke="black" stroke-linecap="round" stroke-linejoin="round"></path>
    <path d="M0.623657 137.302L46.5 154.378V120.229L0.623657 137.302Z" fill="#0019C7" stroke="black" stroke-linecap="round" stroke-linejoin="round"></path>
    <path d="M46.5 154.378L92.3763 137.302L46.5 120.229V154.378Z" fill="#0019C7" stroke="black" stroke-linecap="round" stroke-linejoin="round"></path>
  </g>
  <mask id="path-7-outside-1_615_4443" maskUnits="userSpaceOnUse" x="15.8574" y="75.9244" width="61" height="61" fill="black">
    <rect fill="white" x="15.8574" y="75.9244" width="61" height="61"></rect>
    <path d="M17.4527 124.295L23.4775 116.241C25.5068 118.27 27.8111 119.285 30.3901 119.285C31.9121 119.285 33.1594 118.883 34.1318 118.08C35.1042 117.277 35.5904 116.325 35.5904 115.226C35.5904 114.296 35.1887 113.387 34.3854 112.499C33.6244 111.569 32.6731 110.681 31.5316 109.835C30.3901 108.948 29.2485 107.996 28.107 106.982C26.9655 105.967 25.9931 104.677 25.1898 103.113C24.4287 101.549 24.0482 99.7942 24.0482 97.8494C24.0482 94.5093 25.1475 91.5498 27.346 88.9708C29.5445 86.3495 32.3983 84.6372 35.9075 83.8339L37.2393 77.2383H43.4543L42.2493 83.5168C45.7162 83.8973 48.6969 85.0177 51.1914 86.8779L45.9276 95.3126C44.1096 93.9174 42.0168 93.2198 39.6492 93.2198C38.0849 93.2198 36.8376 93.6214 35.9075 94.4248C34.9774 95.2281 34.5123 96.2005 34.5123 97.342C34.5123 99.0332 35.8652 100.851 38.5711 102.796C39.6703 103.515 40.5582 104.149 41.2346 104.699C41.9111 105.248 42.6721 106.009 43.5177 106.982C44.3633 107.912 44.9975 108.969 45.4203 110.153C45.8853 111.336 46.1179 112.647 46.1179 114.084C46.1179 117.509 44.9552 120.638 42.6299 123.47C40.2622 126.345 37.1759 128.121 33.3707 128.798L32.1658 135.203H25.9508L27.1557 128.861C23.1392 128.311 19.9049 126.789 17.4527 124.295ZM73.1788 128.924H48.3187L50.031 120.046H57.3241L61.0024 101.084L61.8268 97.9128H61.7C61.6577 98.3778 61.2138 98.9486 60.3682 99.6251L57.8315 101.781L52.6312 95.3126L65.7588 83.5802H74.5106L67.4711 120.046H74.8911L73.1788 128.924Z"></path>
  </mask>
  <path d="M17.4527 124.295L23.4775 116.241C25.5068 118.27 27.8111 119.285 30.3901 119.285C31.9121 119.285 33.1594 118.883 34.1318 118.08C35.1042 117.277 35.5904 116.325 35.5904 115.226C35.5904 114.296 35.1887 113.387 34.3854 112.499C33.6244 111.569 32.6731 110.681 31.5316 109.835C30.3901 108.948 29.2485 107.996 28.107 106.982C26.9655 105.967 25.9931 104.677 25.1898 103.113C24.4287 101.549 24.0482 99.7942 24.0482 97.8494C24.0482 94.5093 25.1475 91.5498 27.346 88.9708C29.5445 86.3495 32.3983 84.6372 35.9075 83.8339L37.2393 77.2383H43.4543L42.2493 83.5168C45.7162 83.8973 48.6969 85.0177 51.1914 86.8779L45.9276 95.3126C44.1096 93.9174 42.0168 93.2198 39.6492 93.2198C38.0849 93.2198 36.8376 93.6214 35.9075 94.4248C34.9774 95.2281 34.5123 96.2005 34.5123 97.342C34.5123 99.0332 35.8652 100.851 38.5711 102.796C39.6703 103.515 40.5582 104.149 41.2346 104.699C41.9111 105.248 42.6721 106.009 43.5177 106.982C44.3633 107.912 44.9975 108.969 45.4203 110.153C45.8853 111.336 46.1179 112.647 46.1179 114.084C46.1179 117.509 44.9552 120.638 42.6299 123.47C40.2622 126.345 37.1759 128.121 33.3707 128.798L32.1658 135.203H25.9508L27.1557 128.861C23.1392 128.311 19.9049 126.789 17.4527 124.295ZM73.1788 128.924H48.3187L50.031 120.046H57.3241L61.0024 101.084L61.8268 97.9128H61.7C61.6577 98.3778 61.2138 98.9486 60.3682 99.6251L57.8315 101.781L52.6312 95.3126L65.7588 83.5802H74.5106L67.4711 120.046H74.8911L73.1788 128.924Z" fill="#CFFF5E"></path>
  <path d="M17.4527 124.295L16.6519 123.696L16.1376 124.384L16.7396 124.996L17.4527 124.295ZM23.4775 116.241L24.1846 115.534L23.3682 114.717L22.6767 115.642L23.4775 116.241ZM34.1318 118.08L34.7687 118.851L34.1318 118.08ZM34.3854 112.499L33.6115 113.132L33.6272 113.152L33.6439 113.17L34.3854 112.499ZM31.5316 109.835L30.9177 110.625L30.9269 110.632L30.9364 110.639L31.5316 109.835ZM28.107 106.982L28.7714 106.234V106.234L28.107 106.982ZM25.1898 103.113L24.2905 103.551L24.2953 103.56L24.3002 103.57L25.1898 103.113ZM27.346 88.9708L28.107 89.6195L28.1122 89.6134L27.346 88.9708ZM35.9075 83.8339L36.1306 84.8086L36.7599 84.6646L36.8877 84.0318L35.9075 83.8339ZM37.2393 77.2383V76.2383H36.421L36.2591 77.0404L37.2393 77.2383ZM43.4543 77.2383L44.4364 77.4268L44.6645 76.2383H43.4543V77.2383ZM42.2493 83.5168L41.2673 83.3283L41.063 84.3926L42.1402 84.5108L42.2493 83.5168ZM51.1914 86.8779L52.0397 87.4074L52.527 86.6265L51.7892 86.0763L51.1914 86.8779ZM45.9276 95.3126L45.3188 96.1059L46.1927 96.7766L46.776 95.842L45.9276 95.3126ZM35.9075 94.4247L36.5611 95.1816H36.5611L35.9075 94.4247ZM38.5711 102.796L37.9874 103.608L38.0054 103.621L38.0238 103.633L38.5711 102.796ZM41.2346 104.699L41.8652 103.922L41.2346 104.699ZM43.5177 106.982L42.7631 107.638L42.7704 107.646L42.7778 107.654L43.5177 106.982ZM45.4203 110.153L44.4785 110.489L44.4838 110.504L44.4895 110.518L45.4203 110.153ZM42.6299 123.47L43.4018 124.106L43.4028 124.105L42.6299 123.47ZM33.3707 128.798L33.1957 127.813L32.5157 127.934L32.388 128.613L33.3707 128.798ZM32.1658 135.203V136.203H32.9952L33.1486 135.388L32.1658 135.203ZM25.9508 135.203L24.9684 135.016L24.7429 136.203H25.9508V135.203ZM27.1557 128.861L28.1382 129.048L28.3347 128.013L27.2913 127.87L27.1557 128.861ZM18.2535 124.894L24.2782 116.84L22.6767 115.642L16.6519 123.696L18.2535 124.894ZM22.7703 116.948C24.9641 119.142 27.5148 120.285 30.3901 120.285V118.285C28.1073 118.285 26.0496 117.399 24.1846 115.534L22.7703 116.948ZM30.3901 120.285C32.0946 120.285 33.582 119.831 34.7687 118.851L33.4949 117.309C32.7367 117.935 31.7296 118.285 30.3901 118.285V120.285ZM34.7687 118.851C35.9331 117.889 36.5904 116.67 36.5904 115.226H34.5904C34.5904 115.981 34.2753 116.664 33.4949 117.309L34.7687 118.851ZM36.5904 115.226C36.5904 113.983 36.0474 112.845 35.127 111.828L33.6439 113.17C34.3301 113.928 34.5904 114.609 34.5904 115.226H36.5904ZM35.1594 111.866C34.3376 110.861 33.3231 109.918 32.1268 109.032L30.9364 110.639C32.0232 111.444 32.9112 112.276 33.6115 113.132L35.1594 111.866ZM32.1456 109.046C31.0222 108.172 29.8975 107.235 28.7714 106.234L27.4426 107.729C28.5996 108.757 29.7579 109.723 30.9177 110.625L32.1456 109.046ZM28.7714 106.234C27.7351 105.313 26.8346 104.127 26.0793 102.656L24.3002 103.57C25.1515 105.228 26.1959 106.621 27.4426 107.729L28.7714 106.234ZM26.089 102.676C25.4017 101.263 25.0482 99.6607 25.0482 97.8494H23.0482C23.0482 99.9277 23.4557 101.835 24.2905 103.551L26.089 102.676ZM25.0482 97.8494C25.0482 94.7509 26.0603 92.0205 28.107 89.6195L26.585 88.322C24.2347 91.0791 23.0482 94.2677 23.0482 97.8494H25.0482ZM28.1122 89.6134C30.1631 87.1681 32.822 85.566 36.1306 84.8086L35.6843 82.8591C31.9747 83.7083 28.9259 85.5308 26.5798 88.3281L28.1122 89.6134ZM36.8877 84.0318L38.2195 77.4363L36.2591 77.0404L34.9273 83.6359L36.8877 84.0318ZM37.2393 78.2383H43.4543V76.2383H37.2393V78.2383ZM42.4722 77.0498L41.2673 83.3283L43.2314 83.7052L44.4364 77.4268L42.4722 77.0498ZM42.1402 84.5108C45.4519 84.8743 48.2586 85.9383 50.5935 87.6796L51.7892 86.0763C49.1352 84.0971 45.9806 82.9203 42.3584 82.5227L42.1402 84.5108ZM50.343 86.3485L45.0793 94.7832L46.776 95.842L52.0397 87.4074L50.343 86.3485ZM46.5364 94.5193C44.5377 92.9853 42.2291 92.2198 39.6492 92.2198V94.2198C41.8045 94.2198 43.6816 94.8495 45.3188 96.1059L46.5364 94.5193ZM39.6492 92.2198C37.9121 92.2198 36.4108 92.6688 35.2539 93.6679L36.5611 95.1816C37.2645 94.5741 38.2576 94.2198 39.6492 94.2198V92.2198ZM35.2539 93.6679C34.1229 94.6447 33.5123 95.8855 33.5123 97.342H35.5123C35.5123 96.5154 35.8318 95.8114 36.5611 95.1816L35.2539 93.6679ZM33.5123 97.342C33.5123 99.5625 35.2538 101.643 37.9874 103.608L39.1547 101.984C36.4766 100.059 35.5123 98.5039 35.5123 97.342H33.5123ZM38.0238 103.633C39.1071 104.341 39.964 104.955 40.6041 105.475L41.8652 103.922C41.1523 103.343 40.2335 102.688 39.1183 101.959L38.0238 103.633ZM40.6041 105.475C41.2201 105.975 41.9392 106.69 42.7631 107.638L44.2723 106.325C43.405 105.328 42.6021 104.521 41.8652 103.922L40.6041 105.475ZM42.7778 107.654C43.5345 108.487 44.1001 109.429 44.4785 110.489L46.362 109.816C45.8948 108.508 45.192 107.337 44.2577 106.309L42.7778 107.654ZM44.4895 110.518C44.9033 111.571 45.1179 112.756 45.1179 114.084H47.1179C47.1179 112.538 46.8674 111.101 46.351 109.787L44.4895 110.518ZM45.1179 114.084C45.1179 117.261 44.0465 120.169 41.8569 122.836L43.4028 124.105C45.8639 121.107 47.1179 117.757 47.1179 114.084H45.1179ZM41.8579 122.835C39.6476 125.519 36.7763 127.176 33.1957 127.813L33.5458 129.782C37.5754 129.066 40.8769 127.172 43.4018 124.106L41.8579 122.835ZM32.388 128.613L31.183 135.018L33.1486 135.388L34.3535 128.982L32.388 128.613ZM32.1658 134.203H25.9508V136.203H32.1658V134.203ZM26.9332 135.39L28.1382 129.048L26.1733 128.674L24.9684 135.016L26.9332 135.39ZM27.2913 127.87C23.4577 127.346 20.4389 125.906 18.1658 123.594L16.7396 124.996C19.3708 127.673 22.8207 129.277 27.0202 129.852L27.2913 127.87ZM73.1788 128.924V129.924H74.0043L74.1607 129.114L73.1788 128.924ZM48.3187 128.924L47.3368 128.735L47.1074 129.924H48.3187V128.924ZM50.031 120.046V119.046H49.2054L49.0491 119.856L50.031 120.046ZM57.3241 120.046V121.046H58.1488L58.3058 120.236L57.3241 120.046ZM61.0024 101.084L60.0346 100.832L60.0267 100.862L60.0207 100.893L61.0024 101.084ZM61.8268 97.9128L62.7947 98.1644L63.1201 96.9128H61.8268V97.9128ZM61.7 97.9128V96.9128H60.7868L60.7041 97.8222L61.7 97.9128ZM60.3682 99.6251L59.7435 98.8442L59.7319 98.8535L59.7206 98.8631L60.3682 99.6251ZM57.8315 101.781L57.0521 102.408L57.696 103.209L58.4791 102.543L57.8315 101.781ZM52.6312 95.3126L51.9648 94.567L51.2571 95.1995L51.8518 95.9392L52.6312 95.3126ZM65.7588 83.5802V82.5802H65.3771L65.0924 82.8346L65.7588 83.5802ZM74.5106 83.5802L75.4924 83.7697L75.7221 82.5802H74.5106V83.5802ZM67.4711 120.046L66.4892 119.856L66.2596 121.046H67.4711V120.046ZM74.8911 120.046L75.873 120.235L76.1023 119.046H74.8911V120.046ZM73.1788 127.924H48.3187V129.924H73.1788V127.924ZM49.3006 129.114L51.0129 120.235L49.0491 119.856L47.3368 128.735L49.3006 129.114ZM50.031 121.046H57.3241V119.046H50.031V121.046ZM58.3058 120.236L61.9841 101.274L60.0207 100.893L56.3424 119.855L58.3058 120.236ZM61.9702 101.335L62.7947 98.1644L60.859 97.6611L60.0346 100.832L61.9702 101.335ZM61.8268 96.9128H61.7V98.9128H61.8268V96.9128ZM60.7041 97.8222C60.7074 97.7864 60.7099 97.8649 60.546 98.0757C60.3896 98.2767 60.1322 98.5333 59.7435 98.8442L60.9929 100.406C61.4498 100.04 61.8371 99.6733 62.1247 99.3036C62.4047 98.9436 62.6504 98.5042 62.6959 98.0033L60.7041 97.8222ZM59.7206 98.8631L57.1838 101.019L58.4791 102.543L61.0159 100.387L59.7206 98.8631ZM58.6109 101.155L53.4105 94.6861L51.8518 95.9392L57.0521 102.408L58.6109 101.155ZM53.2975 96.0582L66.4252 84.3258L65.0924 82.8346L51.9648 94.567L53.2975 96.0582ZM65.7588 84.5802H74.5106V82.5802H65.7588V84.5802ZM73.5287 83.3906L66.4892 119.856L68.453 120.235L75.4924 83.7697L73.5287 83.3906ZM67.4711 121.046H74.8911V119.046H67.4711V121.046ZM73.9092 119.856L72.1969 128.735L74.1607 129.114L75.873 120.235L73.9092 119.856Z" fill="black" mask="url(#path-7-outside-1_615_4443)"></path>
  <g clip-path="url(#clip1_615_4443)">
    <path d="M92.3762 83.4707V83.6366C92.3457 83.6919 92.2234 83.9437 91.9849 84.3062C91.9519 84.351 91.9223 84.3982 91.8962 84.4474C91.465 85.0662 90.9855 85.6495 90.4623 86.192L90.2819 86.3701C90.2269 86.4285 90.1657 86.4899 90.0985 86.5513C89.9558 86.6885 89.806 86.8267 89.649 86.966L89.487 87.1072C89.1232 87.4144 88.7165 87.7461 88.264 88.0624L87.7137 88.4341L87.408 88.6184C87.2429 88.7228 87.0778 88.818 86.9035 88.9255C85.6835 89.6264 84.3906 90.1908 83.0481 90.6086L82.7424 90.7038C82.5498 90.7591 82.3571 90.8144 82.1584 90.8666C81.8527 90.9526 81.5469 91.0263 81.2198 91.1031C80.8926 91.1799 80.5655 91.2413 80.2322 91.3027C79.899 91.3642 79.5932 91.4133 79.263 91.4625C76.2357 91.851 73.17 91.8272 70.1489 91.3918C58.9252 89.9175 52.4466 94.0455 49.1874 97.3134C49.114 97.3902 49.0437 97.4578 48.9673 97.5315C48.8327 97.6789 48.6952 97.8233 48.5729 97.9615C48.4506 98.0997 48.3191 98.2379 48.206 98.373C47.9797 98.6372 47.781 98.8921 47.5945 99.1255C47.5639 99.1655 47.5334 99.2023 47.5058 99.2422C47.4172 99.359 47.3346 99.4695 47.2643 99.574C47.194 99.6784 47.1665 99.7122 47.1298 99.7767C47.0801 99.8337 47.0361 99.8954 46.9983 99.9609C46.9372 100.059 46.876 100.145 46.824 100.228C46.7721 100.311 46.7354 100.366 46.7017 100.428C46.6834 100.47 46.6597 100.509 46.6314 100.545C46.5933 100.605 46.5596 100.669 46.5305 100.735C46.5305 100.735 46.5305 100.735 46.5305 100.753C46.5143 100.773 46.5019 100.796 46.4938 100.821V100.882C45.9527 101.103 36.0436 104.995 24.6548 92.1689C12.9817 79.0295 1.20152 83.5537 0.617554 83.7871V83.5782C0.923294 82.964 4.24668 76.9502 14.2199 75.737C17.0747 75.4188 19.958 75.4621 22.802 75.866C40.0916 78.148 46.1086 67.1279 46.451 66.4615C46.451 66.4277 46.4755 66.3785 46.4877 66.3785C47.2368 66.0714 57.0419 62.4072 68.3084 75.0951C69.3538 76.2737 70.4774 77.3799 71.6715 78.406C82.4489 87.6417 92.3762 83.4707 92.3762 83.4707Z" stroke="black" stroke-linecap="round" stroke-linejoin="round"></path>
    <path d="M0.629547 137.18H0.623779V137.174L0.629547 137.18Z" stroke="black" stroke-linecap="round" stroke-linejoin="round"></path>
    <path d="M0.623779 137.174L0.629547 137.18H0.623779V137.174Z" stroke="black" stroke-linecap="round" stroke-linejoin="round"></path>
    <path d="M46.5027 119.977H46.4969V119.983H46.5027V119.977Z" stroke="black" stroke-linecap="round" stroke-linejoin="round"></path>
    <path d="M92.3763 83.6489V137.189L46.5153 154.389V119.989V100.839C46.5297 100.818 46.542 100.795 46.5519 100.772C46.5519 100.772 46.5519 100.756 46.5519 100.753L46.6528 100.563C46.6812 100.527 46.7048 100.488 46.7232 100.446C46.766 100.385 46.7996 100.323 46.8455 100.247C46.8913 100.17 46.9586 100.078 47.0197 99.9794C47.0809 99.8811 47.0992 99.8565 47.1512 99.7951C47.2032 99.7337 47.2399 99.663 47.2857 99.5924C47.3316 99.5217 47.4417 99.3774 47.5273 99.2607C47.5548 99.2207 47.5854 99.1839 47.6159 99.144C47.7933 98.9105 47.992 98.6556 48.2274 98.3915C48.3436 98.2563 48.4628 98.1181 48.5943 97.9799C48.7258 97.8417 48.8542 97.6973 48.9887 97.5499C49.0651 97.4762 49.1354 97.4086 49.2088 97.3318C52.468 94.0639 58.9466 89.936 70.1704 91.4102C73.1914 91.8457 76.2571 91.8694 79.2845 91.4809C79.6147 91.4317 79.9357 91.3764 80.2537 91.3212C80.5716 91.2659 80.9171 91.1891 81.2412 91.1215C81.5653 91.0539 81.871 90.971 82.1798 90.885C82.3786 90.8328 82.5712 90.7775 82.7638 90.7222L83.0695 90.627C84.412 90.2092 85.7049 89.6448 86.9249 88.9439C87.0992 88.8456 87.2643 88.7504 87.4294 88.6368L87.7351 88.4525L88.2855 88.0809C88.7288 87.7737 89.1354 87.4389 89.5084 87.1257L89.6705 86.9844C89.8254 86.8451 89.9752 86.7069 90.1199 86.5697C90.1872 86.5083 90.2483 86.4469 90.3033 86.3885L90.4837 86.2104C91.0069 85.6679 91.4864 85.0846 91.9176 84.4659C91.9437 84.4166 91.9733 84.3694 92.0063 84.3246C92.2448 83.9499 92.3671 83.7103 92.3977 83.655L92.3763 83.6489Z" stroke="black" stroke-linecap="round" stroke-linejoin="round"></path>
    <path d="M46.5153 100.889V119.974V154.373L0.654297 137.174V83.7933C1.23826 83.5598 13.0184 79.0357 24.6916 92.175C36.0498 105.001 45.9588 101.11 46.5153 100.889Z" stroke="black" stroke-linecap="round" stroke-linejoin="round"></path>
    <path d="M46.5027 119.977H46.4969V119.983H46.5027V119.977Z" stroke="black" stroke-linecap="round" stroke-linejoin="round"></path>
    <path d="M48.6554 53.703C48.8511 51.9062 47.0472 51.0585 47.0472 51.0585L50.3187 49.5689L51.19 53.703H48.6554Z" fill="#69ADF8" stroke="black" stroke-linecap="round" stroke-linejoin="round"></path>
    <path d="M50.9516 62.567C50.3688 62.5933 49.7883 62.477 49.26 62.2283C48.7317 61.9795 48.2714 61.6056 47.9187 61.1388C47.9187 61.1388 51.0464 59.6031 53.6177 55.0329C54.1176 55.8072 54.4103 56.6979 54.4677 57.619C54.6511 60.202 53.0765 62.4165 50.9516 62.567Z" fill="#F25453" stroke="black" stroke-linecap="round" stroke-linejoin="round"></path>
    <path d="M53.6176 55.0329C51.0464 59.597 47.9186 61.1388 47.9186 61.1388C47.2422 60.2886 46.8439 59.2491 46.7782 58.1626C46.5978 55.5796 48.1724 53.3621 50.2973 53.2147C51.6181 53.1195 52.838 53.8566 53.6176 55.0329Z" fill="#69ADF8" stroke="black" stroke-linecap="round" stroke-linejoin="round"></path>
    <path d="M52.8044 51.12C51.5815 52.37 47.2858 51.9554 44.8552 49.8669C40.6726 46.2519 43.5588 42.5293 43.5588 42.5293C42.8128 40.9414 42.1555 39.0249 40.694 34.4086C39.8196 31.6444 39.6515 28.7634 38.9972 27.194C40.1306 28.8485 41.633 30.2144 43.3846 31.1827C45.1362 32.151 47.0887 32.6951 49.0866 32.7716C48.922 33.2035 48.8519 33.666 48.8809 34.1275C48.9099 34.5891 49.0374 35.039 49.2548 35.4468C50.6031 37.9192 52.6699 41.0367 53.6054 43.6258C53.6177 43.6258 54.862 49.0069 52.8044 51.12Z" fill="#CFFF5E" stroke="black" stroke-linecap="round" stroke-linejoin="round"></path>
    <path d="M46.4388 46.3593C46.4388 46.3593 48.0562 42.9962 51.1931 45.3949C51.1931 45.3949 53.1193 53.7398 53.3547 57.6282C53.3547 57.6282 53.743 58.6018 54.4798 62.9447C54.817 64.8095 54.9584 66.7047 54.9017 68.5991C54.9017 68.5991 54.8681 74.4102 54.596 75.6203C54.3239 76.8304 53.2477 73.4888 52.9022 71.9592C52.5567 70.4297 52.4528 69.2349 52.8533 68.5623C52.8533 68.5623 49.9212 60.5122 50.2147 58.5312C50.6428 55.6994 47.7382 51.2489 46.4388 46.3593Z" fill="#69ADF8" stroke="black" stroke-linecap="round" stroke-linejoin="round"></path>
    <path d="M49.0989 32.7715C47.101 32.6951 45.1485 32.151 43.3968 31.1827C41.6452 30.2143 40.1429 28.8485 39.0094 27.1939C36.163 20.3663 36.2578 17.3072 36.2578 17.3072C35.4867 15.9271 34.7996 14.5014 34.2001 13.0379C33.7843 11.9538 31.6136 7.07642 31.6136 7.07642C31.6136 7.07642 26.6698 -0.663443 30.0849 0.820031C30.0849 0.820031 30.8829 1.69845 31.7695 2.59222C32.6562 3.48599 33.7874 4.60396 33.0383 5.80179C33.0383 5.80179 39.8747 12.4237 39.3794 15.5381C39.3794 15.5381 43.9655 22.4916 44.7084 23.7356C44.7145 23.7294 51.7129 27.0342 49.0989 32.7715Z" fill="#69ADF8" stroke="black" stroke-linecap="round" stroke-linejoin="round"></path>
    <path d="M64.4103 65.7397C64.4103 65.7397 68.2871 59.5663 72.1302 61.5197C72.4545 61.655 72.732 61.8832 72.9283 62.1757C73.1246 62.4682 73.231 62.8122 73.2342 63.165C73.2375 63.5177 73.1375 63.8637 72.9466 64.1598C72.7558 64.4559 72.4825 64.6892 72.1608 64.8306C70.8645 65.3097 68.4216 62.9663 64.4103 65.7397Z" fill="#69ADF8" stroke="black" stroke-linecap="round" stroke-linejoin="round"></path>
    <path d="M42.3113 64.1917C42.3113 64.1917 38.4131 56.5133 33.6772 58.3838C31.4942 59.2499 32.017 61.6701 33.2828 62.2752C34.7565 62.9847 37.8873 60.4876 42.3113 64.1917Z" fill="#69ADF8" stroke="black" stroke-linecap="round" stroke-linejoin="round"></path>
    <path d="M58.1334 70.2577C58.1334 70.2577 60.5488 58.8721 70.6871 57.8985" stroke="black" stroke-linecap="round" stroke-linejoin="round"></path>
    <path d="M35.8328 66.2803C35.8328 66.2803 45.6348 65.7827 49.6797 75.8691" stroke="black" stroke-linecap="round" stroke-linejoin="round"></path>
  </g>
  <defs>
    <clipPath id="clip0_615_4443">
      <rect width="93" height="89.322" fill="white" transform="translate(0 65.678)"></rect>
    </clipPath>
    <clipPath id="clip1_615_4443">
      <rect width="93" height="155" fill="white"></rect>
    </clipPath>
  </defs>
</svg>
