<?xml version="1.0" encoding="UTF-8"?>
<svg xmlns="http://www.w3.org/2000/svg" width="93" height="155" viewBox="0 0 93 155" fill="none">
  <g clip-path="url(#clip0_615_4507)">
    <path d="M92.3764 83.9888V84.1534C92.3488 84.2083 92.2235 84.4584 91.985 84.8151C91.9528 84.8622 91.9232 84.9111 91.8963 84.9615C91.4632 85.5733 90.9838 86.1513 90.4624 86.6904C90.4074 86.7453 90.3432 86.8002 90.282 86.8703C90.2209 86.9405 90.1658 86.9862 90.0986 87.0472C89.9121 87.2241 89.7072 87.41 89.4871 87.6022C89.1233 87.9071 88.7197 88.2303 88.2641 88.5474L87.7138 88.9164L87.4081 89.0993C87.243 89.203 87.0779 89.2975 86.9067 89.4043C85.6866 90.0992 84.3937 90.6585 83.0513 91.0722C82.9473 91.1088 82.8434 91.1423 82.7455 91.1698L82.1616 91.3345C81.8558 91.4168 81.5501 91.49 81.2199 91.5662C80.8897 91.6424 80.5687 91.7034 80.2324 91.7644C79.896 91.8254 79.5934 91.8742 79.2662 91.923C76.2389 92.3087 73.1731 92.2851 70.1521 91.8528C58.9284 90.3892 52.4498 94.4874 49.1906 97.7318L48.9704 97.9513C48.8359 98.0947 48.6983 98.238 48.573 98.3752C48.4476 98.5124 48.3192 98.6496 48.2092 98.7869C47.9829 99.046 47.7842 99.2991 47.5977 99.5309C47.4723 99.6894 47.3653 99.8358 47.2675 99.9761L47.1299 100.174C47.0834 100.234 47.0405 100.296 47.0015 100.36C46.9373 100.455 46.8761 100.543 46.8272 100.626C46.7783 100.708 46.7385 100.763 46.7049 100.824C46.6713 100.885 46.656 100.906 46.6376 100.943C46.5978 101.001 46.563 101.062 46.5337 101.126C46.5337 101.126 46.5337 101.141 46.5337 101.147C46.5175 101.167 46.5051 101.19 46.497 101.214V101.275C45.9559 101.495 36.0468 105.361 24.658 92.6243C12.9849 79.5826 1.20469 84.0711 0.620728 84.3029V84.0986C0.926468 83.5039 4.24986 77.5152 14.22 76.3107C17.0759 75.9948 19.9602 76.0378 22.8052 76.4388C40.0948 78.7044 46.1118 67.7637 46.4573 67.0989C46.4573 67.0654 46.4756 67.0166 46.4909 67.0166C47.2369 66.7117 57.042 63.0739 68.3085 75.6734C69.3571 76.8396 70.4805 77.9366 71.6716 78.9575C82.449 88.1297 92.3764 83.9888 92.3764 83.9888Z" fill="#69ADF8" stroke="black" stroke-linecap="round" stroke-linejoin="round"></path>
    <path d="M0.623657 137.305L46.5 154.378L0.623657 137.302V137.305Z" fill="#F25453" stroke="black" stroke-linecap="round" stroke-linejoin="round"></path>
    <path d="M46.5153 101.281V120.232L0.654297 137.308V84.312C1.23826 84.0803 13.0184 79.5917 24.6916 92.6334C36.0498 105.367 45.9589 101.501 46.5153 101.281Z" fill="#545DEC" stroke="black" stroke-linecap="round" stroke-linejoin="round"></path>
    <path d="M92.3763 84.1656V137.317L46.5153 120.241V101.229C46.5297 101.208 46.542 101.186 46.5519 101.162C46.5519 101.162 46.5519 101.147 46.5519 101.141L46.6559 100.958C46.6742 100.921 46.7018 100.882 46.7232 100.839C46.7446 100.796 46.7996 100.717 46.8455 100.641C46.8913 100.565 46.9555 100.47 47.0197 100.376C47.0839 100.281 47.1023 100.251 47.1481 100.19L47.2857 99.9913C47.3897 99.8541 47.4906 99.7047 47.6159 99.5461C47.7933 99.3144 47.992 99.0613 48.2274 98.8021C48.3466 98.6649 48.4628 98.5277 48.5912 98.3905C48.7196 98.2532 48.8542 98.1099 48.9887 97.9666L49.2088 97.7471C52.468 94.5027 58.9466 90.4044 70.1704 91.8681C73.1914 92.3004 76.2571 92.324 79.2845 91.9382C79.6116 91.8894 79.9357 91.8345 80.2506 91.7797C80.5655 91.7248 80.9171 91.6485 81.2382 91.5815C81.5592 91.5144 81.871 91.432 82.1798 91.3497L82.7638 91.185C82.8647 91.1576 82.9686 91.1241 83.0695 91.0875C84.412 90.6738 85.7048 90.1145 86.9249 89.4195C87.0961 89.322 87.2612 89.2274 87.4263 89.1146L87.7321 88.9316L88.2824 88.5627C88.7288 88.2578 89.1324 87.9254 89.5054 87.6174C89.7255 87.4314 89.9242 87.2485 90.1168 87.0624C90.1841 87.0015 90.2452 86.9405 90.3003 86.8856L90.4807 86.7057C91.0021 86.1666 91.4814 85.5886 91.9146 84.9768C91.9414 84.9264 91.971 84.8775 92.0033 84.8304C92.2417 84.4614 92.3671 84.2205 92.3946 84.1687L92.3763 84.1656Z" fill="#545DEC" stroke="black" stroke-linecap="round" stroke-linejoin="round"></path>
    <path d="M0.623657 137.302L46.5 154.378V120.229L0.623657 137.302Z" fill="#0019C7" stroke="black" stroke-linecap="round" stroke-linejoin="round"></path>
    <path d="M46.5 154.378L92.3763 137.302L46.5 120.229V154.378Z" fill="#0019C7" stroke="black" stroke-linecap="round" stroke-linejoin="round"></path>
  </g>
  <mask id="path-7-outside-1_615_4507" maskUnits="userSpaceOnUse" x="13.8574" y="75.9244" width="67" height="61" fill="black">
    <rect fill="white" x="13.8574" y="75.9244" width="67" height="61"></rect>
    <path d="M15.9354 124.295L21.9601 116.241C23.9895 118.27 26.2937 119.285 28.8727 119.285C30.3948 119.285 31.642 118.883 32.6144 118.08C33.5869 117.277 34.0731 116.325 34.0731 115.226C34.0731 114.296 33.6714 113.387 32.8681 112.499C32.1071 111.569 31.1558 110.681 30.0143 109.835C28.8727 108.948 27.7312 107.996 26.5897 106.982C25.4481 105.967 24.4757 104.677 23.6724 103.113C22.9114 101.549 22.5309 99.7942 22.5309 97.8494C22.5309 94.5093 23.6301 91.5498 25.8286 88.9708C28.0272 86.3495 30.881 84.6372 34.3902 83.8339L35.7219 77.2383H41.937L40.732 83.5168C44.1989 83.8973 47.1796 85.0177 49.674 86.8779L44.4103 95.3126C42.5923 93.9174 40.4995 93.2198 38.1318 93.2198C36.5675 93.2198 35.3203 93.6214 34.3902 94.4248C33.46 95.2281 32.9949 96.2005 32.9949 97.342C32.9949 99.0332 34.3479 100.851 37.0537 102.796C38.153 103.515 39.0408 104.149 39.7173 104.699C40.3938 105.248 41.1548 106.009 42.0004 106.982C42.846 107.912 43.4801 108.969 43.9029 110.153C44.368 111.336 44.6005 112.647 44.6005 114.084C44.6005 117.509 43.4379 120.638 41.1125 123.47C38.7449 126.345 35.6585 128.121 31.8534 128.798L30.6485 135.203H24.4334L25.6384 128.861C21.6219 128.311 18.3875 126.789 15.9354 124.295ZM61.7681 117.953H46.9282L48.1331 111.231L64.5586 83.5802H78.7009L73.8177 108.757H77.6862L75.9105 117.953H72.0419L69.8857 128.924H59.6119L61.7681 117.953ZM58.5338 108.631V108.757H63.5439L65.5098 98.6738L66.7148 93.6003H66.6514C65.7635 95.672 64.9179 97.342 64.1146 98.6104L58.5338 108.631Z"></path>
  </mask>
  <path d="M15.9354 124.295L21.9601 116.241C23.9895 118.27 26.2937 119.285 28.8727 119.285C30.3948 119.285 31.642 118.883 32.6144 118.08C33.5869 117.277 34.0731 116.325 34.0731 115.226C34.0731 114.296 33.6714 113.387 32.8681 112.499C32.1071 111.569 31.1558 110.681 30.0143 109.835C28.8727 108.948 27.7312 107.996 26.5897 106.982C25.4481 105.967 24.4757 104.677 23.6724 103.113C22.9114 101.549 22.5309 99.7942 22.5309 97.8494C22.5309 94.5093 23.6301 91.5498 25.8286 88.9708C28.0272 86.3495 30.881 84.6372 34.3902 83.8339L35.7219 77.2383H41.937L40.732 83.5168C44.1989 83.8973 47.1796 85.0177 49.674 86.8779L44.4103 95.3126C42.5923 93.9174 40.4995 93.2198 38.1318 93.2198C36.5675 93.2198 35.3203 93.6214 34.3902 94.4248C33.46 95.2281 32.9949 96.2005 32.9949 97.342C32.9949 99.0332 34.3479 100.851 37.0537 102.796C38.153 103.515 39.0408 104.149 39.7173 104.699C40.3938 105.248 41.1548 106.009 42.0004 106.982C42.846 107.912 43.4801 108.969 43.9029 110.153C44.368 111.336 44.6005 112.647 44.6005 114.084C44.6005 117.509 43.4379 120.638 41.1125 123.47C38.7449 126.345 35.6585 128.121 31.8534 128.798L30.6485 135.203H24.4334L25.6384 128.861C21.6219 128.311 18.3875 126.789 15.9354 124.295ZM61.7681 117.953H46.9282L48.1331 111.231L64.5586 83.5802H78.7009L73.8177 108.757H77.6862L75.9105 117.953H72.0419L69.8857 128.924H59.6119L61.7681 117.953ZM58.5338 108.631V108.757H63.5439L65.5098 98.6738L66.7148 93.6003H66.6514C65.7635 95.672 64.9179 97.342 64.1146 98.6104L58.5338 108.631Z" fill="#49D9B0"></path>
  <path d="M15.9354 124.295L15.1346 123.696L14.6202 124.384L15.2222 124.996L15.9354 124.295ZM21.9601 116.241L22.6672 115.534L21.8509 114.717L21.1594 115.642L21.9601 116.241ZM32.6144 118.08L33.2513 118.851L32.6144 118.08ZM32.8681 112.499L32.0942 113.132L32.1099 113.152L32.1266 113.17L32.8681 112.499ZM30.0143 109.835L29.4003 110.625L29.4096 110.632L29.419 110.639L30.0143 109.835ZM26.5897 106.982L27.254 106.234V106.234L26.5897 106.982ZM23.6724 103.113L22.7732 103.551L22.7779 103.56L22.7829 103.57L23.6724 103.113ZM25.8286 88.9708L26.5897 89.6195L26.5948 89.6134L25.8286 88.9708ZM34.3902 83.8339L34.6133 84.8086L35.2426 84.6646L35.3704 84.0318L34.3902 83.8339ZM35.7219 77.2383V76.2383H34.9037L34.7417 77.0404L35.7219 77.2383ZM41.937 77.2383L42.919 77.4268L43.1471 76.2383H41.937V77.2383ZM40.732 83.5168L39.7499 83.3283L39.5457 84.3926L40.6229 84.5108L40.732 83.5168ZM49.674 86.8779L50.5224 87.4074L51.0097 86.6265L50.2718 86.0763L49.674 86.8779ZM44.4103 95.3126L43.8015 96.1059L44.6754 96.7766L45.2586 95.842L44.4103 95.3126ZM34.3902 94.4247L35.0438 95.1816H35.0438L34.3902 94.4247ZM37.0537 102.796L36.4701 103.608L36.488 103.621L36.5065 103.633L37.0537 102.796ZM39.7173 104.699L40.3479 103.922L39.7173 104.699ZM42.0004 106.982L41.2458 107.638L41.253 107.646L41.2604 107.654L42.0004 106.982ZM43.9029 110.153L42.9612 110.489L42.9665 110.504L42.9722 110.518L43.9029 110.153ZM41.1125 123.47L41.8844 124.106L41.8854 124.105L41.1125 123.47ZM31.8534 128.798L31.6784 127.813L30.9983 127.934L30.8706 128.613L31.8534 128.798ZM30.6485 135.203V136.203H31.4779L31.6312 135.388L30.6485 135.203ZM24.4334 135.203L23.451 135.016L23.2256 136.203H24.4334V135.203ZM25.6384 128.861L26.6208 129.048L26.8174 128.013L25.774 127.87L25.6384 128.861ZM16.7361 124.894L22.7609 116.84L21.1594 115.642L15.1346 123.696L16.7361 124.894ZM21.253 116.948C23.4468 119.142 25.9974 120.285 28.8727 120.285V118.285C26.59 118.285 24.5323 117.399 22.6672 115.534L21.253 116.948ZM28.8727 120.285C30.5773 120.285 32.0646 119.831 33.2513 118.851L31.9776 117.309C31.2194 117.935 30.2123 118.285 28.8727 118.285V120.285ZM33.2513 118.851C34.4157 117.889 35.0731 116.67 35.0731 115.226H33.0731C33.0731 115.981 32.758 116.664 31.9776 117.309L33.2513 118.851ZM35.0731 115.226C35.0731 113.983 34.5301 112.845 33.6096 111.828L32.1266 113.17C32.8128 113.928 33.0731 114.609 33.0731 115.226H35.0731ZM33.6421 111.866C32.8203 110.861 31.8057 109.918 30.6095 109.032L29.419 110.639C30.5059 111.444 31.3939 112.276 32.0942 113.132L33.6421 111.866ZM30.6282 109.046C29.5049 108.172 28.3801 107.235 27.254 106.234L25.9253 107.729C27.0823 108.757 28.2406 109.723 29.4003 110.625L30.6282 109.046ZM27.254 106.234C26.2178 105.313 25.3173 104.127 24.562 102.656L22.7829 103.57C23.6342 105.228 24.6785 106.621 25.9253 107.729L27.254 106.234ZM24.5717 102.676C23.8844 101.263 23.5309 99.6607 23.5309 97.8494H21.5309C21.5309 99.9277 21.9384 101.835 22.7732 103.551L24.5717 102.676ZM23.5309 97.8494C23.5309 94.7509 24.5429 92.0205 26.5897 89.6195L25.0676 88.322C22.7173 91.0791 21.5309 94.2677 21.5309 97.8494H23.5309ZM26.5948 89.6134C28.6457 87.1681 31.3046 85.566 34.6133 84.8086L34.167 82.8591C30.4573 83.7083 27.4086 85.5308 25.0625 88.3281L26.5948 89.6134ZM35.3704 84.0318L36.7022 77.4363L34.7417 77.0404L33.4099 83.6359L35.3704 84.0318ZM35.7219 78.2383H41.937V76.2383H35.7219V78.2383ZM40.9549 77.0498L39.7499 83.3283L41.7141 83.7052L42.919 77.4268L40.9549 77.0498ZM40.6229 84.5108C43.9345 84.8743 46.7413 85.9383 49.0762 87.6796L50.2718 86.0763C47.6178 84.0971 44.4632 82.9203 40.8411 82.5227L40.6229 84.5108ZM48.8257 86.3485L43.5619 94.7832L45.2586 95.842L50.5224 87.4074L48.8257 86.3485ZM45.0191 94.5193C43.0203 92.9853 40.7118 92.2198 38.1318 92.2198V94.2198C40.2872 94.2198 42.1643 94.8495 43.8015 96.1059L45.0191 94.5193ZM38.1318 92.2198C36.3948 92.2198 34.8935 92.6688 33.7365 93.6679L35.0438 95.1816C35.7471 94.5741 36.7402 94.2198 38.1318 94.2198V92.2198ZM33.7365 93.6679C32.6055 94.6447 31.9949 95.8855 31.9949 97.342H33.9949C33.9949 96.5154 34.3145 95.8114 35.0438 95.1816L33.7365 93.6679ZM31.9949 97.342C31.9949 99.5625 33.7365 101.643 36.4701 103.608L37.6374 101.984C34.9593 100.059 33.9949 98.5039 33.9949 97.342H31.9949ZM36.5065 103.633C37.5898 104.341 38.4467 104.955 39.0867 105.475L40.3479 103.922C39.635 103.343 38.7162 102.688 37.601 101.959L36.5065 103.633ZM39.0867 105.475C39.7028 105.975 40.4219 106.69 41.2458 107.638L42.755 106.325C41.8877 105.328 41.0848 104.521 40.3479 103.922L39.0867 105.475ZM41.2604 107.654C42.0172 108.487 42.5828 109.429 42.9612 110.489L44.8447 109.816C44.3775 108.508 43.6747 107.337 42.7403 106.309L41.2604 107.654ZM42.9722 110.518C43.3859 111.571 43.6005 112.756 43.6005 114.084H45.6005C45.6005 112.538 45.3501 111.101 44.8337 109.787L42.9722 110.518ZM43.6005 114.084C43.6005 117.261 42.5292 120.169 40.3396 122.836L41.8854 124.105C44.3465 121.107 45.6005 117.757 45.6005 114.084H43.6005ZM40.3406 122.835C38.1302 125.519 35.259 127.176 31.6784 127.813L32.0284 129.782C36.058 129.066 39.3596 127.172 41.8844 124.106L40.3406 122.835ZM30.8706 128.613L29.6657 135.018L31.6312 135.388L32.8362 128.982L30.8706 128.613ZM30.6485 134.203H24.4334V136.203H30.6485V134.203ZM25.4159 135.39L26.6208 129.048L24.656 128.674L23.451 135.016L25.4159 135.39ZM25.774 127.87C21.9404 127.346 18.9216 125.906 16.6485 123.594L15.2222 124.996C17.8535 127.673 21.3034 129.277 25.5028 129.852L25.774 127.87ZM61.7681 117.953L62.7494 118.146L62.9838 116.953H61.7681V117.953ZM46.9282 117.953L45.9439 117.777L45.733 118.953H46.9282V117.953ZM48.1331 111.231L47.2734 110.72L47.1808 110.876L47.1488 111.054L48.1331 111.231ZM64.5586 83.5802V82.5802H63.9895L63.6988 83.0695L64.5586 83.5802ZM78.7009 83.5802L79.6826 83.7706L79.9135 82.5802H78.7009V83.5802ZM73.8177 108.757L72.836 108.567L72.6051 109.757H73.8177V108.757ZM77.6862 108.757L78.668 108.947L78.8978 107.757H77.6862V108.757ZM75.9105 117.953V118.953H76.7358L76.8923 118.143L75.9105 117.953ZM72.0419 117.953V116.953H71.2193L71.0607 117.76L72.0419 117.953ZM69.8857 128.924V129.924H70.7083L70.8669 129.117L69.8857 128.924ZM59.6119 128.924L58.6307 128.732L58.3962 129.924H59.6119V128.924ZM58.5338 108.631L57.6602 108.144L57.5338 108.371V108.631H58.5338ZM58.5338 108.757H57.5338V109.757H58.5338V108.757ZM63.5439 108.757V109.757H64.3677L64.5254 108.949L63.5439 108.757ZM65.5098 98.6738L64.5369 98.4427L64.5322 98.4625L64.5283 98.4824L65.5098 98.6738ZM66.7148 93.6003L67.6877 93.8314L67.9801 92.6003H66.7148V93.6003ZM66.6514 93.6003V92.6003H65.992L65.7322 93.2064L66.6514 93.6003ZM64.1146 98.6104L63.2698 98.0753L63.2547 98.0992L63.241 98.1238L64.1146 98.6104ZM61.7681 116.953H46.9282V118.953H61.7681V116.953ZM47.9125 118.129L49.1175 111.407L47.1488 111.054L45.9439 117.777L47.9125 118.129ZM48.9929 111.741L65.4183 84.0909L63.6988 83.0695L47.2734 110.72L48.9929 111.741ZM64.5586 84.5802H78.7009V82.5802H64.5586V84.5802ZM77.7192 83.3898L72.836 108.567L74.7994 108.948L79.6826 83.7706L77.7192 83.3898ZM73.8177 109.757H77.6862V107.757H73.8177V109.757ZM76.7043 108.568L74.9286 117.763L76.8923 118.143L78.668 108.947L76.7043 108.568ZM75.9105 116.953H72.0419V118.953H75.9105V116.953ZM71.0607 117.76L68.9045 128.732L70.8669 129.117L73.0232 118.146L71.0607 117.76ZM69.8857 127.924H59.6119V129.924H69.8857V127.924ZM60.5931 129.117L62.7494 118.146L60.7869 117.76L58.6307 128.732L60.5931 129.117ZM57.5338 108.631V108.757H59.5338V108.631H57.5338ZM58.5338 109.757H63.5439V107.757H58.5338V109.757ZM64.5254 108.949L66.4913 98.8652L64.5283 98.4824L62.5623 108.566L64.5254 108.949ZM66.4828 98.9049L67.6877 93.8314L65.7418 93.3692L64.5369 98.4427L66.4828 98.9049ZM66.7148 92.6003H66.6514V94.6003H66.7148V92.6003ZM65.7322 93.2064C64.856 95.2508 64.0343 96.8682 63.2698 98.0753L64.9594 99.1454C65.8016 97.8158 66.671 96.0932 67.5705 93.9942L65.7322 93.2064ZM63.241 98.1238L57.6602 108.144L59.4074 109.117L64.9883 99.097L63.241 98.1238Z" fill="black" mask="url(#path-7-outside-1_615_4507)"></path>
  <g clip-path="url(#clip1_615_4507)">
    <path d="M92.3762 83.4707V83.6366C92.3457 83.6919 92.2234 83.9437 91.9849 84.3062C91.9519 84.351 91.9223 84.3982 91.8962 84.4474C91.465 85.0662 90.9855 85.6495 90.4623 86.192L90.2819 86.3701C90.2269 86.4285 90.1657 86.4899 90.0985 86.5513C89.9558 86.6885 89.806 86.8267 89.649 86.966L89.487 87.1072C89.1232 87.4144 88.7165 87.7461 88.264 88.0624L87.7137 88.4341L87.408 88.6184C87.2429 88.7228 87.0778 88.818 86.9035 88.9255C85.6835 89.6264 84.3906 90.1908 83.0481 90.6086L82.7424 90.7038C82.5498 90.7591 82.3571 90.8144 82.1584 90.8666C81.8527 90.9526 81.5469 91.0263 81.2198 91.1031C80.8926 91.1799 80.5655 91.2413 80.2322 91.3027C79.899 91.3642 79.5932 91.4133 79.263 91.4625C76.2357 91.851 73.17 91.8272 70.1489 91.3918C58.9252 89.9175 52.4466 94.0455 49.1874 97.3134C49.114 97.3902 49.0437 97.4578 48.9673 97.5315C48.8327 97.6789 48.6952 97.8233 48.5729 97.9615C48.4506 98.0997 48.3191 98.2379 48.206 98.373C47.9797 98.6372 47.781 98.8921 47.5945 99.1255C47.5639 99.1655 47.5334 99.2023 47.5058 99.2422C47.4172 99.359 47.3346 99.4695 47.2643 99.574C47.194 99.6784 47.1665 99.7122 47.1298 99.7767C47.0801 99.8337 47.0361 99.8954 46.9983 99.9609C46.9372 100.059 46.876 100.145 46.824 100.228C46.7721 100.311 46.7354 100.366 46.7017 100.428C46.6834 100.47 46.6597 100.509 46.6314 100.545C46.5933 100.605 46.5596 100.669 46.5305 100.735C46.5305 100.735 46.5305 100.735 46.5305 100.753C46.5143 100.773 46.5019 100.796 46.4938 100.821V100.882C45.9527 101.103 36.0436 104.995 24.6548 92.1689C12.9817 79.0295 1.20152 83.5537 0.617554 83.7871V83.5782C0.923294 82.964 4.24668 76.9502 14.2199 75.737C17.0747 75.4188 19.958 75.4621 22.802 75.866C40.0916 78.148 46.1086 67.1279 46.451 66.4615C46.451 66.4277 46.4755 66.3785 46.4877 66.3785C47.2368 66.0714 57.0419 62.4072 68.3084 75.0951C69.3538 76.2737 70.4774 77.3799 71.6715 78.406C82.4489 87.6417 92.3762 83.4707 92.3762 83.4707Z" stroke="black" stroke-linecap="round" stroke-linejoin="round"></path>
    <path d="M0.629547 137.18H0.623779V137.174L0.629547 137.18Z" stroke="black" stroke-linecap="round" stroke-linejoin="round"></path>
    <path d="M0.623779 137.174L0.629547 137.18H0.623779V137.174Z" stroke="black" stroke-linecap="round" stroke-linejoin="round"></path>
    <path d="M46.5027 119.977H46.4969V119.983H46.5027V119.977Z" stroke="black" stroke-linecap="round" stroke-linejoin="round"></path>
    <path d="M92.3763 83.6489V137.189L46.5153 154.389V119.989V100.839C46.5297 100.818 46.542 100.795 46.5519 100.772C46.5519 100.772 46.5519 100.756 46.5519 100.753L46.6528 100.563C46.6812 100.527 46.7048 100.488 46.7232 100.446C46.766 100.385 46.7996 100.323 46.8455 100.247C46.8913 100.17 46.9586 100.078 47.0197 99.9794C47.0809 99.8811 47.0992 99.8565 47.1512 99.7951C47.2032 99.7337 47.2399 99.663 47.2857 99.5924C47.3316 99.5217 47.4417 99.3774 47.5273 99.2607C47.5548 99.2207 47.5854 99.1839 47.6159 99.144C47.7933 98.9105 47.992 98.6556 48.2274 98.3915C48.3436 98.2563 48.4628 98.1181 48.5943 97.9799C48.7258 97.8417 48.8542 97.6973 48.9887 97.5499C49.0651 97.4762 49.1354 97.4086 49.2088 97.3318C52.468 94.0639 58.9466 89.936 70.1704 91.4102C73.1914 91.8457 76.2571 91.8694 79.2845 91.4809C79.6147 91.4317 79.9357 91.3764 80.2537 91.3212C80.5716 91.2659 80.9171 91.1891 81.2412 91.1215C81.5653 91.0539 81.871 90.971 82.1798 90.885C82.3786 90.8328 82.5712 90.7775 82.7638 90.7222L83.0695 90.627C84.412 90.2092 85.7049 89.6448 86.9249 88.9439C87.0992 88.8456 87.2643 88.7504 87.4294 88.6368L87.7351 88.4525L88.2855 88.0809C88.7288 87.7737 89.1354 87.4389 89.5084 87.1257L89.6705 86.9844C89.8254 86.8451 89.9752 86.7069 90.1199 86.5697C90.1872 86.5083 90.2483 86.4469 90.3033 86.3885L90.4837 86.2104C91.0069 85.6679 91.4864 85.0846 91.9176 84.4659C91.9437 84.4166 91.9733 84.3694 92.0063 84.3246C92.2448 83.9499 92.3671 83.7103 92.3977 83.655L92.3763 83.6489Z" stroke="black" stroke-linecap="round" stroke-linejoin="round"></path>
    <path d="M46.5153 100.889V119.974V154.373L0.654297 137.174V83.7933C1.23826 83.5598 13.0184 79.0357 24.6916 92.175C36.0498 105.001 45.9588 101.11 46.5153 100.889Z" stroke="black" stroke-linecap="round" stroke-linejoin="round"></path>
    <path d="M46.5027 119.977H46.4969V119.983H46.5027V119.977Z" stroke="black" stroke-linecap="round" stroke-linejoin="round"></path>
    <path d="M48.6554 53.703C48.8511 51.9062 47.0472 51.0585 47.0472 51.0585L50.3187 49.5689L51.19 53.703H48.6554Z" fill="#69ADF8" stroke="black" stroke-linecap="round" stroke-linejoin="round"></path>
    <path d="M50.9516 62.567C50.3688 62.5933 49.7883 62.477 49.26 62.2283C48.7317 61.9795 48.2714 61.6056 47.9187 61.1388C47.9187 61.1388 51.0464 59.6031 53.6177 55.0329C54.1176 55.8072 54.4103 56.6979 54.4677 57.619C54.6511 60.202 53.0765 62.4165 50.9516 62.567Z" fill="#F25453" stroke="black" stroke-linecap="round" stroke-linejoin="round"></path>
    <path d="M53.6176 55.0329C51.0464 59.597 47.9186 61.1388 47.9186 61.1388C47.2422 60.2886 46.8439 59.2491 46.7782 58.1626C46.5978 55.5796 48.1724 53.3621 50.2973 53.2147C51.6181 53.1195 52.838 53.8566 53.6176 55.0329Z" fill="#69ADF8" stroke="black" stroke-linecap="round" stroke-linejoin="round"></path>
    <path d="M52.8044 51.12C51.5815 52.37 47.2858 51.9554 44.8552 49.8669C40.6726 46.2519 43.5588 42.5293 43.5588 42.5293C42.8128 40.9414 42.1555 39.0249 40.694 34.4086C39.8196 31.6444 39.6515 28.7634 38.9972 27.194C40.1306 28.8485 41.633 30.2144 43.3846 31.1827C45.1362 32.151 47.0887 32.6951 49.0866 32.7716C48.922 33.2035 48.8519 33.666 48.8809 34.1275C48.9099 34.5891 49.0374 35.039 49.2548 35.4468C50.6031 37.9192 52.6699 41.0367 53.6054 43.6258C53.6177 43.6258 54.862 49.0069 52.8044 51.12Z" fill="#49D9B0" stroke="black" stroke-linecap="round" stroke-linejoin="round"></path>
    <path d="M46.4388 46.3593C46.4388 46.3593 48.0562 42.9962 51.1931 45.3949C51.1931 45.3949 53.1193 53.7398 53.3547 57.6282C53.3547 57.6282 53.743 58.6018 54.4798 62.9447C54.817 64.8095 54.9584 66.7047 54.9017 68.5991C54.9017 68.5991 54.8681 74.4102 54.596 75.6203C54.3239 76.8304 53.2477 73.4888 52.9022 71.9592C52.5567 70.4297 52.4528 69.2349 52.8533 68.5623C52.8533 68.5623 49.9212 60.5122 50.2147 58.5312C50.6428 55.6994 47.7382 51.2489 46.4388 46.3593Z" fill="#69ADF8" stroke="black" stroke-linecap="round" stroke-linejoin="round"></path>
    <path d="M49.0989 32.7715C47.101 32.6951 45.1485 32.151 43.3968 31.1827C41.6452 30.2143 40.1429 28.8485 39.0094 27.1939C36.163 20.3663 36.2578 17.3072 36.2578 17.3072C35.4867 15.9271 34.7996 14.5014 34.2001 13.0379C33.7843 11.9538 31.6136 7.07642 31.6136 7.07642C31.6136 7.07642 26.6698 -0.663443 30.0849 0.820031C30.0849 0.820031 30.8829 1.69845 31.7695 2.59222C32.6562 3.48599 33.7874 4.60396 33.0383 5.80179C33.0383 5.80179 39.8747 12.4237 39.3794 15.5381C39.3794 15.5381 43.9655 22.4916 44.7084 23.7356C44.7145 23.7294 51.7129 27.0342 49.0989 32.7715Z" fill="#69ADF8" stroke="black" stroke-linecap="round" stroke-linejoin="round"></path>
    <path d="M64.4103 65.7397C64.4103 65.7397 68.2871 59.5663 72.1302 61.5197C72.4545 61.655 72.732 61.8832 72.9283 62.1757C73.1246 62.4682 73.231 62.8122 73.2342 63.165C73.2375 63.5177 73.1375 63.8637 72.9466 64.1598C72.7558 64.4559 72.4825 64.6892 72.1608 64.8306C70.8645 65.3097 68.4216 62.9663 64.4103 65.7397Z" fill="#69ADF8" stroke="black" stroke-linecap="round" stroke-linejoin="round"></path>
    <path d="M42.3113 64.1917C42.3113 64.1917 38.4131 56.5133 33.6772 58.3838C31.4942 59.2499 32.017 61.6701 33.2828 62.2752C34.7565 62.9847 37.8873 60.4876 42.3113 64.1917Z" fill="#69ADF8" stroke="black" stroke-linecap="round" stroke-linejoin="round"></path>
    <path d="M58.1334 70.2577C58.1334 70.2577 60.5488 58.8721 70.6871 57.8985" stroke="black" stroke-linecap="round" stroke-linejoin="round"></path>
    <path d="M35.8328 66.2803C35.8328 66.2803 45.6348 65.7827 49.6797 75.8691" stroke="black" stroke-linecap="round" stroke-linejoin="round"></path>
  </g>
  <defs>
    <clipPath id="clip0_615_4507">
      <rect width="93" height="89.322" fill="white" transform="translate(0 65.678)"></rect>
    </clipPath>
    <clipPath id="clip1_615_4507">
      <rect width="93" height="155" fill="white"></rect>
    </clipPath>
  </defs>
</svg>
