<?xml version="1.0" encoding="UTF-8"?>
<svg xmlns="http://www.w3.org/2000/svg" width="93" height="155" viewBox="0 0 93 155" fill="none">
  <g clip-path="url(#clip0_615_4472)">
    <path d="M92.3764 83.9888V84.1534C92.3488 84.2083 92.2235 84.4584 91.985 84.8151C91.9528 84.8622 91.9232 84.9111 91.8963 84.9615C91.4632 85.5733 90.9838 86.1513 90.4624 86.6904C90.4074 86.7453 90.3432 86.8002 90.282 86.8703C90.2209 86.9405 90.1658 86.9862 90.0986 87.0472C89.9121 87.2241 89.7072 87.41 89.4871 87.6022C89.1233 87.9071 88.7197 88.2303 88.2641 88.5474L87.7138 88.9164L87.4081 89.0993C87.243 89.203 87.0779 89.2975 86.9067 89.4043C85.6866 90.0992 84.3937 90.6585 83.0513 91.0722C82.9473 91.1088 82.8434 91.1423 82.7455 91.1698L82.1616 91.3345C81.8558 91.4168 81.5501 91.49 81.2199 91.5662C80.8897 91.6424 80.5687 91.7034 80.2324 91.7644C79.896 91.8254 79.5934 91.8742 79.2662 91.923C76.2389 92.3087 73.1731 92.2851 70.1521 91.8528C58.9284 90.3892 52.4498 94.4874 49.1906 97.7318L48.9704 97.9513C48.8359 98.0947 48.6983 98.238 48.573 98.3752C48.4476 98.5124 48.3192 98.6496 48.2092 98.7869C47.9829 99.046 47.7842 99.2991 47.5977 99.5309C47.4723 99.6894 47.3653 99.8358 47.2675 99.9761L47.1299 100.174C47.0834 100.234 47.0405 100.296 47.0015 100.36C46.9373 100.455 46.8761 100.543 46.8272 100.626C46.7783 100.708 46.7385 100.763 46.7049 100.824C46.6713 100.885 46.656 100.906 46.6376 100.943C46.5978 101.001 46.563 101.062 46.5337 101.126C46.5337 101.126 46.5337 101.141 46.5337 101.147C46.5175 101.167 46.5051 101.19 46.497 101.214V101.275C45.9559 101.495 36.0468 105.361 24.658 92.6243C12.9849 79.5826 1.20469 84.0711 0.620728 84.3029V84.0986C0.926468 83.5039 4.24986 77.5152 14.22 76.3107C17.0759 75.9948 19.9602 76.0378 22.8052 76.4388C40.0948 78.7044 46.1118 67.7637 46.4573 67.0989C46.4573 67.0654 46.4756 67.0166 46.4909 67.0166C47.2369 66.7117 57.042 63.0739 68.3085 75.6734C69.3571 76.8396 70.4805 77.9366 71.6716 78.9575C82.449 88.1297 92.3764 83.9888 92.3764 83.9888Z" fill="#69ADF8" stroke="black" stroke-linecap="round" stroke-linejoin="round"></path>
    <path d="M0.623657 137.305L46.5 154.378L0.623657 137.302V137.305Z" fill="#F25453" stroke="black" stroke-linecap="round" stroke-linejoin="round"></path>
    <path d="M46.5153 101.281V120.232L0.654297 137.308V84.312C1.23826 84.0803 13.0184 79.5917 24.6916 92.6334C36.0498 105.367 45.9589 101.501 46.5153 101.281Z" fill="#545DEC" stroke="black" stroke-linecap="round" stroke-linejoin="round"></path>
    <path d="M92.3763 84.1656V137.317L46.5153 120.241V101.229C46.5297 101.208 46.542 101.186 46.5519 101.162C46.5519 101.162 46.5519 101.147 46.5519 101.141L46.6559 100.958C46.6742 100.921 46.7018 100.882 46.7232 100.839C46.7446 100.796 46.7996 100.717 46.8455 100.641C46.8913 100.565 46.9555 100.47 47.0197 100.376C47.0839 100.281 47.1023 100.251 47.1481 100.19L47.2857 99.9913C47.3897 99.8541 47.4906 99.7047 47.6159 99.5461C47.7933 99.3144 47.992 99.0613 48.2274 98.8021C48.3466 98.6649 48.4628 98.5277 48.5912 98.3905C48.7196 98.2532 48.8542 98.1099 48.9887 97.9666L49.2088 97.7471C52.468 94.5027 58.9466 90.4044 70.1704 91.8681C73.1914 92.3004 76.2571 92.324 79.2845 91.9382C79.6116 91.8894 79.9357 91.8345 80.2506 91.7797C80.5655 91.7248 80.9171 91.6485 81.2382 91.5815C81.5592 91.5144 81.871 91.432 82.1798 91.3497L82.7638 91.185C82.8647 91.1576 82.9686 91.1241 83.0695 91.0875C84.412 90.6738 85.7048 90.1145 86.9249 89.4195C87.0961 89.322 87.2612 89.2274 87.4263 89.1146L87.7321 88.9316L88.2824 88.5627C88.7288 88.2578 89.1324 87.9254 89.5054 87.6174C89.7255 87.4314 89.9242 87.2485 90.1168 87.0624C90.1841 87.0015 90.2452 86.9405 90.3003 86.8856L90.4807 86.7057C91.0021 86.1666 91.4814 85.5886 91.9146 84.9768C91.9414 84.9264 91.971 84.8775 92.0033 84.8304C92.2417 84.4614 92.3671 84.2205 92.3946 84.1687L92.3763 84.1656Z" fill="#545DEC" stroke="black" stroke-linecap="round" stroke-linejoin="round"></path>
    <path d="M0.623657 137.302L46.5 154.378V120.229L0.623657 137.302Z" fill="#0019C7" stroke="black" stroke-linecap="round" stroke-linejoin="round"></path>
    <path d="M46.5 154.378L92.3763 137.302L46.5 120.229V154.378Z" fill="#0019C7" stroke="black" stroke-linecap="round" stroke-linejoin="round"></path>
  </g>
  <mask id="path-7-outside-1_615_4472" maskUnits="userSpaceOnUse" x="13.8574" y="75.9244" width="68" height="61" fill="black">
    <rect fill="white" x="13.8574" y="75.9244" width="68" height="61"></rect>
    <path d="M15.7186 124.295L21.7434 116.241C23.7727 118.27 26.077 119.285 28.656 119.285C30.178 119.285 31.4253 118.883 32.3977 118.08C33.3701 117.277 33.8563 116.325 33.8563 115.226C33.8563 114.296 33.4546 113.387 32.6513 112.499C31.8903 111.569 30.939 110.681 29.7975 109.835C28.656 108.948 27.5144 107.996 26.3729 106.982C25.2314 105.967 24.259 104.677 23.4557 103.113C22.6946 101.549 22.3141 99.7942 22.3141 97.8494C22.3141 94.5093 23.4134 91.5498 25.6119 88.9708C27.8104 86.3495 30.6642 84.6372 34.1734 83.8339L35.5052 77.2383H41.7202L40.5152 83.5168C43.9821 83.8973 46.9628 85.0177 49.4573 86.8779L44.1935 95.3126C42.3755 93.9174 40.2827 93.2198 37.9151 93.2198C36.3508 93.2198 35.1035 93.6214 34.1734 94.4248C33.2433 95.2281 32.7782 96.2005 32.7782 97.342C32.7782 99.0332 34.1311 100.851 36.837 102.796C37.9362 103.515 38.8241 104.149 39.5005 104.699C40.177 105.248 40.938 106.009 41.7836 106.982C42.6292 107.912 43.2634 108.969 43.6862 110.153C44.1512 111.336 44.3838 112.647 44.3838 114.084C44.3838 117.509 43.2211 120.638 40.8958 123.47C38.5281 126.345 35.4418 128.121 31.6366 128.798L30.4317 135.203H24.2167L25.4216 128.861C21.4051 128.311 18.1708 126.789 15.7186 124.295ZM61.8685 129.685C58.0634 129.685 54.9981 128.29 52.6728 125.5C50.3897 122.709 49.2482 118.714 49.2482 113.514C49.2482 108.778 50.1149 104.107 51.8483 99.4982C53.6241 94.8475 56.3088 90.9156 59.9025 87.7024C63.5385 84.4469 67.6396 82.8192 72.2057 82.8192C75.1652 82.8192 77.8711 83.4322 80.3233 84.6583L76.0742 93.4735C74.9327 92.9238 73.4529 92.649 71.6349 92.649C69.4787 92.649 67.7452 93.3255 66.4346 94.6784C65.1239 95.9891 63.9824 97.9973 63.01 100.703H63.0734C64.0881 99.6885 65.6102 99.1811 67.6396 99.1811C70.7682 99.1811 73.157 100.302 74.8058 102.542C76.497 104.741 77.3426 107.658 77.3426 111.294C77.3426 116.114 75.8417 120.405 72.8399 124.168C69.8803 127.846 66.2232 129.685 61.8685 129.685ZM62.3124 119.856C63.7076 119.856 64.7857 118.989 65.5467 117.255C66.3078 115.564 66.6883 113.767 66.6883 111.865C66.6883 108.948 65.6524 107.489 63.5808 107.489C61.6782 107.489 60.5367 108.398 60.1562 110.216C59.987 110.808 59.8813 111.421 59.8391 112.055V114.402C59.8391 118.038 60.6635 119.856 62.3124 119.856Z"></path>
  </mask>
  <path d="M15.7186 124.295L21.7434 116.241C23.7727 118.27 26.077 119.285 28.656 119.285C30.178 119.285 31.4253 118.883 32.3977 118.08C33.3701 117.277 33.8563 116.325 33.8563 115.226C33.8563 114.296 33.4546 113.387 32.6513 112.499C31.8903 111.569 30.939 110.681 29.7975 109.835C28.656 108.948 27.5144 107.996 26.3729 106.982C25.2314 105.967 24.259 104.677 23.4557 103.113C22.6946 101.549 22.3141 99.7942 22.3141 97.8494C22.3141 94.5093 23.4134 91.5498 25.6119 88.9708C27.8104 86.3495 30.6642 84.6372 34.1734 83.8339L35.5052 77.2383H41.7202L40.5152 83.5168C43.9821 83.8973 46.9628 85.0177 49.4573 86.8779L44.1935 95.3126C42.3755 93.9174 40.2827 93.2198 37.9151 93.2198C36.3508 93.2198 35.1035 93.6214 34.1734 94.4248C33.2433 95.2281 32.7782 96.2005 32.7782 97.342C32.7782 99.0332 34.1311 100.851 36.837 102.796C37.9362 103.515 38.8241 104.149 39.5005 104.699C40.177 105.248 40.938 106.009 41.7836 106.982C42.6292 107.912 43.2634 108.969 43.6862 110.153C44.1512 111.336 44.3838 112.647 44.3838 114.084C44.3838 117.509 43.2211 120.638 40.8958 123.47C38.5281 126.345 35.4418 128.121 31.6366 128.798L30.4317 135.203H24.2167L25.4216 128.861C21.4051 128.311 18.1708 126.789 15.7186 124.295ZM61.8685 129.685C58.0634 129.685 54.9981 128.29 52.6728 125.5C50.3897 122.709 49.2482 118.714 49.2482 113.514C49.2482 108.778 50.1149 104.107 51.8483 99.4982C53.6241 94.8475 56.3088 90.9156 59.9025 87.7024C63.5385 84.4469 67.6396 82.8192 72.2057 82.8192C75.1652 82.8192 77.8711 83.4322 80.3233 84.6583L76.0742 93.4735C74.9327 92.9238 73.4529 92.649 71.6349 92.649C69.4787 92.649 67.7452 93.3255 66.4346 94.6784C65.1239 95.9891 63.9824 97.9973 63.01 100.703H63.0734C64.0881 99.6885 65.6102 99.1811 67.6396 99.1811C70.7682 99.1811 73.157 100.302 74.8058 102.542C76.497 104.741 77.3426 107.658 77.3426 111.294C77.3426 116.114 75.8417 120.405 72.8399 124.168C69.8803 127.846 66.2232 129.685 61.8685 129.685ZM62.3124 119.856C63.7076 119.856 64.7857 118.989 65.5467 117.255C66.3078 115.564 66.6883 113.767 66.6883 111.865C66.6883 108.948 65.6524 107.489 63.5808 107.489C61.6782 107.489 60.5367 108.398 60.1562 110.216C59.987 110.808 59.8813 111.421 59.8391 112.055V114.402C59.8391 118.038 60.6635 119.856 62.3124 119.856Z" fill="#F25453"></path>
  <path d="M15.7186 124.295L14.9178 123.696L14.4035 124.384L15.0055 124.996L15.7186 124.295ZM21.7434 116.241L22.4505 115.534L21.6341 114.717L20.9426 115.642L21.7434 116.241ZM32.3977 118.08L33.0346 118.851L32.3977 118.08ZM32.6513 112.499L31.8774 113.132L31.8931 113.152L31.9098 113.17L32.6513 112.499ZM29.7975 109.835L29.1836 110.625L29.1928 110.632L29.2023 110.639L29.7975 109.835ZM26.3729 106.982L27.0373 106.234V106.234L26.3729 106.982ZM23.4557 103.113L22.5564 103.551L22.5612 103.56L22.5661 103.57L23.4557 103.113ZM25.6119 88.9708L26.3729 89.6195L26.3781 89.6134L25.6119 88.9708ZM34.1734 83.8339L34.3965 84.8086L35.0258 84.6646L35.1536 84.0318L34.1734 83.8339ZM35.5052 77.2383V76.2383H34.6869L34.525 77.0404L35.5052 77.2383ZM41.7202 77.2383L42.7023 77.4268L42.9304 76.2383H41.7202V77.2383ZM40.5152 83.5168L39.5332 83.3283L39.3289 84.3926L40.4061 84.5108L40.5152 83.5168ZM49.4573 86.8779L50.3056 87.4074L50.7929 86.6265L50.0551 86.0763L49.4573 86.8779ZM44.1935 95.3126L43.5847 96.1059L44.4586 96.7766L45.0419 95.842L44.1935 95.3126ZM34.1734 94.4247L34.827 95.1816H34.827L34.1734 94.4247ZM36.837 102.796L36.2533 103.608L36.2712 103.621L36.2897 103.633L36.837 102.796ZM39.5005 104.699L40.1311 103.922L39.5005 104.699ZM41.7836 106.982L41.029 107.638L41.0363 107.646L41.0437 107.654L41.7836 106.982ZM43.6862 110.153L42.7444 110.489L42.7497 110.504L42.7554 110.518L43.6862 110.153ZM40.8958 123.47L41.6677 124.106L41.6687 124.105L40.8958 123.47ZM31.6366 128.798L31.4616 127.813L30.7816 127.934L30.6539 128.613L31.6366 128.798ZM30.4317 135.203V136.203H31.2611L31.4145 135.388L30.4317 135.203ZM24.2167 135.203L23.2343 135.016L23.0088 136.203H24.2167V135.203ZM25.4216 128.861L26.4041 129.048L26.6006 128.013L25.5572 127.87L25.4216 128.861ZM16.5193 124.894L22.5441 116.84L20.9426 115.642L14.9178 123.696L16.5193 124.894ZM21.0362 116.948C23.23 119.142 25.7807 120.285 28.656 120.285V118.285C26.3732 118.285 24.3155 117.399 22.4505 115.534L21.0362 116.948ZM28.656 120.285C30.3605 120.285 31.8479 119.831 33.0346 118.851L31.7608 117.309C31.0026 117.935 29.9955 118.285 28.656 118.285V120.285ZM33.0346 118.851C34.199 117.889 34.8563 116.67 34.8563 115.226H32.8563C32.8563 115.981 32.5412 116.664 31.7608 117.309L33.0346 118.851ZM34.8563 115.226C34.8563 113.983 34.3133 112.845 33.3929 111.828L31.9098 113.17C32.596 113.928 32.8563 114.609 32.8563 115.226H34.8563ZM33.4253 111.866C32.6035 110.861 31.589 109.918 30.3927 109.032L29.2023 110.639C30.2891 111.444 31.1771 112.276 31.8774 113.132L33.4253 111.866ZM30.4115 109.046C29.2881 108.172 28.1634 107.235 27.0373 106.234L25.7085 107.729C26.8655 108.757 28.0238 109.723 29.1836 110.625L30.4115 109.046ZM27.0373 106.234C26.001 105.313 25.1005 104.127 24.3452 102.656L22.5661 103.57C23.4174 105.228 24.4618 106.621 25.7085 107.729L27.0373 106.234ZM24.3549 102.676C23.6676 101.263 23.3141 99.6607 23.3141 97.8494H21.3141C21.3141 99.9277 21.7216 101.835 22.5564 103.551L24.3549 102.676ZM23.3141 97.8494C23.3141 94.7509 24.3262 92.0205 26.3729 89.6195L24.8509 88.322C22.5006 91.0791 21.3141 94.2677 21.3141 97.8494H23.3141ZM26.3781 89.6134C28.429 87.1681 31.0879 85.566 34.3965 84.8086L33.9502 82.8591C30.2406 83.7083 27.1918 85.5308 24.8457 88.3281L26.3781 89.6134ZM35.1536 84.0318L36.4854 77.4363L34.525 77.0404L33.1932 83.6359L35.1536 84.0318ZM35.5052 78.2383H41.7202V76.2383H35.5052V78.2383ZM40.7381 77.0498L39.5332 83.3283L41.4973 83.7052L42.7023 77.4268L40.7381 77.0498ZM40.4061 84.5108C43.7178 84.8743 46.5245 85.9383 48.8594 87.6796L50.0551 86.0763C47.4011 84.0971 44.2465 82.9203 40.6243 82.5227L40.4061 84.5108ZM48.6089 86.3485L43.3452 94.7832L45.0419 95.842L50.3056 87.4074L48.6089 86.3485ZM44.8023 94.5193C42.8036 92.9853 40.495 92.2198 37.9151 92.2198V94.2198C40.0704 94.2198 41.9475 94.8495 43.5847 96.1059L44.8023 94.5193ZM37.9151 92.2198C36.178 92.2198 34.6767 92.6688 33.5198 93.6679L34.827 95.1816C35.5304 94.5741 36.5235 94.2198 37.9151 94.2198V92.2198ZM33.5198 93.6679C32.3888 94.6447 31.7782 95.8855 31.7782 97.342H33.7782C33.7782 96.5154 34.0977 95.8114 34.827 95.1816L33.5198 93.6679ZM31.7782 97.342C31.7782 99.5625 33.5197 101.643 36.2533 103.608L37.4206 101.984C34.7425 100.059 33.7782 98.5039 33.7782 97.342H31.7782ZM36.2897 103.633C37.373 104.341 38.2299 104.955 38.87 105.475L40.1311 103.922C39.4182 103.343 38.4994 102.688 37.3842 101.959L36.2897 103.633ZM38.87 105.475C39.486 105.975 40.2051 106.69 41.029 107.638L42.5382 106.325C41.6709 105.328 40.868 104.521 40.1311 103.922L38.87 105.475ZM41.0437 107.654C41.8004 108.487 42.366 109.429 42.7444 110.489L44.6279 109.816C44.1607 108.508 43.4579 107.337 42.5236 106.309L41.0437 107.654ZM42.7554 110.518C43.1692 111.571 43.3838 112.756 43.3838 114.084H45.3838C45.3838 112.538 45.1333 111.101 44.6169 109.787L42.7554 110.518ZM43.3838 114.084C43.3838 117.261 42.3124 120.169 40.1228 122.836L41.6687 124.105C44.1298 121.107 45.3838 117.757 45.3838 114.084H43.3838ZM40.1238 122.835C37.9135 125.519 35.0422 127.176 31.4616 127.813L31.8117 129.782C35.8413 129.066 39.1428 127.172 41.6677 124.106L40.1238 122.835ZM30.6539 128.613L29.4489 135.018L31.4145 135.388L32.6194 128.982L30.6539 128.613ZM30.4317 134.203H24.2167V136.203H30.4317V134.203ZM25.1991 135.39L26.4041 129.048L24.4392 128.674L23.2343 135.016L25.1991 135.39ZM25.5572 127.87C21.7236 127.346 18.7048 125.906 16.4317 123.594L15.0055 124.996C17.6367 127.673 21.0866 129.277 25.2861 129.852L25.5572 127.87ZM52.6728 125.5L51.8988 126.133L51.9046 126.14L52.6728 125.5ZM51.8483 99.4982L50.9141 99.1415L50.9124 99.1462L51.8483 99.4982ZM59.9025 87.7024L60.569 88.4479L60.5695 88.4474L59.9025 87.7024ZM80.3233 84.6583L81.2241 85.0925L81.652 84.2046L80.7705 83.7639L80.3233 84.6583ZM76.0742 93.4735L75.6404 94.3745L76.541 94.8081L76.975 93.9077L76.0742 93.4735ZM66.4346 94.6784L67.1417 95.3855L67.1473 95.3799L67.1528 95.3742L66.4346 94.6784ZM63.01 100.703L62.0689 100.365L61.588 101.703H63.01V100.703ZM63.0734 100.703V101.703H63.4876L63.7805 101.41L63.0734 100.703ZM74.8058 102.542L74.0004 103.135L74.0067 103.144L74.0132 103.152L74.8058 102.542ZM72.8399 124.168L73.619 124.795L73.6216 124.792L72.8399 124.168ZM65.5467 117.255L64.6348 116.845L64.6311 116.853L65.5467 117.255ZM60.1562 110.216L61.1177 110.491L61.1276 110.456L61.135 110.421L60.1562 110.216ZM59.8391 112.055L58.8413 111.989L58.8391 112.022V112.055H59.8391ZM61.8685 128.685C58.3439 128.685 55.5662 127.41 53.441 124.86L51.9046 126.14C54.43 129.171 57.7828 130.685 61.8685 130.685V128.685ZM53.4467 124.867C51.3625 122.319 50.2482 118.583 50.2482 113.514H48.2482C48.2482 118.845 49.417 123.1 51.8988 126.133L53.4467 124.867ZM50.2482 113.514C50.2482 108.903 51.0915 104.351 52.7843 99.8503L50.9124 99.1462C49.1383 103.863 48.2482 108.653 48.2482 113.514H50.2482ZM52.7826 99.8549C54.5033 95.3483 57.0982 91.5511 60.569 88.4479L59.236 86.9569C55.5193 90.28 52.7448 94.3468 50.9141 99.1415L52.7826 99.8549ZM60.5695 88.4474C64.0359 85.3438 67.9036 83.8192 72.2057 83.8192V81.8192C67.3755 81.8192 63.0411 83.55 59.2354 86.9574L60.5695 88.4474ZM72.2057 83.8192C75.0226 83.8192 77.5736 84.4015 79.876 85.5527L80.7705 83.7639C78.1686 82.4629 75.3079 81.8192 72.2057 81.8192V83.8192ZM79.4224 84.2241L75.1734 93.0393L76.975 93.9077L81.2241 85.0925L79.4224 84.2241ZM76.508 92.5725C75.1855 91.9357 73.5424 91.649 71.6349 91.649V93.649C73.3634 93.649 74.6799 93.912 75.6404 94.3745L76.508 92.5725ZM71.6349 91.649C69.2507 91.649 67.2432 92.4066 65.7164 93.9826L67.1528 95.3742C68.2473 94.2444 69.7067 93.649 71.6349 93.649V91.649ZM65.7275 93.9713C64.271 95.4278 63.0665 97.5892 62.0689 100.365L63.9511 101.041C64.8984 98.4054 65.9769 96.5503 67.1417 95.3855L65.7275 93.9713ZM63.01 101.703H63.0734V99.7032H63.01V101.703ZM63.7805 101.41C64.5415 100.649 65.7643 100.181 67.6395 100.181V98.1811C65.456 98.1811 63.6347 98.7277 62.3663 99.9961L63.7805 101.41ZM67.6395 100.181C70.4958 100.181 72.5655 101.185 74.0004 103.135L75.6113 101.95C73.7485 99.4181 71.0406 98.1811 67.6395 98.1811V100.181ZM74.0132 103.152C75.5333 105.128 76.3426 107.81 76.3426 111.294H78.3426C78.3426 107.506 77.4607 104.354 75.5985 101.933L74.0132 103.152ZM76.3426 111.294C76.3426 115.888 74.9184 119.959 72.0581 123.544L73.6216 124.792C76.7649 120.851 78.3426 116.34 78.3426 111.294H76.3426ZM72.0608 123.541C69.2728 127.006 65.8924 128.685 61.8685 128.685V130.685C66.554 130.685 70.4879 128.686 73.619 124.795L72.0608 123.541ZM62.3124 120.856C64.2493 120.856 65.6096 119.6 66.4624 117.657L64.6311 116.853C63.9618 118.378 63.1659 118.856 62.3124 118.856V120.856ZM66.4587 117.666C67.2793 115.842 67.6883 113.905 67.6883 111.865H65.6883C65.6883 113.63 65.3363 115.286 64.6348 116.845L66.4587 117.666ZM67.6883 111.865C67.6883 110.318 67.4192 108.979 66.7267 108.004C65.9896 106.966 64.8818 106.489 63.5808 106.489V108.489C64.3514 108.489 64.7973 108.741 65.0961 109.162C65.4395 109.646 65.6883 110.494 65.6883 111.865H67.6883ZM63.5808 106.489C62.4725 106.489 61.4701 106.755 60.6748 107.388C59.8767 108.024 59.4021 108.938 59.1774 110.011L61.135 110.421C61.2908 109.676 61.5772 109.226 61.9206 108.953C62.2668 108.677 62.7865 108.489 63.5808 108.489V106.489ZM59.1946 109.941C59.0055 110.603 58.8881 111.286 58.8413 111.989L60.8369 112.122C60.8746 111.556 60.9686 111.012 61.1177 110.491L59.1946 109.941ZM58.8391 112.055V114.402H60.8391V112.055H58.8391ZM58.8391 114.402C58.8391 116.264 59.0454 117.8 59.5467 118.905C59.8029 119.47 60.1554 119.966 60.6381 120.32C61.132 120.683 61.7039 120.856 62.3124 120.856V118.856C62.0965 118.856 61.947 118.8 61.8226 118.709C61.6869 118.609 61.5242 118.423 61.3681 118.079C61.045 117.367 60.8391 116.175 60.8391 114.402H58.8391Z" fill="black" mask="url(#path-7-outside-1_615_4472)"></path>
  <g clip-path="url(#clip1_615_4472)">
    <path d="M92.3762 83.4707V83.6366C92.3457 83.6919 92.2234 83.9437 91.9849 84.3062C91.9519 84.351 91.9223 84.3982 91.8962 84.4474C91.465 85.0662 90.9855 85.6495 90.4623 86.192L90.2819 86.3701C90.2269 86.4285 90.1657 86.4899 90.0985 86.5513C89.9558 86.6885 89.806 86.8267 89.649 86.966L89.487 87.1072C89.1232 87.4144 88.7165 87.7461 88.264 88.0624L87.7137 88.4341L87.408 88.6184C87.2429 88.7228 87.0778 88.818 86.9035 88.9255C85.6835 89.6264 84.3906 90.1908 83.0481 90.6086L82.7424 90.7038C82.5498 90.7591 82.3571 90.8144 82.1584 90.8666C81.8527 90.9526 81.5469 91.0263 81.2198 91.1031C80.8926 91.1799 80.5655 91.2413 80.2322 91.3027C79.899 91.3642 79.5932 91.4133 79.263 91.4625C76.2357 91.851 73.17 91.8272 70.1489 91.3918C58.9252 89.9175 52.4466 94.0455 49.1874 97.3134C49.114 97.3902 49.0437 97.4578 48.9673 97.5315C48.8327 97.6789 48.6952 97.8233 48.5729 97.9615C48.4506 98.0997 48.3191 98.2379 48.206 98.373C47.9797 98.6372 47.781 98.8921 47.5945 99.1255C47.5639 99.1655 47.5334 99.2023 47.5058 99.2422C47.4172 99.359 47.3346 99.4695 47.2643 99.574C47.194 99.6784 47.1665 99.7122 47.1298 99.7767C47.0801 99.8337 47.0361 99.8954 46.9983 99.9609C46.9372 100.059 46.876 100.145 46.824 100.228C46.7721 100.311 46.7354 100.366 46.7017 100.428C46.6834 100.47 46.6597 100.509 46.6314 100.545C46.5933 100.605 46.5596 100.669 46.5305 100.735C46.5305 100.735 46.5305 100.735 46.5305 100.753C46.5143 100.773 46.5019 100.796 46.4938 100.821V100.882C45.9527 101.103 36.0436 104.995 24.6548 92.1689C12.9817 79.0295 1.20152 83.5537 0.617554 83.7871V83.5782C0.923294 82.964 4.24668 76.9502 14.2199 75.737C17.0747 75.4188 19.958 75.4621 22.802 75.866C40.0916 78.148 46.1086 67.1279 46.451 66.4615C46.451 66.4277 46.4755 66.3785 46.4877 66.3785C47.2368 66.0714 57.0419 62.4072 68.3084 75.0951C69.3538 76.2737 70.4774 77.3799 71.6715 78.406C82.4489 87.6417 92.3762 83.4707 92.3762 83.4707Z" stroke="black" stroke-linecap="round" stroke-linejoin="round"></path>
    <path d="M0.629547 137.18H0.623779V137.174L0.629547 137.18Z" stroke="black" stroke-linecap="round" stroke-linejoin="round"></path>
    <path d="M0.623779 137.174L0.629547 137.18H0.623779V137.174Z" stroke="black" stroke-linecap="round" stroke-linejoin="round"></path>
    <path d="M46.5027 119.977H46.4969V119.983H46.5027V119.977Z" stroke="black" stroke-linecap="round" stroke-linejoin="round"></path>
    <path d="M92.3763 83.6489V137.189L46.5153 154.389V119.989V100.839C46.5297 100.818 46.542 100.795 46.5519 100.772C46.5519 100.772 46.5519 100.756 46.5519 100.753L46.6528 100.563C46.6812 100.527 46.7048 100.488 46.7232 100.446C46.766 100.385 46.7996 100.323 46.8455 100.247C46.8913 100.17 46.9586 100.078 47.0197 99.9794C47.0809 99.8811 47.0992 99.8565 47.1512 99.7951C47.2032 99.7337 47.2399 99.663 47.2857 99.5924C47.3316 99.5217 47.4417 99.3774 47.5273 99.2607C47.5548 99.2207 47.5854 99.1839 47.6159 99.144C47.7933 98.9105 47.992 98.6556 48.2274 98.3915C48.3436 98.2563 48.4628 98.1181 48.5943 97.9799C48.7258 97.8417 48.8542 97.6973 48.9887 97.5499C49.0651 97.4762 49.1354 97.4086 49.2088 97.3318C52.468 94.0639 58.9466 89.936 70.1704 91.4102C73.1914 91.8457 76.2571 91.8694 79.2845 91.4809C79.6147 91.4317 79.9357 91.3764 80.2537 91.3212C80.5716 91.2659 80.9171 91.1891 81.2412 91.1215C81.5653 91.0539 81.871 90.971 82.1798 90.885C82.3786 90.8328 82.5712 90.7775 82.7638 90.7222L83.0695 90.627C84.412 90.2092 85.7049 89.6448 86.9249 88.9439C87.0992 88.8456 87.2643 88.7504 87.4294 88.6368L87.7351 88.4525L88.2855 88.0809C88.7288 87.7737 89.1354 87.4389 89.5084 87.1257L89.6705 86.9844C89.8254 86.8451 89.9752 86.7069 90.1199 86.5697C90.1872 86.5083 90.2483 86.4469 90.3033 86.3885L90.4837 86.2104C91.0069 85.6679 91.4864 85.0846 91.9176 84.4659C91.9437 84.4166 91.9733 84.3694 92.0063 84.3246C92.2448 83.9499 92.3671 83.7103 92.3977 83.655L92.3763 83.6489Z" stroke="black" stroke-linecap="round" stroke-linejoin="round"></path>
    <path d="M46.5153 100.889V119.974V154.373L0.654297 137.174V83.7933C1.23826 83.5598 13.0184 79.0357 24.6916 92.175C36.0498 105.001 45.9588 101.11 46.5153 100.889Z" stroke="black" stroke-linecap="round" stroke-linejoin="round"></path>
    <path d="M46.5027 119.977H46.4969V119.983H46.5027V119.977Z" stroke="black" stroke-linecap="round" stroke-linejoin="round"></path>
    <path d="M48.6554 53.703C48.8511 51.9062 47.0472 51.0585 47.0472 51.0585L50.3187 49.5689L51.19 53.703H48.6554Z" fill="#69ADF8" stroke="black" stroke-linecap="round" stroke-linejoin="round"></path>
    <path d="M50.9516 62.567C50.3688 62.5933 49.7883 62.477 49.26 62.2283C48.7317 61.9795 48.2714 61.6056 47.9187 61.1388C47.9187 61.1388 51.0464 59.6031 53.6177 55.0329C54.1176 55.8072 54.4103 56.6979 54.4677 57.619C54.6511 60.202 53.0765 62.4165 50.9516 62.567Z" fill="#F25453" stroke="black" stroke-linecap="round" stroke-linejoin="round"></path>
    <path d="M53.6176 55.0329C51.0464 59.597 47.9186 61.1388 47.9186 61.1388C47.2422 60.2886 46.8439 59.2491 46.7782 58.1626C46.5978 55.5796 48.1724 53.3621 50.2973 53.2147C51.6181 53.1195 52.838 53.8566 53.6176 55.0329Z" fill="#69ADF8" stroke="black" stroke-linecap="round" stroke-linejoin="round"></path>
    <path d="M52.8044 51.12C51.5815 52.37 47.2858 51.9554 44.8552 49.8669C40.6726 46.2519 43.5588 42.5293 43.5588 42.5293C42.8128 40.9414 42.1555 39.0249 40.694 34.4086C39.8196 31.6444 39.6515 28.7634 38.9972 27.194C40.1306 28.8485 41.633 30.2144 43.3846 31.1827C45.1362 32.151 47.0887 32.6951 49.0866 32.7716C48.922 33.2035 48.8519 33.666 48.8809 34.1275C48.9099 34.5891 49.0374 35.039 49.2548 35.4468C50.6031 37.9192 52.6699 41.0367 53.6054 43.6258C53.6177 43.6258 54.862 49.0069 52.8044 51.12Z" fill="#F25453" stroke="black" stroke-linecap="round" stroke-linejoin="round"></path>
    <path d="M46.4388 46.3593C46.4388 46.3593 48.0562 42.9962 51.1931 45.3949C51.1931 45.3949 53.1193 53.7398 53.3547 57.6282C53.3547 57.6282 53.743 58.6018 54.4798 62.9447C54.817 64.8095 54.9584 66.7047 54.9017 68.5991C54.9017 68.5991 54.8681 74.4102 54.596 75.6203C54.3239 76.8304 53.2477 73.4888 52.9022 71.9592C52.5567 70.4297 52.4528 69.2349 52.8533 68.5623C52.8533 68.5623 49.9212 60.5122 50.2147 58.5312C50.6428 55.6994 47.7382 51.2489 46.4388 46.3593Z" fill="#69ADF8" stroke="black" stroke-linecap="round" stroke-linejoin="round"></path>
    <path d="M49.0989 32.7715C47.101 32.6951 45.1485 32.151 43.3968 31.1827C41.6452 30.2143 40.1429 28.8485 39.0094 27.1939C36.163 20.3663 36.2578 17.3072 36.2578 17.3072C35.4867 15.9271 34.7996 14.5014 34.2001 13.0379C33.7843 11.9538 31.6136 7.07642 31.6136 7.07642C31.6136 7.07642 26.6698 -0.663443 30.0849 0.820031C30.0849 0.820031 30.8829 1.69845 31.7695 2.59222C32.6562 3.48599 33.7874 4.60396 33.0383 5.80179C33.0383 5.80179 39.8747 12.4237 39.3794 15.5381C39.3794 15.5381 43.9655 22.4916 44.7084 23.7356C44.7145 23.7294 51.7129 27.0342 49.0989 32.7715Z" fill="#69ADF8" stroke="black" stroke-linecap="round" stroke-linejoin="round"></path>
    <path d="M64.4103 65.7397C64.4103 65.7397 68.2871 59.5663 72.1302 61.5197C72.4545 61.655 72.732 61.8832 72.9283 62.1757C73.1246 62.4682 73.231 62.8122 73.2342 63.165C73.2375 63.5177 73.1375 63.8637 72.9466 64.1598C72.7558 64.4559 72.4825 64.6892 72.1608 64.8306C70.8645 65.3097 68.4216 62.9663 64.4103 65.7397Z" fill="#69ADF8" stroke="black" stroke-linecap="round" stroke-linejoin="round"></path>
    <path d="M42.3113 64.1917C42.3113 64.1917 38.4131 56.5133 33.6772 58.3838C31.4942 59.2499 32.017 61.6701 33.2828 62.2752C34.7565 62.9847 37.8873 60.4876 42.3113 64.1917Z" fill="#69ADF8" stroke="black" stroke-linecap="round" stroke-linejoin="round"></path>
    <path d="M58.1334 70.2577C58.1334 70.2577 60.5488 58.8721 70.6871 57.8985" stroke="black" stroke-linecap="round" stroke-linejoin="round"></path>
    <path d="M35.8328 66.2803C35.8328 66.2803 45.6348 65.7827 49.6797 75.8691" stroke="black" stroke-linecap="round" stroke-linejoin="round"></path>
  </g>
  <defs>
    <clipPath id="clip0_615_4472">
      <rect width="93" height="89.322" fill="white" transform="translate(0 65.678)"></rect>
    </clipPath>
    <clipPath id="clip1_615_4472">
      <rect width="93" height="155" fill="white"></rect>
    </clipPath>
  </defs>
</svg>
