<?xml version="1.0" encoding="UTF-8"?>
<svg xmlns="http://www.w3.org/2000/svg" width="93" height="155" viewBox="0 0 93 155" fill="none">
  <g clip-path="url(#clip0_615_4356)">
    <path d="M92.3762 83.9888V84.1534C92.3487 84.2083 92.2234 84.4584 91.9849 84.8151C91.9526 84.8622 91.923 84.9111 91.8962 84.9615C91.4631 85.5733 90.9837 86.1513 90.4623 86.6904C90.4073 86.7453 90.3431 86.8002 90.2819 86.8703C90.2208 86.9405 90.1657 86.9862 90.0985 87.0472C89.912 87.2241 89.7071 87.41 89.487 87.6022C89.1232 87.9071 88.7196 88.2303 88.264 88.5474L87.7137 88.9164L87.408 89.0993C87.2429 89.203 87.0778 89.2975 86.9065 89.4043C85.6864 90.0992 84.3936 90.6585 83.0512 91.0722C82.9472 91.1088 82.8433 91.1423 82.7454 91.1698L82.1615 91.3345C81.8557 91.4168 81.55 91.49 81.2198 91.5662C80.8896 91.6424 80.5686 91.7034 80.2322 91.7644C79.8959 91.8254 79.5932 91.8742 79.2661 91.923C76.2387 92.3087 73.173 92.2851 70.152 91.8528C58.9283 90.3892 52.4496 94.4874 49.1905 97.7318L48.9703 97.9513C48.8358 98.0947 48.6982 98.238 48.5729 98.3752C48.4475 98.5124 48.3191 98.6496 48.209 98.7869C47.9828 99.046 47.7841 99.2991 47.5976 99.5309C47.4722 99.6894 47.3652 99.8358 47.2673 99.9761L47.1298 100.174C47.0833 100.234 47.0404 100.296 47.0014 100.36C46.9372 100.455 46.876 100.543 46.8271 100.626C46.7782 100.708 46.7384 100.763 46.7048 100.824C46.6712 100.885 46.6559 100.906 46.6375 100.943C46.5977 101.001 46.5629 101.062 46.5336 101.126C46.5336 101.126 46.5336 101.141 46.5336 101.147C46.5174 101.167 46.505 101.19 46.4969 101.214V101.275C45.9557 101.495 36.0467 105.361 24.6579 92.6243C12.9847 79.5826 1.20457 84.0711 0.620605 84.3029V84.0986C0.926345 83.5039 4.24973 77.5152 14.2199 76.3107C17.0757 75.9948 19.96 76.0378 22.8051 76.4388C40.0947 78.7044 46.1117 67.7637 46.4571 67.0989C46.4571 67.0654 46.4755 67.0166 46.4908 67.0166C47.2368 66.7117 57.0419 63.0739 68.3084 75.6734C69.3569 76.8396 70.4804 77.9366 71.6715 78.9575C82.4489 88.1297 92.3762 83.9888 92.3762 83.9888Z" fill="#69ADF8" stroke="black" stroke-linecap="round" stroke-linejoin="round"></path>
    <path d="M0.623779 137.305L46.5001 154.378L0.623779 137.302V137.305Z" fill="#F25453" stroke="black" stroke-linecap="round" stroke-linejoin="round"></path>
    <path d="M46.5153 101.281V120.232L0.654297 137.308V84.312C1.23826 84.0803 13.0184 79.5917 24.6916 92.6334C36.0498 105.367 45.9589 101.501 46.5153 101.281Z" fill="#545DEC" stroke="black" stroke-linecap="round" stroke-linejoin="round"></path>
    <path d="M92.3764 84.1656V137.317L46.5154 120.241V101.229C46.5298 101.208 46.5421 101.186 46.5521 101.162C46.5521 101.162 46.5521 101.147 46.5521 101.141L46.656 100.958C46.6744 100.921 46.7019 100.882 46.7233 100.839C46.7447 100.796 46.7997 100.717 46.8456 100.641C46.8914 100.565 46.9556 100.47 47.0199 100.376C47.0841 100.281 47.1024 100.251 47.1483 100.19L47.2858 99.9913C47.3898 99.8541 47.4907 99.7047 47.616 99.5461C47.7934 99.3144 47.9921 99.0613 48.2275 98.8021C48.3468 98.6649 48.4629 98.5277 48.5914 98.3905C48.7198 98.2532 48.8543 98.1099 48.9888 97.9666L49.2089 97.7471C52.4681 94.5027 58.9468 90.4044 70.1705 91.8681C73.1915 92.3004 76.2572 92.324 79.2846 91.9382C79.6117 91.8894 79.9358 91.8345 80.2507 91.7797C80.5656 91.7248 80.9172 91.6485 81.2383 91.5815C81.5593 91.5144 81.8712 91.432 82.18 91.3497L82.7639 91.185C82.8648 91.1576 82.9688 91.1241 83.0697 91.0875C84.4121 90.6738 85.7049 90.1145 86.925 89.4195C87.0963 89.322 87.2613 89.2274 87.4264 89.1146L87.7322 88.9316L88.2825 88.5627C88.7289 88.2578 89.1325 87.9254 89.5055 87.6174C89.7256 87.4314 89.9243 87.2485 90.117 87.0624C90.1842 87.0015 90.2454 86.9405 90.3004 86.8856L90.4808 86.7057C91.0022 86.1666 91.4815 85.5886 91.9147 84.9768C91.9415 84.9264 91.9711 84.8775 92.0034 84.8304C92.2419 84.4614 92.3672 84.2205 92.3947 84.1687L92.3764 84.1656Z" fill="#545DEC" stroke="black" stroke-linecap="round" stroke-linejoin="round"></path>
    <path d="M0.623779 137.302L46.5001 154.378V120.229L0.623779 137.302Z" fill="#0019C7" stroke="black" stroke-linecap="round" stroke-linejoin="round"></path>
    <path d="M46.5 154.378L92.3763 137.302L46.5 120.229V154.378Z" fill="#0019C7" stroke="black" stroke-linecap="round" stroke-linejoin="round"></path>
  </g>
  <mask id="path-7-outside-1_615_4356" maskUnits="userSpaceOnUse" x="-1" y="75.9244" width="94" height="61" fill="black">
    <rect fill="white" x="-1" y="75.9244" width="94" height="61"></rect>
    <path d="M0.948727 124.295L6.97349 116.241C9.00288 118.27 11.3071 119.285 13.8861 119.285C15.4082 119.285 16.6554 118.883 17.6278 118.08C18.6002 117.277 19.0864 116.325 19.0864 115.226C19.0864 114.296 18.6848 113.387 17.8815 112.499C17.1205 111.569 16.1692 110.681 15.0276 109.835C13.8861 108.948 12.7446 107.996 11.603 106.982C10.4615 105.967 9.48909 104.677 8.68579 103.113C7.92477 101.549 7.54426 99.7942 7.54426 97.8494C7.54426 94.5093 8.64351 91.5498 10.842 88.9708C13.0405 86.3495 15.8944 84.6372 19.4035 83.8339L20.7353 77.2383H26.9503L25.7454 83.5168C29.2123 83.8973 32.1929 85.0177 34.6874 86.8779L29.4237 95.3126C27.6057 93.9174 25.5128 93.2198 23.1452 93.2198C21.5809 93.2198 20.3337 93.6214 19.4035 94.4248C18.4734 95.2281 18.0083 96.2005 18.0083 97.342C18.0083 99.0332 19.3612 100.851 22.0671 102.796C23.1664 103.515 24.0542 104.149 24.7307 104.699C25.4071 105.248 26.1682 106.009 27.0137 106.982C27.8593 107.912 28.4935 108.969 28.9163 110.153C29.3814 111.336 29.6139 112.647 29.6139 114.084C29.6139 117.509 28.4512 120.638 26.1259 123.47C23.7583 126.345 20.6719 128.121 16.8668 128.798L15.6618 135.203H9.44681L10.6518 128.861C6.63526 128.311 3.40091 126.789 0.948727 124.295ZM56.6748 128.924H31.8147L33.527 120.046H40.8202L44.4984 101.084L45.3229 97.9128H45.196C45.1538 98.3778 44.7098 98.9486 43.8643 99.6251L41.3275 101.781L36.1272 95.3126L49.2548 83.5802H58.0066L50.9671 120.046H58.3871L56.6748 128.924ZM85.6016 128.924H60.4878C60.4878 125.796 60.9529 122.836 61.883 120.046C62.5595 118.186 63.8067 116.008 65.6247 113.514C66.3012 112.626 67.1045 111.738 68.0346 110.85C69.2607 109.709 70.0852 108.969 70.508 108.631C70.8462 108.292 71.7341 107.574 73.1715 106.474L75.6449 104.508C79.154 101.38 80.9086 98.6104 80.9086 96.2005C80.9086 94.0442 79.8516 92.9661 77.7377 92.9661C75.7928 92.9661 74.144 94.0231 72.791 96.1371L66.3223 89.7952C67.8867 87.7235 69.8526 86.0535 72.2203 84.7851C74.5879 83.4745 76.9978 82.8192 79.45 82.8192C82.79 82.8192 85.665 83.8973 88.0749 86.0535C90.5271 88.1252 91.7532 91.0424 91.7532 94.8053C91.7532 97.2152 91.1613 99.5194 89.9775 101.718C88.7936 103.959 87.4196 105.84 85.8553 107.362C84.0373 109.096 81.9233 110.914 79.5134 112.816C79.4711 112.858 79.1752 113.112 78.6255 113.577C78.1182 114 77.78 114.275 77.6108 114.402C77.2303 114.613 76.6384 115.12 75.8351 115.924C74.2285 117.361 73.3407 118.629 73.1715 119.729H87.3773L85.6016 128.924Z"></path>
  </mask>
  <path d="M0.948727 124.295L6.97349 116.241C9.00288 118.27 11.3071 119.285 13.8861 119.285C15.4082 119.285 16.6554 118.883 17.6278 118.08C18.6002 117.277 19.0864 116.325 19.0864 115.226C19.0864 114.296 18.6848 113.387 17.8815 112.499C17.1205 111.569 16.1692 110.681 15.0276 109.835C13.8861 108.948 12.7446 107.996 11.603 106.982C10.4615 105.967 9.48909 104.677 8.68579 103.113C7.92477 101.549 7.54426 99.7942 7.54426 97.8494C7.54426 94.5093 8.64351 91.5498 10.842 88.9708C13.0405 86.3495 15.8944 84.6372 19.4035 83.8339L20.7353 77.2383H26.9503L25.7454 83.5168C29.2123 83.8973 32.1929 85.0177 34.6874 86.8779L29.4237 95.3126C27.6057 93.9174 25.5128 93.2198 23.1452 93.2198C21.5809 93.2198 20.3337 93.6214 19.4035 94.4248C18.4734 95.2281 18.0083 96.2005 18.0083 97.342C18.0083 99.0332 19.3612 100.851 22.0671 102.796C23.1664 103.515 24.0542 104.149 24.7307 104.699C25.4071 105.248 26.1682 106.009 27.0137 106.982C27.8593 107.912 28.4935 108.969 28.9163 110.153C29.3814 111.336 29.6139 112.647 29.6139 114.084C29.6139 117.509 28.4512 120.638 26.1259 123.47C23.7583 126.345 20.6719 128.121 16.8668 128.798L15.6618 135.203H9.44681L10.6518 128.861C6.63526 128.311 3.40091 126.789 0.948727 124.295ZM56.6748 128.924H31.8147L33.527 120.046H40.8202L44.4984 101.084L45.3229 97.9128H45.196C45.1538 98.3778 44.7098 98.9486 43.8643 99.6251L41.3275 101.781L36.1272 95.3126L49.2548 83.5802H58.0066L50.9671 120.046H58.3871L56.6748 128.924ZM85.6016 128.924H60.4878C60.4878 125.796 60.9529 122.836 61.883 120.046C62.5595 118.186 63.8067 116.008 65.6247 113.514C66.3012 112.626 67.1045 111.738 68.0346 110.85C69.2607 109.709 70.0852 108.969 70.508 108.631C70.8462 108.292 71.7341 107.574 73.1715 106.474L75.6449 104.508C79.154 101.38 80.9086 98.6104 80.9086 96.2005C80.9086 94.0442 79.8516 92.9661 77.7377 92.9661C75.7928 92.9661 74.144 94.0231 72.791 96.1371L66.3223 89.7952C67.8867 87.7235 69.8526 86.0535 72.2203 84.7851C74.5879 83.4745 76.9978 82.8192 79.45 82.8192C82.79 82.8192 85.665 83.8973 88.0749 86.0535C90.5271 88.1252 91.7532 91.0424 91.7532 94.8053C91.7532 97.2152 91.1613 99.5194 89.9775 101.718C88.7936 103.959 87.4196 105.84 85.8553 107.362C84.0373 109.096 81.9233 110.914 79.5134 112.816C79.4711 112.858 79.1752 113.112 78.6255 113.577C78.1182 114 77.78 114.275 77.6108 114.402C77.2303 114.613 76.6384 115.12 75.8351 115.924C74.2285 117.361 73.3407 118.629 73.1715 119.729H87.3773L85.6016 128.924Z" fill="#CFFF5E"></path>
  <path d="M0.948727 124.295L0.147971 123.696L-0.366406 124.384L0.235602 124.996L0.948727 124.295ZM6.97349 116.241L7.68059 115.534L6.86425 114.717L6.17273 115.642L6.97349 116.241ZM17.6278 118.08L18.2647 118.851L17.6278 118.08ZM17.8815 112.499L17.1075 113.132L17.1233 113.152L17.1399 113.17L17.8815 112.499ZM15.0276 109.835L14.4137 110.625L14.423 110.632L14.4324 110.639L15.0276 109.835ZM11.603 106.982L12.2674 106.234V106.234L11.603 106.982ZM8.68579 103.113L7.78655 103.551L7.79128 103.56L7.79622 103.57L8.68579 103.113ZM10.842 88.9708L11.6031 89.6195L11.6082 89.6134L10.842 88.9708ZM19.4035 83.8339L19.6267 84.8086L20.256 84.6646L20.3837 84.0318L19.4035 83.8339ZM20.7353 77.2383V76.2383H19.9171L19.7551 77.0404L20.7353 77.2383ZM26.9503 77.2383L27.9324 77.4268L28.1605 76.2383H26.9503V77.2383ZM25.7454 83.5168L24.7633 83.3283L24.559 84.3926L25.6363 84.5108L25.7454 83.5168ZM34.6874 86.8779L35.5357 87.4074L36.023 86.6265L35.2852 86.0763L34.6874 86.8779ZM29.4237 95.3126L28.8148 96.1059L29.6888 96.7766L30.272 95.842L29.4237 95.3126ZM19.4035 94.4247L20.0571 95.1816H20.0571L19.4035 94.4247ZM22.0671 102.796L21.4835 103.608L21.5014 103.621L21.5199 103.633L22.0671 102.796ZM24.7307 104.699L25.3613 103.922L24.7307 104.699ZM27.0137 106.982L26.2591 107.638L26.2664 107.646L26.2738 107.654L27.0137 106.982ZM28.9163 110.153L27.9746 110.489L27.9798 110.504L27.9856 110.518L28.9163 110.153ZM26.1259 123.47L26.8978 124.106L26.8988 124.105L26.1259 123.47ZM16.8668 128.798L16.6917 127.813L16.0117 127.934L15.884 128.613L16.8668 128.798ZM15.6618 135.203V136.203H16.4913L16.6446 135.388L15.6618 135.203ZM9.44681 135.203L8.46439 135.016L8.23892 136.203H9.44681V135.203ZM10.6518 128.861L11.6342 129.048L11.8308 128.013L10.7873 127.87L10.6518 128.861ZM1.74948 124.894L7.77424 116.84L6.17273 115.642L0.147971 123.696L1.74948 124.894ZM6.26638 116.948C8.46014 119.142 11.0108 120.285 13.8861 120.285V118.285C11.6034 118.285 9.54562 117.399 7.68059 115.534L6.26638 116.948ZM13.8861 120.285C15.5907 120.285 17.078 119.831 18.2647 118.851L16.9909 117.309C16.2328 117.935 15.2256 118.285 13.8861 118.285V120.285ZM18.2647 118.851C19.4291 117.889 20.0864 116.67 20.0864 115.226H18.0864C18.0864 115.981 17.7714 116.664 16.9909 117.309L18.2647 118.851ZM20.0864 115.226C20.0864 113.983 19.5434 112.845 18.623 111.828L17.1399 113.17C17.8261 113.928 18.0864 114.609 18.0864 115.226H20.0864ZM18.6554 111.866C17.8336 110.861 16.8191 109.918 15.6229 109.032L14.4324 110.639C15.5192 111.444 16.4073 112.276 17.1075 113.132L18.6554 111.866ZM15.6416 109.046C14.5182 108.172 13.3935 107.235 12.2674 106.234L10.9387 107.729C12.0957 108.757 13.254 109.723 14.4137 110.625L15.6416 109.046ZM12.2674 106.234C11.2311 105.313 10.3306 104.127 9.57536 102.656L7.79622 103.57C8.64755 105.228 9.69189 106.621 10.9387 107.729L12.2674 106.234ZM9.58502 102.676C8.89778 101.263 8.54426 99.6607 8.54426 97.8494H6.54426C6.54426 99.9277 6.95176 101.835 7.78655 103.551L9.58502 102.676ZM8.54426 97.8494C8.54426 94.7509 9.55631 92.0205 11.603 89.6195L10.081 88.322C7.73071 91.0791 6.54426 94.2677 6.54426 97.8494H8.54426ZM11.6082 89.6134C13.6591 87.1681 16.318 85.566 19.6267 84.8086L19.1804 82.8591C15.4707 83.7083 12.422 85.5308 10.0758 88.3281L11.6082 89.6134ZM20.3837 84.0318L21.7155 77.4363L19.7551 77.0404L18.4233 83.6359L20.3837 84.0318ZM20.7353 78.2383H26.9503V76.2383H20.7353V78.2383ZM25.9683 77.0498L24.7633 83.3283L26.7275 83.7052L27.9324 77.4268L25.9683 77.0498ZM25.6363 84.5108C28.9479 84.8743 31.7546 85.9383 34.0896 87.6796L35.2852 86.0763C32.6312 84.0971 29.4766 82.9203 25.8545 82.5227L25.6363 84.5108ZM33.839 86.3485L28.5753 94.7832L30.272 95.842L35.5357 87.4074L33.839 86.3485ZM30.0325 94.5193C28.0337 92.9853 25.7251 92.2198 23.1452 92.2198V94.2198C25.3005 94.2198 27.1776 94.8495 28.8148 96.1059L30.0325 94.5193ZM23.1452 92.2198C21.4082 92.2198 19.9068 92.6688 18.7499 93.6679L20.0571 95.1816C20.7605 94.5741 21.7536 94.2198 23.1452 94.2198V92.2198ZM18.7499 93.6679C17.6189 94.6447 17.0083 95.8855 17.0083 97.342H19.0083C19.0083 96.5154 19.3279 95.8114 20.0571 95.1816L18.7499 93.6679ZM17.0083 97.342C17.0083 99.5625 18.7498 101.643 21.4835 103.608L22.6507 101.984C19.9727 100.059 19.0083 98.5039 19.0083 97.342H17.0083ZM21.5199 103.633C22.6031 104.341 23.4601 104.955 24.1001 105.475L25.3613 103.922C24.6484 103.343 23.7296 102.688 22.6144 101.959L21.5199 103.633ZM24.1001 105.475C24.7162 105.975 25.4353 106.69 26.2591 107.638L27.7684 106.325C26.9011 105.328 26.0981 104.521 25.3613 103.922L24.1001 105.475ZM26.2738 107.654C27.0306 108.487 27.5962 109.429 27.9746 110.489L29.858 109.816C29.3909 108.508 28.6881 107.337 27.7537 106.309L26.2738 107.654ZM27.9856 110.518C28.3993 111.571 28.6139 112.756 28.6139 114.084H30.6139C30.6139 112.538 30.3635 111.101 29.8471 109.787L27.9856 110.518ZM28.6139 114.084C28.6139 117.261 27.5426 120.169 25.353 122.836L26.8988 124.105C29.3599 121.107 30.6139 117.757 30.6139 114.084H28.6139ZM25.354 122.835C23.1436 125.519 20.2724 127.176 16.6917 127.813L17.0418 129.782C21.0714 129.066 24.3729 127.172 26.8978 124.106L25.354 122.835ZM15.884 128.613L14.6791 135.018L16.6446 135.388L17.8495 128.982L15.884 128.613ZM15.6618 134.203H9.44681V136.203H15.6618V134.203ZM10.4292 135.39L11.6342 129.048L9.66934 128.674L8.46439 135.016L10.4292 135.39ZM10.7873 127.87C6.95374 127.346 3.93498 125.906 1.66185 123.594L0.235602 124.996C2.86684 127.673 6.31677 129.277 10.5162 129.852L10.7873 127.87ZM56.6748 128.924V129.924H57.5004L57.6567 129.114L56.6748 128.924ZM31.8147 128.924L30.8328 128.735L30.6034 129.924H31.8147V128.924ZM33.527 120.046V119.046H32.7015L32.5451 119.856L33.527 120.046ZM40.8202 120.046V121.046H41.6448L41.8019 120.236L40.8202 120.046ZM44.4984 101.084L43.5306 100.832L43.5227 100.862L43.5167 100.893L44.4984 101.084ZM45.3229 97.9128L46.2907 98.1644L46.6161 96.9128H45.3229V97.9128ZM45.196 97.9128V96.9128H44.2828L44.2001 97.8222L45.196 97.9128ZM43.8643 99.6251L43.2396 98.8442L43.2279 98.8535L43.2166 98.8631L43.8643 99.6251ZM41.3275 101.781L40.5481 102.408L41.1921 103.209L41.9752 102.543L41.3275 101.781ZM36.1272 95.3126L35.4608 94.567L34.7531 95.1995L35.3478 95.9392L36.1272 95.3126ZM49.2548 83.5802V82.5802H48.8731L48.5885 82.8346L49.2548 83.5802ZM58.0066 83.5802L58.9885 83.7697L59.2181 82.5802H58.0066V83.5802ZM50.9671 120.046L49.9853 119.856L49.7556 121.046H50.9671V120.046ZM58.3871 120.046L59.369 120.235L59.5984 119.046H58.3871V120.046ZM56.6748 127.924H31.8147V129.924H56.6748V127.924ZM32.7966 129.114L34.5089 120.235L32.5451 119.856L30.8328 128.735L32.7966 129.114ZM33.527 121.046H40.8202V119.046H33.527V121.046ZM41.8019 120.236L45.4801 101.274L43.5167 100.893L39.8385 119.855L41.8019 120.236ZM45.4663 101.335L46.2907 98.1644L44.3551 97.6611L43.5306 100.832L45.4663 101.335ZM45.3229 96.9128H45.196V98.9128H45.3229V96.9128ZM44.2001 97.8222C44.2034 97.7864 44.206 97.8649 44.042 98.0757C43.8857 98.2767 43.6282 98.5333 43.2396 98.8442L44.4889 100.406C44.9459 100.04 45.3332 99.6733 45.6207 99.3036C45.9007 98.9436 46.1464 98.5042 46.1919 98.0033L44.2001 97.8222ZM43.2166 98.8631L40.6799 101.019L41.9752 102.543L44.5119 100.387L43.2166 98.8631ZM42.1069 101.155L36.9066 94.6861L35.3478 95.9392L40.5481 102.408L42.1069 101.155ZM36.7936 96.0582L49.9212 84.3258L48.5885 82.8346L35.4608 94.567L36.7936 96.0582ZM49.2548 84.5802H58.0066V82.5802H49.2548V84.5802ZM57.0247 83.3906L49.9853 119.856L51.949 120.235L58.9885 83.7697L57.0247 83.3906ZM50.9671 121.046H58.3871V119.046H50.9671V121.046ZM57.4052 119.856L55.6929 128.735L57.6567 129.114L59.369 120.235L57.4052 119.856ZM85.6016 128.924V129.924H86.4269L86.5834 129.114L85.6016 128.924ZM60.4878 128.924H59.4878V129.924H60.4878V128.924ZM61.883 120.046L60.9432 119.704L60.9386 119.717L60.9344 119.73L61.883 120.046ZM65.6247 113.514L64.8293 112.908L64.8229 112.916L64.8166 112.925L65.6247 113.514ZM68.0346 110.85L67.3532 110.118L67.3442 110.127L68.0346 110.85ZM70.508 108.631L71.1327 109.411L71.1759 109.377L71.2151 109.338L70.508 108.631ZM73.1715 106.474L73.779 107.269L73.7864 107.263L73.7938 107.257L73.1715 106.474ZM75.6449 104.508L76.2671 105.291L76.2892 105.274L76.3103 105.255L75.6449 104.508ZM72.791 96.1371L72.091 96.8511L72.9698 97.7128L73.6333 96.6761L72.791 96.1371ZM66.3223 89.7952L65.5243 89.1926L64.9947 89.894L65.6223 90.5093L66.3223 89.7952ZM72.2203 84.7851L72.6925 85.6667L72.7046 85.66L72.2203 84.7851ZM88.0749 86.0535L87.4081 86.7987L87.4187 86.8082L87.4296 86.8174L88.0749 86.0535ZM89.9775 101.718L89.097 101.244L89.0933 101.251L89.9775 101.718ZM85.8553 107.362L86.5454 108.086L86.5526 108.079L85.8553 107.362ZM79.5134 112.816L78.8938 112.031L78.8477 112.068L78.8063 112.109L79.5134 112.816ZM78.6255 113.577L79.2657 114.345L79.2715 114.341L78.6255 113.577ZM77.6108 114.402L78.0965 115.276L78.1562 115.243L78.2108 115.202L77.6108 114.402ZM75.8351 115.924L76.5019 116.669L76.5226 116.65L76.5422 116.631L75.8351 115.924ZM73.1715 119.729L72.1832 119.577L72.0059 120.729H73.1715V119.729ZM87.3773 119.729L88.3592 119.918L88.5889 118.729H87.3773V119.729ZM85.6016 127.924H60.4878V129.924H85.6016V127.924ZM61.4878 128.924C61.4878 125.896 61.9377 123.044 62.8317 120.362L60.9344 119.73C59.9681 122.628 59.4878 125.695 59.4878 128.924H61.4878ZM62.8228 120.388C63.4546 118.65 64.643 116.559 66.4329 114.103L64.8166 112.925C62.9705 115.458 61.6644 117.721 60.9432 119.704L62.8228 120.388ZM66.4202 114.12C67.0604 113.279 67.8274 112.43 68.7251 111.574L67.3442 110.127C66.3816 111.046 65.542 111.972 64.8293 112.908L66.4202 114.12ZM68.7161 111.582C69.9474 110.436 70.7443 109.722 71.1327 109.411L69.8833 107.85C69.4261 108.215 68.5741 108.982 67.3532 110.118L68.7161 111.582ZM71.2151 109.338C71.4962 109.056 72.3237 108.381 73.779 107.269L72.5641 105.68C71.1444 106.766 70.1962 107.528 69.8009 107.923L71.2151 109.338ZM73.7938 107.257L76.2671 105.291L75.0226 103.725L72.5493 105.691L73.7938 107.257ZM76.3103 105.255C79.8515 102.098 81.9086 99.0709 81.9086 96.2005H79.9086C79.9086 98.1499 78.4566 100.662 74.9794 103.762L76.3103 105.255ZM81.9086 96.2005C81.9086 94.9731 81.6077 93.868 80.8299 93.0746C80.0486 92.2776 78.9539 91.9661 77.7377 91.9661V93.9661C78.6354 93.9661 79.1262 94.1937 79.4018 94.4748C79.681 94.7595 79.9086 95.2716 79.9086 96.2005H81.9086ZM77.7377 91.9661C75.3533 91.9661 73.4252 93.2911 71.9488 95.598L73.6333 96.6761C74.8627 94.7551 76.2324 93.9661 77.7377 93.9661V91.9661ZM73.4911 95.423L67.0224 89.0811L65.6223 90.5093L72.091 96.8511L73.4911 95.423ZM67.1204 90.3978C68.5945 88.4456 70.4478 86.8691 72.6925 85.6666L71.748 83.9037C69.2575 85.2379 67.1788 87.0015 65.5243 89.1926L67.1204 90.3978ZM72.7046 85.66C74.9397 84.4227 77.1843 83.8192 79.45 83.8192V81.8192C76.8113 81.8192 74.2361 82.5262 71.7359 83.9102L72.7046 85.66ZM79.45 83.8192C82.5529 83.8192 85.1881 84.8124 87.4081 86.7987L88.7417 85.3083C86.1419 82.9821 83.0272 81.8192 79.45 81.8192V83.8192ZM87.4296 86.8174C89.6172 88.6656 90.7532 91.2806 90.7532 94.8053H92.7532C92.7532 90.8042 91.437 87.5848 88.7203 85.2896L87.4296 86.8174ZM90.7532 94.8053C90.7532 97.0436 90.2053 99.1855 89.097 101.244L90.8579 102.192C92.1173 99.8532 92.7532 97.3868 92.7532 94.8053H90.7532ZM89.0933 101.251C87.9506 103.414 86.6363 105.207 85.1579 106.645L86.5526 108.079C88.2028 106.473 89.6367 104.504 90.8616 102.185L89.0933 101.251ZM85.1652 106.638C83.374 108.346 81.2844 110.144 78.8938 112.031L80.133 113.601C82.5622 111.683 84.7005 109.845 86.5453 108.086L85.1652 106.638ZM78.8063 112.109C78.8243 112.091 78.8262 112.091 78.7756 112.135C78.7371 112.169 78.6819 112.216 78.6089 112.279C78.4634 112.404 78.2539 112.582 77.9796 112.814L79.2715 114.341C79.7912 113.901 80.1395 113.604 80.2205 113.523L78.8063 112.109ZM77.9854 112.809C77.4741 113.235 77.1558 113.493 77.0108 113.602L78.2108 115.202C78.4041 115.057 78.7623 114.765 79.2657 114.345L77.9854 112.809ZM77.1252 113.527C76.6064 113.816 75.9245 114.42 75.128 115.217L76.5422 116.631C77.3524 115.821 77.8542 115.41 78.0965 115.276L77.1252 113.527ZM75.1683 115.178C73.5282 116.646 72.4081 118.115 72.1832 119.577L74.1599 119.881C74.2732 119.144 74.9289 118.076 76.5019 116.669L75.1683 115.178ZM73.1715 120.729H87.3773V118.729H73.1715V120.729ZM86.3954 119.539L84.6197 128.735L86.5834 129.114L88.3592 119.918L86.3954 119.539Z" fill="black" mask="url(#path-7-outside-1_615_4356)"></path>
  <g clip-path="url(#clip1_615_4356)">
    <path d="M92.3764 83.4707V83.6366C92.3458 83.6919 92.2235 83.9437 91.985 84.3062C91.952 84.351 91.9224 84.3982 91.8963 84.4474C91.4651 85.0662 90.9856 85.6495 90.4624 86.192L90.282 86.3701C90.227 86.4285 90.1659 86.4899 90.0986 86.5513C89.9559 86.6885 89.8061 86.8267 89.6492 86.966L89.4871 87.1072C89.1233 87.4144 88.7167 87.7461 88.2642 88.0624L87.7138 88.4341L87.4081 88.6184C87.243 88.7228 87.0779 88.818 86.9036 88.9255C85.6836 89.6264 84.3907 90.1908 83.0482 90.6086L82.7425 90.7038C82.5499 90.7591 82.3573 90.8144 82.1585 90.8666C81.8528 90.9526 81.5471 91.0263 81.2199 91.1031C80.8928 91.1799 80.5656 91.2413 80.2324 91.3027C79.8991 91.3642 79.5934 91.4133 79.2632 91.4625C76.2358 91.851 73.1701 91.8272 70.1491 91.3918C58.9253 89.9175 52.4467 94.0455 49.1875 97.3134C49.1141 97.3902 49.0438 97.4578 48.9674 97.5315C48.8329 97.6789 48.6953 97.8233 48.573 97.9615C48.4507 98.0997 48.3192 98.2379 48.2061 98.373C47.9799 98.6372 47.7811 98.8921 47.5946 99.1255C47.5641 99.1655 47.5335 99.2023 47.506 99.2422C47.4173 99.359 47.3347 99.4695 47.2644 99.574C47.1941 99.6784 47.1666 99.7122 47.1299 99.7767C47.0802 99.8337 47.0362 99.8954 46.9984 99.9609C46.9373 100.059 46.8761 100.145 46.8242 100.228C46.7722 100.311 46.7355 100.366 46.7019 100.428C46.6835 100.47 46.6599 100.509 46.6315 100.545C46.5934 100.605 46.5597 100.669 46.5306 100.735C46.5306 100.735 46.5306 100.735 46.5306 100.753C46.5145 100.773 46.502 100.796 46.494 100.821V100.882C45.9528 101.103 36.0438 104.995 24.655 92.1689C12.9818 79.0295 1.20164 83.5537 0.617676 83.7871V83.5782C0.923416 82.964 4.24681 76.9502 14.22 75.737C17.0748 75.4188 19.9581 75.4621 22.8022 75.866C40.0918 78.148 46.1087 67.1279 46.4512 66.4615C46.4512 66.4277 46.4756 66.3785 46.4878 66.3785C47.2369 66.0714 57.042 62.4072 68.3085 75.0951C69.3539 76.2737 70.4775 77.3799 71.6716 78.406C82.449 87.6417 92.3764 83.4707 92.3764 83.4707Z" stroke="black" stroke-linecap="round" stroke-linejoin="round"></path>
    <path d="M0.629547 137.18H0.623779V137.174L0.629547 137.18Z" stroke="black" stroke-linecap="round" stroke-linejoin="round"></path>
    <path d="M0.623779 137.174L0.629547 137.18H0.623779V137.174Z" stroke="black" stroke-linecap="round" stroke-linejoin="round"></path>
    <path d="M46.5028 119.977H46.4971V119.983H46.5028V119.977Z" stroke="black" stroke-linecap="round" stroke-linejoin="round"></path>
    <path d="M92.3764 83.6489V137.189L46.5154 154.389V119.989V100.839C46.5298 100.818 46.5421 100.795 46.5521 100.772C46.5521 100.772 46.5521 100.756 46.5521 100.753L46.653 100.563C46.6813 100.527 46.7049 100.488 46.7233 100.446C46.7661 100.385 46.7997 100.323 46.8456 100.247C46.8914 100.17 46.9587 100.078 47.0198 99.9794C47.081 99.8811 47.0993 99.8565 47.1513 99.7951C47.2033 99.7337 47.24 99.663 47.2858 99.5924C47.3317 99.5217 47.4418 99.3774 47.5274 99.2607C47.5549 99.2207 47.5855 99.1839 47.616 99.144C47.7934 98.9105 47.9921 98.6556 48.2275 98.3915C48.3437 98.2563 48.4629 98.1181 48.5944 97.9799C48.7259 97.8417 48.8543 97.6973 48.9888 97.5499C49.0653 97.4762 49.1356 97.4086 49.2089 97.3318C52.4681 94.0639 58.9468 89.936 70.1705 91.4102C73.1915 91.8457 76.2572 91.8694 79.2846 91.4809C79.6148 91.4317 79.9358 91.3764 80.2538 91.3212C80.5718 91.2659 80.9172 91.1891 81.2413 91.1215C81.5654 91.0539 81.8712 90.971 82.1799 90.885C82.3787 90.8328 82.5713 90.7775 82.7639 90.7222L83.0697 90.627C84.4122 90.2092 85.705 89.6448 86.925 88.9439C87.0993 88.8456 87.2644 88.7504 87.4295 88.6368L87.7352 88.4525L88.2856 88.0809C88.7289 87.7737 89.1355 87.4389 89.5085 87.1257L89.6706 86.9844C89.8255 86.8451 89.9753 86.7069 90.12 86.5697C90.1873 86.5083 90.2484 86.4469 90.3035 86.3885L90.4838 86.2104C91.007 85.6679 91.4865 85.0846 91.9178 84.4659C91.9438 84.4166 91.9735 84.3694 92.0064 84.3246C92.2449 83.9499 92.3672 83.7103 92.3978 83.655L92.3764 83.6489Z" stroke="black" stroke-linecap="round" stroke-linejoin="round"></path>
    <path d="M46.5153 100.889V119.974V154.373L0.654297 137.174V83.7933C1.23826 83.5598 13.0184 79.0357 24.6916 92.175C36.0498 105.001 45.9588 101.11 46.5153 100.889Z" stroke="black" stroke-linecap="round" stroke-linejoin="round"></path>
    <path d="M46.5028 119.977H46.4971V119.983H46.5028V119.977Z" stroke="black" stroke-linecap="round" stroke-linejoin="round"></path>
    <path d="M48.6556 53.703C48.8512 51.9062 47.0474 51.0585 47.0474 51.0585L50.3188 49.5689L51.1901 53.703H48.6556Z" fill="#69ADF8" stroke="black" stroke-linecap="round" stroke-linejoin="round"></path>
    <path d="M50.9516 62.567C50.3688 62.5933 49.7883 62.477 49.26 62.2283C48.7317 61.9795 48.2714 61.6056 47.9187 61.1388C47.9187 61.1388 51.0464 59.6031 53.6177 55.0329C54.1176 55.8072 54.4103 56.6979 54.4677 57.619C54.6511 60.202 53.0765 62.4165 50.9516 62.567Z" fill="#F25453" stroke="black" stroke-linecap="round" stroke-linejoin="round"></path>
    <path d="M53.6176 55.0329C51.0464 59.597 47.9186 61.1388 47.9186 61.1388C47.2422 60.2886 46.8439 59.2491 46.7782 58.1626C46.5978 55.5796 48.1724 53.3621 50.2973 53.2147C51.6181 53.1195 52.838 53.8566 53.6176 55.0329Z" fill="#69ADF8" stroke="black" stroke-linecap="round" stroke-linejoin="round"></path>
    <path d="M52.8043 51.12C51.5813 52.37 47.2857 51.9554 44.855 49.8669C40.6725 46.2519 43.5587 42.5293 43.5587 42.5293C42.8127 40.9414 42.1554 39.0249 40.6939 34.4086C39.8195 31.6444 39.6514 28.7634 38.9971 27.194C40.1305 28.8485 41.6328 30.2144 43.3845 31.1827C45.1361 32.151 47.0886 32.6951 49.0865 32.7716C48.9219 33.2035 48.8518 33.666 48.8808 34.1275C48.9098 34.5891 49.0373 35.039 49.2546 35.4468C50.603 37.9192 52.6698 41.0367 53.6053 43.6258C53.6176 43.6258 54.8619 49.0069 52.8043 51.12Z" fill="#CFFF5E" stroke="black" stroke-linecap="round" stroke-linejoin="round"></path>
    <path d="M46.439 46.3593C46.439 46.3593 48.0563 42.9962 51.1932 45.3949C51.1932 45.3949 53.1194 53.7398 53.3548 57.6282C53.3548 57.6282 53.7431 58.6018 54.4799 62.9447C54.8171 64.8095 54.9585 66.7047 54.9018 68.5991C54.9018 68.5991 54.8682 74.4102 54.5961 75.6203C54.324 76.8304 53.2478 73.4888 52.9023 71.9592C52.5568 70.4297 52.4529 69.2349 52.8534 68.5623C52.8534 68.5623 49.9213 60.5122 50.2149 58.5312C50.6429 55.6994 47.7384 51.2489 46.439 46.3593Z" fill="#69ADF8" stroke="black" stroke-linecap="round" stroke-linejoin="round"></path>
    <path d="M49.0989 32.7715C47.101 32.6951 45.1485 32.151 43.3968 31.1827C41.6452 30.2143 40.1429 28.8485 39.0094 27.1939C36.163 20.3663 36.2578 17.3072 36.2578 17.3072C35.4867 15.9271 34.7996 14.5014 34.2001 13.0379C33.7843 11.9538 31.6136 7.07642 31.6136 7.07642C31.6136 7.07642 26.6698 -0.663443 30.0849 0.820031C30.0849 0.820031 30.8829 1.69845 31.7695 2.59222C32.6562 3.48599 33.7874 4.60396 33.0383 5.80179C33.0383 5.80179 39.8747 12.4237 39.3794 15.5381C39.3794 15.5381 43.9655 22.4916 44.7084 23.7356C44.7145 23.7294 51.7129 27.0342 49.0989 32.7715Z" fill="#69ADF8" stroke="black" stroke-linecap="round" stroke-linejoin="round"></path>
    <path d="M64.4102 65.7397C64.4102 65.7397 68.2869 59.5663 72.1301 61.5197C72.4544 61.655 72.7319 61.8832 72.9282 62.1757C73.1245 62.4682 73.2308 62.8122 73.2341 63.165C73.2374 63.5177 73.1374 63.8637 72.9465 64.1598C72.7557 64.4559 72.4824 64.6892 72.1607 64.8306C70.8643 65.3097 68.4215 62.9663 64.4102 65.7397Z" fill="#69ADF8" stroke="black" stroke-linecap="round" stroke-linejoin="round"></path>
    <path d="M42.3113 64.1917C42.3113 64.1917 38.4131 56.5133 33.6772 58.3838C31.4942 59.2499 32.017 61.6701 33.2828 62.2752C34.7565 62.9847 37.8873 60.4876 42.3113 64.1917Z" fill="#69ADF8" stroke="black" stroke-linecap="round" stroke-linejoin="round"></path>
    <path d="M58.1333 70.2577C58.1333 70.2577 60.5486 58.8721 70.687 57.8985" stroke="black" stroke-linecap="round" stroke-linejoin="round"></path>
    <path d="M35.8328 66.2803C35.8328 66.2803 45.6348 65.7827 49.6797 75.8691" stroke="black" stroke-linecap="round" stroke-linejoin="round"></path>
  </g>
  <defs>
    <clipPath id="clip0_615_4356">
      <rect width="93" height="89.322" fill="white" transform="translate(0 65.678)"></rect>
    </clipPath>
    <clipPath id="clip1_615_4356">
      <rect width="93" height="155" fill="white"></rect>
    </clipPath>
  </defs>
</svg>
