<?xml version="1.0" encoding="UTF-8"?>
<svg xmlns="http://www.w3.org/2000/svg" width="93" height="155" viewBox="0 0 93 155" fill="none">
  <g clip-path="url(#clip0_615_4414)">
    <path d="M92.3762 83.9888V84.1534C92.3487 84.2083 92.2234 84.4584 91.9849 84.8151C91.9526 84.8622 91.923 84.9111 91.8962 84.9615C91.4631 85.5733 90.9837 86.1513 90.4623 86.6904C90.4073 86.7453 90.3431 86.8002 90.2819 86.8703C90.2208 86.9405 90.1657 86.9862 90.0985 87.0472C89.912 87.2241 89.7071 87.41 89.487 87.6022C89.1232 87.9071 88.7196 88.2303 88.264 88.5474L87.7137 88.9164L87.408 89.0993C87.2429 89.203 87.0778 89.2975 86.9065 89.4043C85.6864 90.0992 84.3936 90.6585 83.0512 91.0722C82.9472 91.1088 82.8433 91.1423 82.7454 91.1698L82.1615 91.3345C81.8557 91.4168 81.55 91.49 81.2198 91.5662C80.8896 91.6424 80.5686 91.7034 80.2322 91.7644C79.8959 91.8254 79.5932 91.8742 79.2661 91.923C76.2387 92.3087 73.173 92.2851 70.152 91.8528C58.9283 90.3892 52.4496 94.4874 49.1905 97.7318L48.9703 97.9513C48.8358 98.0947 48.6982 98.238 48.5729 98.3752C48.4475 98.5124 48.3191 98.6496 48.209 98.7869C47.9828 99.046 47.7841 99.2991 47.5976 99.5309C47.4722 99.6894 47.3652 99.8358 47.2673 99.9761L47.1298 100.174C47.0833 100.234 47.0404 100.296 47.0014 100.36C46.9372 100.455 46.876 100.543 46.8271 100.626C46.7782 100.708 46.7384 100.763 46.7048 100.824C46.6712 100.885 46.6559 100.906 46.6375 100.943C46.5977 101.001 46.5629 101.062 46.5336 101.126C46.5336 101.126 46.5336 101.141 46.5336 101.147C46.5174 101.167 46.505 101.19 46.4969 101.214V101.275C45.9557 101.495 36.0467 105.361 24.6579 92.6243C12.9847 79.5826 1.20457 84.0711 0.620605 84.3029V84.0986C0.926345 83.5039 4.24973 77.5152 14.2199 76.3107C17.0757 75.9948 19.96 76.0378 22.8051 76.4388C40.0947 78.7044 46.1117 67.7637 46.4571 67.0989C46.4571 67.0654 46.4755 67.0166 46.4908 67.0166C47.2368 66.7117 57.0419 63.0739 68.3084 75.6734C69.3569 76.8396 70.4804 77.9366 71.6715 78.9575C82.4489 88.1297 92.3762 83.9888 92.3762 83.9888Z" fill="#69ADF8" stroke="black" stroke-linecap="round" stroke-linejoin="round"></path>
    <path d="M0.623779 137.305L46.5001 154.378L0.623779 137.302V137.305Z" fill="#F25453" stroke="black" stroke-linecap="round" stroke-linejoin="round"></path>
    <path d="M46.5153 101.281V120.232L0.654297 137.308V84.312C1.23826 84.0803 13.0184 79.5917 24.6916 92.6334C36.0498 105.367 45.9589 101.501 46.5153 101.281Z" fill="#545DEC" stroke="black" stroke-linecap="round" stroke-linejoin="round"></path>
    <path d="M92.3764 84.1656V137.317L46.5154 120.241V101.229C46.5298 101.208 46.5421 101.186 46.5521 101.162C46.5521 101.162 46.5521 101.147 46.5521 101.141L46.656 100.958C46.6744 100.921 46.7019 100.882 46.7233 100.839C46.7447 100.796 46.7997 100.717 46.8456 100.641C46.8914 100.565 46.9556 100.47 47.0199 100.376C47.0841 100.281 47.1024 100.251 47.1483 100.19L47.2858 99.9913C47.3898 99.8541 47.4907 99.7047 47.616 99.5461C47.7934 99.3144 47.9921 99.0613 48.2275 98.8021C48.3468 98.6649 48.4629 98.5277 48.5914 98.3905C48.7198 98.2532 48.8543 98.1099 48.9888 97.9666L49.2089 97.7471C52.4681 94.5027 58.9468 90.4044 70.1705 91.8681C73.1915 92.3004 76.2572 92.324 79.2846 91.9382C79.6117 91.8894 79.9358 91.8345 80.2507 91.7797C80.5656 91.7248 80.9172 91.6485 81.2383 91.5815C81.5593 91.5144 81.8712 91.432 82.18 91.3497L82.7639 91.185C82.8648 91.1576 82.9688 91.1241 83.0697 91.0875C84.4121 90.6738 85.7049 90.1145 86.925 89.4195C87.0963 89.322 87.2613 89.2274 87.4264 89.1146L87.7322 88.9316L88.2825 88.5627C88.7289 88.2578 89.1325 87.9254 89.5055 87.6174C89.7256 87.4314 89.9243 87.2485 90.117 87.0624C90.1842 87.0015 90.2454 86.9405 90.3004 86.8856L90.4808 86.7057C91.0022 86.1666 91.4815 85.5886 91.9147 84.9768C91.9415 84.9264 91.9711 84.8775 92.0034 84.8304C92.2419 84.4614 92.3672 84.2205 92.3947 84.1687L92.3764 84.1656Z" fill="#545DEC" stroke="black" stroke-linecap="round" stroke-linejoin="round"></path>
    <path d="M0.623779 137.302L46.5001 154.378V120.229L0.623779 137.302Z" fill="#0019C7" stroke="black" stroke-linecap="round" stroke-linejoin="round"></path>
    <path d="M46.5 154.378L92.3763 137.302L46.5 120.229V154.378Z" fill="#0019C7" stroke="black" stroke-linecap="round" stroke-linejoin="round"></path>
  </g>
  <mask id="path-7-outside-1_615_4414" maskUnits="userSpaceOnUse" x="13.8574" y="75.9244" width="66" height="61" fill="black">
    <rect fill="white" x="13.8574" y="75.9244" width="66" height="61"></rect>
    <path d="M15.7186 124.295L21.7434 116.241C23.7727 118.27 26.077 119.285 28.656 119.285C30.178 119.285 31.4253 118.883 32.3977 118.08C33.3701 117.277 33.8563 116.325 33.8563 115.226C33.8563 114.296 33.4546 113.387 32.6513 112.499C31.8903 111.569 30.939 110.681 29.7975 109.835C28.656 108.948 27.5144 107.996 26.3729 106.982C25.2314 105.967 24.259 104.677 23.4557 103.113C22.6946 101.549 22.3141 99.7942 22.3141 97.8494C22.3141 94.5093 23.4134 91.5498 25.6119 88.9708C27.8104 86.3495 30.6642 84.6372 34.1734 83.8339L35.5052 77.2383H41.7202L40.5152 83.5168C43.9821 83.8973 46.9628 85.0177 49.4573 86.8779L44.1935 95.3126C42.3755 93.9174 40.2827 93.2198 37.9151 93.2198C36.3508 93.2198 35.1035 93.6214 34.1734 94.4248C33.2433 95.2281 32.7782 96.2005 32.7782 97.342C32.7782 99.0332 34.1311 100.851 36.837 102.796C37.9362 103.515 38.8241 104.149 39.5005 104.699C40.177 105.248 40.938 106.009 41.7836 106.982C42.6292 107.912 43.2634 108.969 43.6862 110.153C44.1512 111.336 44.3838 112.647 44.3838 114.084C44.3838 117.509 43.2211 120.638 40.8958 123.47C38.5281 126.345 35.4418 128.121 31.6366 128.798L30.4317 135.203H24.2167L25.4216 128.861C21.4051 128.311 18.1708 126.789 15.7186 124.295ZM47.5993 127.846L51.7849 119.031C52.9264 119.581 54.3851 119.856 56.1608 119.856C58.3593 119.856 60.1139 119.2 61.4245 117.89C62.7775 116.537 63.9401 114.507 64.9126 111.801H64.8491C63.7499 112.816 62.1433 113.323 60.0293 113.323C56.9852 113.323 54.6388 112.182 52.9899 109.899C51.3833 107.574 50.58 104.677 50.58 101.211C50.58 96.3907 52.0809 92.1205 55.0827 88.4C58.0422 84.6794 61.6993 82.8192 66.0541 82.8192C69.6901 82.8192 72.6919 84.1932 75.0595 86.9414C77.4271 89.6895 78.611 93.706 78.611 98.9909C78.611 106.305 76.6027 113.133 72.5862 119.475C70.6414 122.561 68.168 125.035 65.1662 126.895C62.2067 128.755 59.0146 129.685 55.59 129.685C52.5037 129.685 49.8401 129.072 47.5993 127.846ZM64.3418 105.016C66.1598 105.016 67.3013 104.128 67.7664 102.352C67.9355 101.676 68.0201 101.063 68.0201 100.513C68.0623 100.217 68.0835 99.921 68.0835 99.6251V98.103C68.0835 94.467 67.2379 92.649 65.5467 92.649C64.1938 92.649 63.1368 93.5158 62.3758 95.2492C61.6148 96.9826 61.2343 98.7795 61.2343 100.64C61.2343 103.557 62.2701 105.016 64.3418 105.016Z"></path>
  </mask>
  <path d="M15.7186 124.295L21.7434 116.241C23.7727 118.27 26.077 119.285 28.656 119.285C30.178 119.285 31.4253 118.883 32.3977 118.08C33.3701 117.277 33.8563 116.325 33.8563 115.226C33.8563 114.296 33.4546 113.387 32.6513 112.499C31.8903 111.569 30.939 110.681 29.7975 109.835C28.656 108.948 27.5144 107.996 26.3729 106.982C25.2314 105.967 24.259 104.677 23.4557 103.113C22.6946 101.549 22.3141 99.7942 22.3141 97.8494C22.3141 94.5093 23.4134 91.5498 25.6119 88.9708C27.8104 86.3495 30.6642 84.6372 34.1734 83.8339L35.5052 77.2383H41.7202L40.5152 83.5168C43.9821 83.8973 46.9628 85.0177 49.4573 86.8779L44.1935 95.3126C42.3755 93.9174 40.2827 93.2198 37.9151 93.2198C36.3508 93.2198 35.1035 93.6214 34.1734 94.4248C33.2433 95.2281 32.7782 96.2005 32.7782 97.342C32.7782 99.0332 34.1311 100.851 36.837 102.796C37.9362 103.515 38.8241 104.149 39.5005 104.699C40.177 105.248 40.938 106.009 41.7836 106.982C42.6292 107.912 43.2634 108.969 43.6862 110.153C44.1512 111.336 44.3838 112.647 44.3838 114.084C44.3838 117.509 43.2211 120.638 40.8958 123.47C38.5281 126.345 35.4418 128.121 31.6366 128.798L30.4317 135.203H24.2167L25.4216 128.861C21.4051 128.311 18.1708 126.789 15.7186 124.295ZM47.5993 127.846L51.7849 119.031C52.9264 119.581 54.3851 119.856 56.1608 119.856C58.3593 119.856 60.1139 119.2 61.4245 117.89C62.7775 116.537 63.9401 114.507 64.9126 111.801H64.8491C63.7499 112.816 62.1433 113.323 60.0293 113.323C56.9852 113.323 54.6388 112.182 52.9899 109.899C51.3833 107.574 50.58 104.677 50.58 101.211C50.58 96.3907 52.0809 92.1205 55.0827 88.4C58.0422 84.6794 61.6993 82.8192 66.0541 82.8192C69.6901 82.8192 72.6919 84.1932 75.0595 86.9414C77.4271 89.6895 78.611 93.706 78.611 98.9909C78.611 106.305 76.6027 113.133 72.5862 119.475C70.6414 122.561 68.168 125.035 65.1662 126.895C62.2067 128.755 59.0146 129.685 55.59 129.685C52.5037 129.685 49.8401 129.072 47.5993 127.846ZM64.3418 105.016C66.1598 105.016 67.3013 104.128 67.7664 102.352C67.9355 101.676 68.0201 101.063 68.0201 100.513C68.0623 100.217 68.0835 99.921 68.0835 99.6251V98.103C68.0835 94.467 67.2379 92.649 65.5467 92.649C64.1938 92.649 63.1368 93.5158 62.3758 95.2492C61.6148 96.9826 61.2343 98.7795 61.2343 100.64C61.2343 103.557 62.2701 105.016 64.3418 105.016Z" fill="#CFFF5E"></path>
  <path d="M15.7186 124.295L14.9178 123.696L14.4035 124.384L15.0055 124.996L15.7186 124.295ZM21.7434 116.241L22.4505 115.534L21.6341 114.717L20.9426 115.642L21.7434 116.241ZM32.3977 118.08L33.0346 118.851L32.3977 118.08ZM32.6513 112.499L31.8774 113.132L31.8931 113.152L31.9098 113.17L32.6513 112.499ZM29.7975 109.835L29.1836 110.625L29.1928 110.632L29.2023 110.639L29.7975 109.835ZM26.3729 106.982L27.0373 106.234V106.234L26.3729 106.982ZM23.4557 103.113L22.5564 103.551L22.5612 103.56L22.5661 103.57L23.4557 103.113ZM25.6119 88.9708L26.3729 89.6195L26.3781 89.6134L25.6119 88.9708ZM34.1734 83.8339L34.3965 84.8086L35.0258 84.6646L35.1536 84.0318L34.1734 83.8339ZM35.5052 77.2383V76.2383H34.6869L34.525 77.0404L35.5052 77.2383ZM41.7202 77.2383L42.7023 77.4268L42.9304 76.2383H41.7202V77.2383ZM40.5152 83.5168L39.5332 83.3283L39.3289 84.3926L40.4061 84.5108L40.5152 83.5168ZM49.4573 86.8779L50.3056 87.4074L50.7929 86.6265L50.0551 86.0763L49.4573 86.8779ZM44.1935 95.3126L43.5847 96.1059L44.4586 96.7766L45.0419 95.842L44.1935 95.3126ZM34.1734 94.4247L34.827 95.1816H34.827L34.1734 94.4247ZM36.837 102.796L36.2533 103.608L36.2712 103.621L36.2897 103.633L36.837 102.796ZM39.5005 104.699L40.1311 103.922L39.5005 104.699ZM41.7836 106.982L41.029 107.638L41.0363 107.646L41.0437 107.654L41.7836 106.982ZM43.6862 110.153L42.7444 110.489L42.7497 110.504L42.7554 110.518L43.6862 110.153ZM40.8958 123.47L41.6677 124.106L41.6687 124.105L40.8958 123.47ZM31.6366 128.798L31.4616 127.813L30.7816 127.934L30.6539 128.613L31.6366 128.798ZM30.4317 135.203V136.203H31.2611L31.4145 135.388L30.4317 135.203ZM24.2167 135.203L23.2343 135.016L23.0088 136.203H24.2167V135.203ZM25.4216 128.861L26.4041 129.048L26.6006 128.013L25.5572 127.87L25.4216 128.861ZM16.5193 124.894L22.5441 116.84L20.9426 115.642L14.9178 123.696L16.5193 124.894ZM21.0362 116.948C23.23 119.142 25.7807 120.285 28.656 120.285V118.285C26.3732 118.285 24.3155 117.399 22.4505 115.534L21.0362 116.948ZM28.656 120.285C30.3605 120.285 31.8479 119.831 33.0346 118.851L31.7608 117.309C31.0026 117.935 29.9955 118.285 28.656 118.285V120.285ZM33.0346 118.851C34.199 117.889 34.8563 116.67 34.8563 115.226H32.8563C32.8563 115.981 32.5412 116.664 31.7608 117.309L33.0346 118.851ZM34.8563 115.226C34.8563 113.983 34.3133 112.845 33.3929 111.828L31.9098 113.17C32.596 113.928 32.8563 114.609 32.8563 115.226H34.8563ZM33.4253 111.866C32.6035 110.861 31.589 109.918 30.3927 109.032L29.2023 110.639C30.2891 111.444 31.1771 112.276 31.8774 113.132L33.4253 111.866ZM30.4115 109.046C29.2881 108.172 28.1634 107.235 27.0373 106.234L25.7085 107.729C26.8655 108.757 28.0238 109.723 29.1836 110.625L30.4115 109.046ZM27.0373 106.234C26.001 105.313 25.1005 104.127 24.3452 102.656L22.5661 103.57C23.4174 105.228 24.4618 106.621 25.7085 107.729L27.0373 106.234ZM24.3549 102.676C23.6676 101.263 23.3141 99.6607 23.3141 97.8494H21.3141C21.3141 99.9277 21.7216 101.835 22.5564 103.551L24.3549 102.676ZM23.3141 97.8494C23.3141 94.7509 24.3262 92.0205 26.3729 89.6195L24.8509 88.322C22.5006 91.0791 21.3141 94.2677 21.3141 97.8494H23.3141ZM26.3781 89.6134C28.429 87.1681 31.0879 85.566 34.3965 84.8086L33.9502 82.8591C30.2406 83.7083 27.1918 85.5308 24.8457 88.3281L26.3781 89.6134ZM35.1536 84.0318L36.4854 77.4363L34.525 77.0404L33.1932 83.6359L35.1536 84.0318ZM35.5052 78.2383H41.7202V76.2383H35.5052V78.2383ZM40.7381 77.0498L39.5332 83.3283L41.4973 83.7052L42.7023 77.4268L40.7381 77.0498ZM40.4061 84.5108C43.7178 84.8743 46.5245 85.9383 48.8594 87.6796L50.0551 86.0763C47.4011 84.0971 44.2465 82.9203 40.6243 82.5227L40.4061 84.5108ZM48.6089 86.3485L43.3452 94.7832L45.0419 95.842L50.3056 87.4074L48.6089 86.3485ZM44.8023 94.5193C42.8036 92.9853 40.495 92.2198 37.9151 92.2198V94.2198C40.0704 94.2198 41.9475 94.8495 43.5847 96.1059L44.8023 94.5193ZM37.9151 92.2198C36.178 92.2198 34.6767 92.6688 33.5198 93.6679L34.827 95.1816C35.5304 94.5741 36.5235 94.2198 37.9151 94.2198V92.2198ZM33.5198 93.6679C32.3888 94.6447 31.7782 95.8855 31.7782 97.342H33.7782C33.7782 96.5154 34.0977 95.8114 34.827 95.1816L33.5198 93.6679ZM31.7782 97.342C31.7782 99.5625 33.5197 101.643 36.2533 103.608L37.4206 101.984C34.7425 100.059 33.7782 98.5039 33.7782 97.342H31.7782ZM36.2897 103.633C37.373 104.341 38.2299 104.955 38.87 105.475L40.1311 103.922C39.4182 103.343 38.4994 102.688 37.3842 101.959L36.2897 103.633ZM38.87 105.475C39.486 105.975 40.2051 106.69 41.029 107.638L42.5382 106.325C41.6709 105.328 40.868 104.521 40.1311 103.922L38.87 105.475ZM41.0437 107.654C41.8004 108.487 42.366 109.429 42.7444 110.489L44.6279 109.816C44.1607 108.508 43.4579 107.337 42.5236 106.309L41.0437 107.654ZM42.7554 110.518C43.1692 111.571 43.3838 112.756 43.3838 114.084H45.3838C45.3838 112.538 45.1333 111.101 44.6169 109.787L42.7554 110.518ZM43.3838 114.084C43.3838 117.261 42.3124 120.169 40.1228 122.836L41.6687 124.105C44.1298 121.107 45.3838 117.757 45.3838 114.084H43.3838ZM40.1238 122.835C37.9135 125.519 35.0422 127.176 31.4616 127.813L31.8117 129.782C35.8413 129.066 39.1428 127.172 41.6677 124.106L40.1238 122.835ZM30.6539 128.613L29.4489 135.018L31.4145 135.388L32.6194 128.982L30.6539 128.613ZM30.4317 134.203H24.2167V136.203H30.4317V134.203ZM25.1991 135.39L26.4041 129.048L24.4392 128.674L23.2343 135.016L25.1991 135.39ZM25.5572 127.87C21.7236 127.346 18.7048 125.906 16.4317 123.594L15.0055 124.996C17.6367 127.673 21.0866 129.277 25.2861 129.852L25.5572 127.87ZM47.5993 127.846L46.696 127.417L46.291 128.27L47.1193 128.724L47.5993 127.846ZM51.7849 119.031L52.2187 118.13L51.3128 117.694L50.8816 118.602L51.7849 119.031ZM64.9126 111.801L65.8536 112.14L66.3345 110.801H64.9126V111.801ZM64.8491 111.801V110.801H64.4582L64.1709 111.067L64.8491 111.801ZM52.9899 109.899L52.1671 110.467L52.1731 110.476L52.1792 110.484L52.9899 109.899ZM55.0827 88.4L55.861 89.0279L55.8653 89.0225L55.0827 88.4ZM75.0595 86.9414L75.8171 86.2887L75.0595 86.9414ZM72.5862 119.475L71.7414 118.94L71.7402 118.942L72.5862 119.475ZM65.1662 126.895L64.6395 126.045L64.6341 126.048L65.1662 126.895ZM67.7664 102.352L68.7338 102.605L68.7365 102.595L67.7664 102.352ZM68.0201 100.513L67.0301 100.372L67.0201 100.442V100.513H68.0201ZM62.3758 95.2492L63.2915 95.6512L62.3758 95.2492ZM48.5026 128.275L52.6883 119.46L50.8816 118.602L46.696 127.417L48.5026 128.275ZM51.3511 119.932C52.671 120.568 54.2914 120.856 56.1608 120.856V118.856C54.4788 118.856 53.1819 118.594 52.2187 118.13L51.3511 119.932ZM56.1608 120.856C58.5715 120.856 60.599 120.129 62.1316 118.597L60.7174 117.183C59.6287 118.271 58.1471 118.856 56.1608 118.856V120.856ZM62.1316 118.597C63.6278 117.101 64.8542 114.921 65.8536 112.14L63.9715 111.463C63.0261 114.094 61.9271 115.973 60.7174 117.183L62.1316 118.597ZM64.9126 110.801H64.8491V112.801H64.9126V110.801ZM64.1709 111.067C63.3206 111.852 61.9957 112.323 60.0293 112.323V114.323C62.2909 114.323 64.1792 113.781 65.5274 112.536L64.1709 111.067ZM60.0293 112.323C57.276 112.323 55.2443 111.312 53.8005 109.313L52.1792 110.484C54.0332 113.051 56.6945 114.323 60.0293 114.323V112.323ZM53.8126 109.33C52.3453 107.207 51.58 104.521 51.58 101.211H49.58C49.58 104.834 50.4212 107.94 52.1671 110.467L53.8126 109.33ZM51.58 101.211C51.58 96.6172 53.0039 92.5691 55.861 89.0279L54.3044 87.7721C51.1578 91.672 49.58 96.1643 49.58 101.211H51.58ZM55.8653 89.0225C58.655 85.5154 62.0347 83.8192 66.0541 83.8192V81.8192C61.364 81.8192 57.4294 83.8434 54.3001 87.7775L55.8653 89.0225ZM66.0541 83.8192C69.3998 83.8192 72.1248 85.067 74.3019 87.5941L75.8171 86.2887C73.259 83.3194 69.9803 81.8192 66.0541 81.8192V83.8192ZM74.3019 87.5941C76.4551 90.0934 77.611 93.8385 77.611 98.9909H79.611C79.611 93.5735 78.3992 89.2856 75.8171 86.2887L74.3019 87.5941ZM77.611 98.9909C77.611 106.111 75.6593 112.754 71.7414 118.94L73.431 120.01C77.5461 113.513 79.611 106.5 79.611 98.9909H77.611ZM71.7402 118.942C69.8735 121.904 67.5078 124.267 64.6395 126.045L65.693 127.745C68.8282 125.802 71.4092 123.219 73.4322 120.008L71.7402 118.942ZM64.6341 126.048C61.8304 127.811 58.8223 128.685 55.59 128.685V130.685C59.207 130.685 62.5829 129.7 65.6984 127.742L64.6341 126.048ZM55.59 128.685C52.6367 128.685 50.1452 128.099 48.0793 126.969L47.1193 128.724C49.535 130.045 52.3706 130.685 55.59 130.685V128.685ZM64.3418 106.016C65.415 106.016 66.3881 105.751 67.1754 105.139C67.9617 104.528 68.4607 103.648 68.7338 102.605L66.799 102.099C66.607 102.832 66.3027 103.284 65.9475 103.56C65.5932 103.836 65.0866 104.016 64.3418 104.016V106.016ZM68.7365 102.595C68.9204 101.859 69.0201 101.163 69.0201 100.513H67.0201C67.0201 100.962 66.9506 101.492 66.7962 102.11L68.7365 102.595ZM69.01 100.654C69.0589 100.312 69.0835 99.9688 69.0835 99.6251H67.0835C67.0835 99.8732 67.0658 100.122 67.0301 100.372L69.01 100.654ZM69.0835 99.6251V98.103H67.0835V99.6251H69.0835ZM69.0835 98.103C69.0835 96.2391 68.8717 94.6995 68.356 93.5908C68.0922 93.0237 67.7305 92.5293 67.2391 92.1771C66.7377 91.8178 66.16 91.649 65.5467 91.649V93.649C65.779 93.649 65.9412 93.7075 66.074 93.8027C66.2168 93.905 66.3836 94.0924 66.5426 94.4343C66.8725 95.1435 67.0835 96.331 67.0835 98.103H69.0835ZM65.5467 91.649C63.6392 91.649 62.3058 92.921 61.4602 94.8472L63.2915 95.6512C63.9679 94.1105 64.7484 93.649 65.5467 93.649V91.649ZM61.4602 94.8472C60.6445 96.7051 60.2343 98.6386 60.2343 100.64H62.2343C62.2343 98.9204 62.5851 97.2602 63.2915 95.6512L61.4602 94.8472ZM60.2343 100.64C60.2343 102.186 60.5034 103.526 61.1958 104.501C61.9329 105.539 63.0408 106.016 64.3418 106.016V104.016C63.5711 104.016 63.1252 103.763 62.8265 103.343C62.4831 102.859 62.2343 102.01 62.2343 100.64H60.2343Z" fill="black" mask="url(#path-7-outside-1_615_4414)"></path>
  <g clip-path="url(#clip1_615_4414)">
    <path d="M92.3764 83.4707V83.6366C92.3458 83.6919 92.2235 83.9437 91.985 84.3062C91.952 84.351 91.9224 84.3982 91.8963 84.4474C91.4651 85.0662 90.9856 85.6495 90.4624 86.192L90.282 86.3701C90.227 86.4285 90.1659 86.4899 90.0986 86.5513C89.9559 86.6885 89.8061 86.8267 89.6492 86.966L89.4871 87.1072C89.1233 87.4144 88.7167 87.7461 88.2642 88.0624L87.7138 88.4341L87.4081 88.6184C87.243 88.7228 87.0779 88.818 86.9036 88.9255C85.6836 89.6264 84.3907 90.1908 83.0482 90.6086L82.7425 90.7038C82.5499 90.7591 82.3573 90.8144 82.1585 90.8666C81.8528 90.9526 81.5471 91.0263 81.2199 91.1031C80.8928 91.1799 80.5656 91.2413 80.2324 91.3027C79.8991 91.3642 79.5934 91.4133 79.2632 91.4625C76.2358 91.851 73.1701 91.8272 70.1491 91.3918C58.9253 89.9175 52.4467 94.0455 49.1875 97.3134C49.1141 97.3902 49.0438 97.4578 48.9674 97.5315C48.8329 97.6789 48.6953 97.8233 48.573 97.9615C48.4507 98.0997 48.3192 98.2379 48.2061 98.373C47.9799 98.6372 47.7811 98.8921 47.5946 99.1255C47.5641 99.1655 47.5335 99.2023 47.506 99.2422C47.4173 99.359 47.3347 99.4695 47.2644 99.574C47.1941 99.6784 47.1666 99.7122 47.1299 99.7767C47.0802 99.8337 47.0362 99.8954 46.9984 99.9609C46.9373 100.059 46.8761 100.145 46.8242 100.228C46.7722 100.311 46.7355 100.366 46.7019 100.428C46.6835 100.47 46.6599 100.509 46.6315 100.545C46.5934 100.605 46.5597 100.669 46.5306 100.735C46.5306 100.735 46.5306 100.735 46.5306 100.753C46.5145 100.773 46.502 100.796 46.494 100.821V100.882C45.9528 101.103 36.0438 104.995 24.655 92.1689C12.9818 79.0295 1.20164 83.5537 0.617676 83.7871V83.5782C0.923416 82.964 4.24681 76.9502 14.22 75.737C17.0748 75.4188 19.9581 75.4621 22.8022 75.866C40.0918 78.148 46.1087 67.1279 46.4512 66.4615C46.4512 66.4277 46.4756 66.3785 46.4878 66.3785C47.2369 66.0714 57.042 62.4072 68.3085 75.0951C69.3539 76.2737 70.4775 77.3799 71.6716 78.406C82.449 87.6417 92.3764 83.4707 92.3764 83.4707Z" stroke="black" stroke-linecap="round" stroke-linejoin="round"></path>
    <path d="M0.629547 137.18H0.623779V137.174L0.629547 137.18Z" stroke="black" stroke-linecap="round" stroke-linejoin="round"></path>
    <path d="M0.623779 137.174L0.629547 137.18H0.623779V137.174Z" stroke="black" stroke-linecap="round" stroke-linejoin="round"></path>
    <path d="M46.5028 119.977H46.4971V119.983H46.5028V119.977Z" stroke="black" stroke-linecap="round" stroke-linejoin="round"></path>
    <path d="M92.3764 83.6489V137.189L46.5154 154.389V119.989V100.839C46.5298 100.818 46.5421 100.795 46.5521 100.772C46.5521 100.772 46.5521 100.756 46.5521 100.753L46.653 100.563C46.6813 100.527 46.7049 100.488 46.7233 100.446C46.7661 100.385 46.7997 100.323 46.8456 100.247C46.8914 100.17 46.9587 100.078 47.0198 99.9794C47.081 99.8811 47.0993 99.8565 47.1513 99.7951C47.2033 99.7337 47.24 99.663 47.2858 99.5924C47.3317 99.5217 47.4418 99.3774 47.5274 99.2607C47.5549 99.2207 47.5855 99.1839 47.616 99.144C47.7934 98.9105 47.9921 98.6556 48.2275 98.3915C48.3437 98.2563 48.4629 98.1181 48.5944 97.9799C48.7259 97.8417 48.8543 97.6973 48.9888 97.5499C49.0653 97.4762 49.1356 97.4086 49.2089 97.3318C52.4681 94.0639 58.9468 89.936 70.1705 91.4102C73.1915 91.8457 76.2572 91.8694 79.2846 91.4809C79.6148 91.4317 79.9358 91.3764 80.2538 91.3212C80.5718 91.2659 80.9172 91.1891 81.2413 91.1215C81.5654 91.0539 81.8712 90.971 82.1799 90.885C82.3787 90.8328 82.5713 90.7775 82.7639 90.7222L83.0697 90.627C84.4122 90.2092 85.705 89.6448 86.925 88.9439C87.0993 88.8456 87.2644 88.7504 87.4295 88.6368L87.7352 88.4525L88.2856 88.0809C88.7289 87.7737 89.1355 87.4389 89.5085 87.1257L89.6706 86.9844C89.8255 86.8451 89.9753 86.7069 90.12 86.5697C90.1873 86.5083 90.2484 86.4469 90.3035 86.3885L90.4838 86.2104C91.007 85.6679 91.4865 85.0846 91.9178 84.4659C91.9438 84.4166 91.9735 84.3694 92.0064 84.3246C92.2449 83.9499 92.3672 83.7103 92.3978 83.655L92.3764 83.6489Z" stroke="black" stroke-linecap="round" stroke-linejoin="round"></path>
    <path d="M46.5153 100.889V119.974V154.373L0.654297 137.174V83.7933C1.23826 83.5598 13.0184 79.0357 24.6916 92.175C36.0498 105.001 45.9588 101.11 46.5153 100.889Z" stroke="black" stroke-linecap="round" stroke-linejoin="round"></path>
    <path d="M46.5028 119.977H46.4971V119.983H46.5028V119.977Z" stroke="black" stroke-linecap="round" stroke-linejoin="round"></path>
    <path d="M48.6556 53.703C48.8512 51.9062 47.0474 51.0585 47.0474 51.0585L50.3188 49.5689L51.1901 53.703H48.6556Z" fill="#69ADF8" stroke="black" stroke-linecap="round" stroke-linejoin="round"></path>
    <path d="M50.9516 62.567C50.3688 62.5933 49.7883 62.477 49.26 62.2283C48.7317 61.9795 48.2714 61.6056 47.9187 61.1388C47.9187 61.1388 51.0464 59.6031 53.6177 55.0329C54.1176 55.8072 54.4103 56.6979 54.4677 57.619C54.6511 60.202 53.0765 62.4165 50.9516 62.567Z" fill="#F25453" stroke="black" stroke-linecap="round" stroke-linejoin="round"></path>
    <path d="M53.6176 55.0329C51.0464 59.597 47.9186 61.1388 47.9186 61.1388C47.2422 60.2886 46.8439 59.2491 46.7782 58.1626C46.5978 55.5796 48.1724 53.3621 50.2973 53.2147C51.6181 53.1195 52.838 53.8566 53.6176 55.0329Z" fill="#69ADF8" stroke="black" stroke-linecap="round" stroke-linejoin="round"></path>
    <path d="M52.8043 51.12C51.5813 52.37 47.2857 51.9554 44.855 49.8669C40.6725 46.2519 43.5587 42.5293 43.5587 42.5293C42.8127 40.9414 42.1554 39.0249 40.6939 34.4086C39.8195 31.6444 39.6514 28.7634 38.9971 27.194C40.1305 28.8485 41.6328 30.2144 43.3845 31.1827C45.1361 32.151 47.0886 32.6951 49.0865 32.7716C48.9219 33.2035 48.8518 33.666 48.8808 34.1275C48.9098 34.5891 49.0373 35.039 49.2546 35.4468C50.603 37.9192 52.6698 41.0367 53.6053 43.6258C53.6176 43.6258 54.8619 49.0069 52.8043 51.12Z" fill="#CFFF5E" stroke="black" stroke-linecap="round" stroke-linejoin="round"></path>
    <path d="M46.439 46.3593C46.439 46.3593 48.0563 42.9962 51.1932 45.3949C51.1932 45.3949 53.1194 53.7398 53.3548 57.6282C53.3548 57.6282 53.7431 58.6018 54.4799 62.9447C54.8171 64.8095 54.9585 66.7047 54.9018 68.5991C54.9018 68.5991 54.8682 74.4102 54.5961 75.6203C54.324 76.8304 53.2478 73.4888 52.9023 71.9592C52.5568 70.4297 52.4529 69.2349 52.8534 68.5623C52.8534 68.5623 49.9213 60.5122 50.2149 58.5312C50.6429 55.6994 47.7384 51.2489 46.439 46.3593Z" fill="#69ADF8" stroke="black" stroke-linecap="round" stroke-linejoin="round"></path>
    <path d="M49.0989 32.7715C47.101 32.6951 45.1485 32.151 43.3968 31.1827C41.6452 30.2143 40.1429 28.8485 39.0094 27.1939C36.163 20.3663 36.2578 17.3072 36.2578 17.3072C35.4867 15.9271 34.7996 14.5014 34.2001 13.0379C33.7843 11.9538 31.6136 7.07642 31.6136 7.07642C31.6136 7.07642 26.6698 -0.663443 30.0849 0.820031C30.0849 0.820031 30.8829 1.69845 31.7695 2.59222C32.6562 3.48599 33.7874 4.60396 33.0383 5.80179C33.0383 5.80179 39.8747 12.4237 39.3794 15.5381C39.3794 15.5381 43.9655 22.4916 44.7084 23.7356C44.7145 23.7294 51.7129 27.0342 49.0989 32.7715Z" fill="#69ADF8" stroke="black" stroke-linecap="round" stroke-linejoin="round"></path>
    <path d="M64.4102 65.7397C64.4102 65.7397 68.2869 59.5663 72.1301 61.5197C72.4544 61.655 72.7319 61.8832 72.9282 62.1757C73.1245 62.4682 73.2308 62.8122 73.2341 63.165C73.2374 63.5177 73.1374 63.8637 72.9465 64.1598C72.7557 64.4559 72.4824 64.6892 72.1607 64.8306C70.8643 65.3097 68.4215 62.9663 64.4102 65.7397Z" fill="#69ADF8" stroke="black" stroke-linecap="round" stroke-linejoin="round"></path>
    <path d="M42.3113 64.1917C42.3113 64.1917 38.4131 56.5133 33.6772 58.3838C31.4942 59.2499 32.017 61.6701 33.2828 62.2752C34.7565 62.9847 37.8873 60.4876 42.3113 64.1917Z" fill="#69ADF8" stroke="black" stroke-linecap="round" stroke-linejoin="round"></path>
    <path d="M58.1333 70.2577C58.1333 70.2577 60.5486 58.8721 70.687 57.8985" stroke="black" stroke-linecap="round" stroke-linejoin="round"></path>
    <path d="M35.8328 66.2803C35.8328 66.2803 45.6348 65.7827 49.6797 75.8691" stroke="black" stroke-linecap="round" stroke-linejoin="round"></path>
  </g>
  <defs>
    <clipPath id="clip0_615_4414">
      <rect width="93" height="89.322" fill="white" transform="translate(0 65.678)"></rect>
    </clipPath>
    <clipPath id="clip1_615_4414">
      <rect width="93" height="155" fill="white"></rect>
    </clipPath>
  </defs>
</svg>
