<?xml version="1.0" encoding="UTF-8"?>
<svg xmlns="http://www.w3.org/2000/svg" width="93" height="155" viewBox="0 0 93 155" fill="none">
  <g clip-path="url(#clip0_615_4385)">
    <path d="M92.3764 83.9888V84.1534C92.3488 84.2083 92.2235 84.4584 91.985 84.8151C91.9528 84.8622 91.9232 84.9111 91.8963 84.9615C91.4632 85.5733 90.9838 86.1513 90.4624 86.6904C90.4074 86.7453 90.3432 86.8002 90.282 86.8703C90.2209 86.9405 90.1658 86.9862 90.0986 87.0472C89.9121 87.2241 89.7072 87.41 89.4871 87.6022C89.1233 87.9071 88.7197 88.2303 88.2641 88.5474L87.7138 88.9164L87.4081 89.0993C87.243 89.203 87.0779 89.2975 86.9067 89.4043C85.6866 90.0992 84.3937 90.6585 83.0513 91.0722C82.9473 91.1088 82.8434 91.1423 82.7455 91.1698L82.1616 91.3345C81.8558 91.4168 81.5501 91.49 81.2199 91.5662C80.8897 91.6424 80.5687 91.7034 80.2324 91.7644C79.896 91.8254 79.5934 91.8742 79.2662 91.923C76.2389 92.3087 73.1731 92.2851 70.1521 91.8528C58.9284 90.3892 52.4498 94.4874 49.1906 97.7318L48.9704 97.9513C48.8359 98.0947 48.6983 98.238 48.573 98.3752C48.4476 98.5124 48.3192 98.6496 48.2092 98.7869C47.9829 99.046 47.7842 99.2991 47.5977 99.5309C47.4723 99.6894 47.3653 99.8358 47.2675 99.9761L47.1299 100.174C47.0834 100.234 47.0405 100.296 47.0015 100.36C46.9373 100.455 46.8761 100.543 46.8272 100.626C46.7783 100.708 46.7385 100.763 46.7049 100.824C46.6713 100.885 46.656 100.906 46.6376 100.943C46.5978 101.001 46.563 101.062 46.5337 101.126C46.5337 101.126 46.5337 101.141 46.5337 101.147C46.5175 101.167 46.5051 101.19 46.497 101.214V101.275C45.9559 101.495 36.0468 105.361 24.658 92.6243C12.9849 79.5826 1.20469 84.0711 0.620728 84.3029V84.0986C0.926468 83.5039 4.24986 77.5152 14.22 76.3107C17.0759 75.9948 19.9602 76.0378 22.8052 76.4388C40.0948 78.7044 46.1118 67.7637 46.4573 67.0989C46.4573 67.0654 46.4756 67.0166 46.4909 67.0166C47.2369 66.7117 57.042 63.0739 68.3085 75.6734C69.3571 76.8396 70.4805 77.9366 71.6716 78.9575C82.449 88.1297 92.3764 83.9888 92.3764 83.9888Z" fill="#69ADF8" stroke="black" stroke-linecap="round" stroke-linejoin="round"></path>
    <path d="M0.623657 137.305L46.5 154.378L0.623657 137.302V137.305Z" fill="#F25453" stroke="black" stroke-linecap="round" stroke-linejoin="round"></path>
    <path d="M46.5153 101.281V120.232L0.654297 137.308V84.312C1.23826 84.0803 13.0184 79.5917 24.6916 92.6334C36.0498 105.367 45.9589 101.501 46.5153 101.281Z" fill="#545DEC" stroke="black" stroke-linecap="round" stroke-linejoin="round"></path>
    <path d="M92.3763 84.1656V137.317L46.5153 120.241V101.229C46.5297 101.208 46.542 101.186 46.5519 101.162C46.5519 101.162 46.5519 101.147 46.5519 101.141L46.6559 100.958C46.6742 100.921 46.7018 100.882 46.7232 100.839C46.7446 100.796 46.7996 100.717 46.8455 100.641C46.8913 100.565 46.9555 100.47 47.0197 100.376C47.0839 100.281 47.1023 100.251 47.1481 100.19L47.2857 99.9913C47.3897 99.8541 47.4906 99.7047 47.6159 99.5461C47.7933 99.3144 47.992 99.0613 48.2274 98.8021C48.3466 98.6649 48.4628 98.5277 48.5912 98.3905C48.7196 98.2532 48.8542 98.1099 48.9887 97.9666L49.2088 97.7471C52.468 94.5027 58.9466 90.4044 70.1704 91.8681C73.1914 92.3004 76.2571 92.324 79.2845 91.9382C79.6116 91.8894 79.9357 91.8345 80.2506 91.7797C80.5655 91.7248 80.9171 91.6485 81.2382 91.5815C81.5592 91.5144 81.871 91.432 82.1798 91.3497L82.7638 91.185C82.8647 91.1576 82.9686 91.1241 83.0695 91.0875C84.412 90.6738 85.7048 90.1145 86.9249 89.4195C87.0961 89.322 87.2612 89.2274 87.4263 89.1146L87.7321 88.9316L88.2824 88.5627C88.7288 88.2578 89.1324 87.9254 89.5054 87.6174C89.7255 87.4314 89.9242 87.2485 90.1168 87.0624C90.1841 87.0015 90.2452 86.9405 90.3003 86.8856L90.4807 86.7057C91.0021 86.1666 91.4814 85.5886 91.9146 84.9768C91.9414 84.9264 91.971 84.8775 92.0033 84.8304C92.2417 84.4614 92.3671 84.2205 92.3946 84.1687L92.3763 84.1656Z" fill="#545DEC" stroke="black" stroke-linecap="round" stroke-linejoin="round"></path>
    <path d="M0.623657 137.302L46.5 154.378V120.229L0.623657 137.302Z" fill="#0019C7" stroke="black" stroke-linecap="round" stroke-linejoin="round"></path>
    <path d="M46.5 154.378L92.3763 137.302L46.5 120.229V154.378Z" fill="#0019C7" stroke="black" stroke-linecap="round" stroke-linejoin="round"></path>
  </g>
  <mask id="path-7-outside-1_615_4385" maskUnits="userSpaceOnUse" x="14.8574" y="75.9244" width="65" height="61" fill="black">
    <rect fill="white" x="14.8574" y="75.9244" width="65" height="61"></rect>
    <path d="M16.5856 124.295L22.6104 116.241C24.6398 118.27 26.944 119.285 29.523 119.285C31.0451 119.285 32.2923 118.883 33.2647 118.08C34.2371 117.277 34.7233 116.325 34.7233 115.226C34.7233 114.296 34.3217 113.387 33.5184 112.499C32.7574 111.569 31.8061 110.681 30.6646 109.835C29.523 108.948 28.3815 107.996 27.24 106.982C26.0984 105.967 25.126 104.677 24.3227 103.113C23.5617 101.549 23.1812 99.7942 23.1812 97.8494C23.1812 94.5093 24.2804 91.5498 26.4789 88.9708C28.6774 86.3495 31.5313 84.6372 35.0404 83.8339L36.3722 77.2383H42.5872L41.3823 83.5168C44.8492 83.8973 47.8298 85.0177 50.3243 86.8779L45.0606 95.3126C43.2426 93.9174 41.1498 93.2198 38.7821 93.2198C37.2178 93.2198 35.9706 93.6214 35.0404 94.4248C34.1103 95.2281 33.6452 96.2005 33.6452 97.342C33.6452 99.0332 34.9982 100.851 37.704 102.796C38.8033 103.515 39.6911 104.149 40.3676 104.699C41.0441 105.248 41.8051 106.009 42.6507 106.982C43.4962 107.912 44.1304 108.969 44.5532 110.153C45.0183 111.336 45.2508 112.647 45.2508 114.084C45.2508 117.509 44.0882 120.638 41.7628 123.47C39.3952 126.345 36.3088 128.121 32.5037 128.798L31.2987 135.203H25.0837L26.2887 128.861C22.2722 128.311 19.0378 126.789 16.5856 124.295ZM72.502 128.924H47.3882C47.3882 125.796 47.8533 122.836 48.7834 120.046C49.4599 118.186 50.7071 116.008 52.5251 113.514C53.2016 112.626 54.0049 111.738 54.935 110.85C56.1611 109.709 56.9856 108.969 57.4084 108.631C57.7466 108.292 58.6344 107.574 60.0719 106.474L62.5453 104.508C66.0544 101.38 67.809 98.6104 67.809 96.2005C67.809 94.0442 66.752 92.9661 64.6381 92.9661C62.6932 92.9661 61.0444 94.0231 59.6914 96.1371L53.2227 89.7952C54.7871 87.7235 56.753 86.0535 59.1207 84.7851C61.4883 83.4745 63.8982 82.8192 66.3504 82.8192C69.6904 82.8192 72.5654 83.8973 74.9753 86.0535C77.4275 88.1252 78.6536 91.0424 78.6536 94.8053C78.6536 97.2152 78.0617 99.5194 76.8779 101.718C75.694 103.959 74.32 105.84 72.7556 107.362C70.9376 109.096 68.8237 110.914 66.4138 112.816C66.3715 112.858 66.0756 113.112 65.5259 113.577C65.0186 114 64.6804 114.275 64.5112 114.402C64.1307 114.613 63.5388 115.12 62.7355 115.924C61.1289 117.361 60.2411 118.629 60.0719 119.729H74.2777L72.502 128.924Z"></path>
  </mask>
  <path d="M16.5856 124.295L22.6104 116.241C24.6398 118.27 26.944 119.285 29.523 119.285C31.0451 119.285 32.2923 118.883 33.2647 118.08C34.2371 117.277 34.7233 116.325 34.7233 115.226C34.7233 114.296 34.3217 113.387 33.5184 112.499C32.7574 111.569 31.8061 110.681 30.6646 109.835C29.523 108.948 28.3815 107.996 27.24 106.982C26.0984 105.967 25.126 104.677 24.3227 103.113C23.5617 101.549 23.1812 99.7942 23.1812 97.8494C23.1812 94.5093 24.2804 91.5498 26.4789 88.9708C28.6774 86.3495 31.5313 84.6372 35.0404 83.8339L36.3722 77.2383H42.5872L41.3823 83.5168C44.8492 83.8973 47.8298 85.0177 50.3243 86.8779L45.0606 95.3126C43.2426 93.9174 41.1498 93.2198 38.7821 93.2198C37.2178 93.2198 35.9706 93.6214 35.0404 94.4248C34.1103 95.2281 33.6452 96.2005 33.6452 97.342C33.6452 99.0332 34.9982 100.851 37.704 102.796C38.8033 103.515 39.6911 104.149 40.3676 104.699C41.0441 105.248 41.8051 106.009 42.6507 106.982C43.4962 107.912 44.1304 108.969 44.5532 110.153C45.0183 111.336 45.2508 112.647 45.2508 114.084C45.2508 117.509 44.0882 120.638 41.7628 123.47C39.3952 126.345 36.3088 128.121 32.5037 128.798L31.2987 135.203H25.0837L26.2887 128.861C22.2722 128.311 19.0378 126.789 16.5856 124.295ZM72.502 128.924H47.3882C47.3882 125.796 47.8533 122.836 48.7834 120.046C49.4599 118.186 50.7071 116.008 52.5251 113.514C53.2016 112.626 54.0049 111.738 54.935 110.85C56.1611 109.709 56.9856 108.969 57.4084 108.631C57.7466 108.292 58.6344 107.574 60.0719 106.474L62.5453 104.508C66.0544 101.38 67.809 98.6104 67.809 96.2005C67.809 94.0442 66.752 92.9661 64.6381 92.9661C62.6932 92.9661 61.0444 94.0231 59.6914 96.1371L53.2227 89.7952C54.7871 87.7235 56.753 86.0535 59.1207 84.7851C61.4883 83.4745 63.8982 82.8192 66.3504 82.8192C69.6904 82.8192 72.5654 83.8973 74.9753 86.0535C77.4275 88.1252 78.6536 91.0424 78.6536 94.8053C78.6536 97.2152 78.0617 99.5194 76.8779 101.718C75.694 103.959 74.32 105.84 72.7556 107.362C70.9376 109.096 68.8237 110.914 66.4138 112.816C66.3715 112.858 66.0756 113.112 65.5259 113.577C65.0186 114 64.6804 114.275 64.5112 114.402C64.1307 114.613 63.5388 115.12 62.7355 115.924C61.1289 117.361 60.2411 118.629 60.0719 119.729H74.2777L72.502 128.924Z" fill="white"></path>
  <path d="M16.5856 124.295L15.7849 123.696L15.2705 124.384L15.8725 124.996L16.5856 124.295ZM22.6104 116.241L23.3175 115.534L22.5012 114.717L21.8096 115.642L22.6104 116.241ZM33.2647 118.08L33.9016 118.851L33.2647 118.08ZM33.5184 112.499L32.7444 113.132L32.7602 113.152L32.7769 113.17L33.5184 112.499ZM30.6646 109.835L30.0506 110.625L30.0599 110.632L30.0693 110.639L30.6646 109.835ZM27.24 106.982L27.9043 106.234V106.234L27.24 106.982ZM24.3227 103.113L23.4235 103.551L23.4282 103.56L23.4331 103.57L24.3227 103.113ZM26.4789 88.9708L27.24 89.6195L27.2451 89.6134L26.4789 88.9708ZM35.0404 83.8339L35.2636 84.8086L35.8929 84.6646L36.0207 84.0318L35.0404 83.8339ZM36.3722 77.2383V76.2383H35.554L35.392 77.0404L36.3722 77.2383ZM42.5872 77.2383L43.5693 77.4268L43.7974 76.2383H42.5872V77.2383ZM41.3823 83.5168L40.4002 83.3283L40.196 84.3926L41.2732 84.5108L41.3823 83.5168ZM50.3243 86.8779L51.1727 87.4074L51.6599 86.6265L50.9221 86.0763L50.3243 86.8779ZM45.0606 95.3126L44.4517 96.1059L45.3257 96.7766L45.9089 95.842L45.0606 95.3126ZM35.0404 94.4247L35.6941 95.1816H35.6941L35.0404 94.4247ZM37.704 102.796L37.1204 103.608L37.1383 103.621L37.1568 103.633L37.704 102.796ZM40.3676 104.699L40.9982 103.922L40.3676 104.699ZM42.6507 106.982L41.8961 107.638L41.9033 107.646L41.9107 107.654L42.6507 106.982ZM44.5532 110.153L43.6115 110.489L43.6167 110.504L43.6225 110.518L44.5532 110.153ZM41.7628 123.47L42.5347 124.106L42.5357 124.105L41.7628 123.47ZM32.5037 128.798L32.3287 127.813L31.6486 127.934L31.5209 128.613L32.5037 128.798ZM31.2987 135.203V136.203H32.1282L32.2815 135.388L31.2987 135.203ZM25.0837 135.203L24.1013 135.016L23.8758 136.203H25.0837V135.203ZM26.2887 128.861L27.2711 129.048L27.4677 128.013L26.4243 127.87L26.2887 128.861ZM17.3864 124.894L23.4112 116.84L21.8096 115.642L15.7849 123.696L17.3864 124.894ZM21.9033 116.948C24.0971 119.142 26.6477 120.285 29.523 120.285V118.285C27.2403 118.285 25.1825 117.399 23.3175 115.534L21.9033 116.948ZM29.523 120.285C31.2276 120.285 32.7149 119.831 33.9016 118.851L32.6278 117.309C31.8697 117.935 30.8626 118.285 29.523 118.285V120.285ZM33.9016 118.851C35.066 117.889 35.7233 116.67 35.7233 115.226H33.7233C33.7233 115.981 33.4083 116.664 32.6278 117.309L33.9016 118.851ZM35.7233 115.226C35.7233 113.983 35.1803 112.845 34.2599 111.828L32.7769 113.17C33.463 113.928 33.7233 114.609 33.7233 115.226H35.7233ZM34.2924 111.866C33.4706 110.861 32.456 109.918 31.2598 109.032L30.0693 110.639C31.1562 111.444 32.0442 112.276 32.7444 113.132L34.2924 111.866ZM31.2785 109.046C30.1552 108.172 29.0304 107.235 27.9043 106.234L26.5756 107.729C27.7326 108.757 28.8909 109.723 30.0506 110.625L31.2785 109.046ZM27.9043 106.234C26.868 105.313 25.9676 104.127 25.2123 102.656L23.4331 103.57C24.2845 105.228 25.3288 106.621 26.5756 107.729L27.9043 106.234ZM25.2219 102.676C24.5347 101.263 24.1812 99.6607 24.1812 97.8494H22.1812C22.1812 99.9277 22.5887 101.835 23.4235 103.551L25.2219 102.676ZM24.1812 97.8494C24.1812 94.7509 25.1932 92.0205 27.24 89.6195L25.7179 88.322C23.3676 91.0791 22.1812 94.2677 22.1812 97.8494H24.1812ZM27.2451 89.6134C29.296 87.1681 31.9549 85.566 35.2636 84.8086L34.8173 82.8591C31.1076 83.7083 28.0589 85.5308 25.7127 88.3281L27.2451 89.6134ZM36.0207 84.0318L37.3524 77.4363L35.392 77.0404L34.0602 83.6359L36.0207 84.0318ZM36.3722 78.2383H42.5872V76.2383H36.3722V78.2383ZM41.6052 77.0498L40.4002 83.3283L42.3644 83.7052L43.5693 77.4268L41.6052 77.0498ZM41.2732 84.5108C44.5848 84.8743 47.3916 85.9383 49.7265 87.6796L50.9221 86.0763C48.2681 84.0971 45.1135 82.9203 41.4914 82.5227L41.2732 84.5108ZM49.476 86.3485L44.2122 94.7832L45.9089 95.842L51.1727 87.4074L49.476 86.3485ZM45.6694 94.5193C43.6706 92.9853 41.3621 92.2198 38.7821 92.2198V94.2198C40.9375 94.2198 42.8145 94.8495 44.4517 96.1059L45.6694 94.5193ZM38.7821 92.2198C37.0451 92.2198 35.5437 92.6688 34.3868 93.6679L35.6941 95.1816C36.3974 94.5741 37.3905 94.2198 38.7821 94.2198V92.2198ZM34.3868 93.6679C33.2558 94.6447 32.6452 95.8855 32.6452 97.342H34.6452C34.6452 96.5154 34.9648 95.8114 35.6941 95.1816L34.3868 93.6679ZM32.6452 97.342C32.6452 99.5625 34.3868 101.643 37.1204 103.608L38.2877 101.984C35.6096 100.059 34.6452 98.5039 34.6452 97.342H32.6452ZM37.1568 103.633C38.2401 104.341 39.097 104.955 39.737 105.475L40.9982 103.922C40.2853 103.343 39.3665 102.688 38.2513 101.959L37.1568 103.633ZM39.737 105.475C40.3531 105.975 41.0722 106.69 41.8961 107.638L43.4053 106.325C42.538 105.328 41.7351 104.521 40.9982 103.922L39.737 105.475ZM41.9107 107.654C42.6675 108.487 43.2331 109.429 43.6115 110.489L45.495 109.816C45.0278 108.508 44.325 107.337 43.3906 106.309L41.9107 107.654ZM43.6225 110.518C44.0362 111.571 44.2508 112.756 44.2508 114.084H46.2508C46.2508 112.538 46.0004 111.101 45.484 109.787L43.6225 110.518ZM44.2508 114.084C44.2508 117.261 43.1795 120.169 40.9899 122.836L42.5357 124.105C44.9968 121.107 46.2508 117.757 46.2508 114.084H44.2508ZM40.9909 122.835C38.7805 125.519 35.9093 127.176 32.3287 127.813L32.6787 129.782C36.7083 129.066 40.0098 127.172 42.5347 124.106L40.9909 122.835ZM31.5209 128.613L30.316 135.018L32.2815 135.388L33.4865 128.982L31.5209 128.613ZM31.2987 134.203H25.0837V136.203H31.2987V134.203ZM26.0662 135.39L27.2711 129.048L25.3063 128.674L24.1013 135.016L26.0662 135.39ZM26.4243 127.87C22.5907 127.346 19.5719 125.906 17.2988 123.594L15.8725 124.996C18.5038 127.673 21.9537 129.277 26.1531 129.852L26.4243 127.87ZM72.502 128.924V129.924H73.3273L73.4838 129.114L72.502 128.924ZM47.3882 128.924H46.3882V129.924H47.3882V128.924ZM48.7834 120.046L47.8436 119.704L47.839 119.717L47.8348 119.73L48.7834 120.046ZM52.5251 113.514L51.7297 112.908L51.7233 112.916L51.717 112.925L52.5251 113.514ZM54.935 110.85L54.2536 110.118L54.2446 110.127L54.935 110.85ZM57.4084 108.631L58.0331 109.411L58.0763 109.377L58.1155 109.338L57.4084 108.631ZM60.0719 106.474L60.6794 107.269L60.6868 107.263L60.6942 107.257L60.0719 106.474ZM62.5453 104.508L63.1675 105.291L63.1896 105.274L63.2107 105.255L62.5453 104.508ZM59.6914 96.1371L58.9914 96.8511L59.8702 97.7128L60.5337 96.6761L59.6914 96.1371ZM53.2227 89.7952L52.4247 89.1926L51.8951 89.894L52.5227 90.5093L53.2227 89.7952ZM59.1207 84.7851L59.5929 85.6667L59.605 85.66L59.1207 84.7851ZM74.9753 86.0535L74.3085 86.7987L74.3191 86.8082L74.3299 86.8174L74.9753 86.0535ZM76.8778 101.718L75.9974 101.244L75.9937 101.251L76.8778 101.718ZM72.7556 107.362L73.4458 108.086L73.453 108.079L72.7556 107.362ZM66.4138 112.816L65.7941 112.031L65.7481 112.068L65.7067 112.109L66.4138 112.816ZM65.5259 113.577L66.1661 114.345L66.1719 114.341L65.5259 113.577ZM64.5112 114.402L64.9969 115.276L65.0566 115.243L65.1112 115.202L64.5112 114.402ZM62.7355 115.924L63.4023 116.669L63.423 116.65L63.4426 116.631L62.7355 115.924ZM60.0719 119.729L59.0836 119.577L58.9063 120.729H60.0719V119.729ZM74.2777 119.729L75.2596 119.918L75.4893 118.729H74.2777V119.729ZM72.502 127.924H47.3882V129.924H72.502V127.924ZM48.3882 128.924C48.3882 125.896 48.8381 123.044 49.7321 120.362L47.8348 119.73C46.8685 122.628 46.3882 125.695 46.3882 128.924H48.3882ZM49.7232 120.388C50.355 118.65 51.5434 116.559 53.3333 114.103L51.717 112.925C49.8709 115.458 48.5648 117.721 47.8436 119.704L49.7232 120.388ZM53.3206 114.12C53.9608 113.279 54.7278 112.43 55.6255 111.574L54.2446 110.127C53.282 111.046 52.4424 111.972 51.7297 112.908L53.3206 114.12ZM55.6165 111.582C56.8478 110.436 57.6446 109.722 58.0331 109.411L56.7837 107.85C56.3265 108.215 55.4745 108.982 54.2536 110.118L55.6165 111.582ZM58.1155 109.338C58.3966 109.056 59.2241 108.381 60.6794 107.269L59.4645 105.68C58.0448 106.766 57.0966 107.528 56.7013 107.923L58.1155 109.338ZM60.6942 107.257L63.1675 105.291L61.923 103.725L59.4497 105.691L60.6942 107.257ZM63.2107 105.255C66.7519 102.098 68.809 99.0709 68.809 96.2005H66.809C66.809 98.1499 65.357 100.662 61.8798 103.762L63.2107 105.255ZM68.809 96.2005C68.809 94.9731 68.5081 93.868 67.7303 93.0746C66.9489 92.2776 65.8543 91.9661 64.6381 91.9661V93.9661C65.5358 93.9661 66.0266 94.1937 66.3022 94.4748C66.5814 94.7595 66.809 95.2716 66.809 96.2005H68.809ZM64.6381 91.9661C62.2537 91.9661 60.3256 93.2911 58.8492 95.598L60.5337 96.6761C61.7631 94.7551 63.1328 93.9661 64.6381 93.9661V91.9661ZM60.3915 95.423L53.9228 89.0811L52.5227 90.5093L58.9914 96.8511L60.3915 95.423ZM54.0208 90.3978C55.4949 88.4456 57.3482 86.8691 59.5929 85.6666L58.6484 83.9037C56.1579 85.2379 54.0792 87.0015 52.4247 89.1926L54.0208 90.3978ZM59.605 85.66C61.8401 84.4227 64.0847 83.8192 66.3504 83.8192V81.8192C63.7117 81.8192 61.1365 82.5262 58.6363 83.9102L59.605 85.66ZM66.3504 83.8192C69.4533 83.8192 72.0885 84.8124 74.3085 86.7987L75.6421 85.3083C73.0423 82.9821 69.9276 81.8192 66.3504 81.8192V83.8192ZM74.3299 86.8174C76.5176 88.6656 77.6536 91.2806 77.6536 94.8053H79.6536C79.6536 90.8042 78.3374 87.5848 75.6206 85.2896L74.3299 86.8174ZM77.6536 94.8053C77.6536 97.0436 77.1057 99.1855 75.9974 101.244L77.7583 102.192C79.0177 99.8532 79.6536 97.3868 79.6536 94.8053H77.6536ZM75.9937 101.251C74.851 103.414 73.5367 105.207 72.0583 106.645L73.453 108.079C75.1032 106.473 76.5371 104.504 77.762 102.185L75.9937 101.251ZM72.0656 106.638C70.2744 108.346 68.1848 110.144 65.7941 112.031L67.0334 113.601C69.4626 111.683 71.6009 109.845 73.4457 108.086L72.0656 106.638ZM65.7067 112.109C65.7247 112.091 65.7266 112.091 65.676 112.135C65.6375 112.169 65.5823 112.216 65.5093 112.279C65.3638 112.404 65.1543 112.582 64.88 112.814L66.1719 114.341C66.6916 113.901 67.0399 113.604 67.1209 113.523L65.7067 112.109ZM64.8857 112.809C64.3745 113.235 64.0562 113.493 63.9112 113.602L65.1112 115.202C65.3045 115.057 65.6627 114.765 66.1661 114.345L64.8857 112.809ZM64.0256 113.527C63.5068 113.816 62.8248 114.42 62.0284 115.217L63.4426 116.631C64.2528 115.821 64.7546 115.41 64.9969 115.276L64.0256 113.527ZM62.0687 115.178C60.4286 116.646 59.3085 118.115 59.0836 119.577L61.0603 119.881C61.1736 119.144 61.8293 118.076 63.4023 116.669L62.0687 115.178ZM60.0719 120.729H74.2777V118.729H60.0719V120.729ZM73.2958 119.539L71.5201 128.735L73.4838 129.114L75.2596 119.918L73.2958 119.539Z" fill="black" mask="url(#path-7-outside-1_615_4385)"></path>
  <g clip-path="url(#clip1_615_4385)">
    <path d="M92.3762 83.4707V83.6366C92.3457 83.6919 92.2234 83.9437 91.9849 84.3062C91.9519 84.351 91.9223 84.3982 91.8962 84.4474C91.465 85.0662 90.9855 85.6495 90.4623 86.192L90.2819 86.3701C90.2269 86.4285 90.1657 86.4899 90.0985 86.5513C89.9558 86.6885 89.806 86.8267 89.649 86.966L89.487 87.1072C89.1232 87.4144 88.7165 87.7461 88.264 88.0624L87.7137 88.4341L87.408 88.6184C87.2429 88.7228 87.0778 88.818 86.9035 88.9255C85.6835 89.6264 84.3906 90.1908 83.0481 90.6086L82.7424 90.7038C82.5498 90.7591 82.3571 90.8144 82.1584 90.8666C81.8527 90.9526 81.5469 91.0263 81.2198 91.1031C80.8926 91.1799 80.5655 91.2413 80.2322 91.3027C79.899 91.3642 79.5932 91.4133 79.263 91.4625C76.2357 91.851 73.17 91.8272 70.1489 91.3918C58.9252 89.9175 52.4466 94.0455 49.1874 97.3134C49.114 97.3902 49.0437 97.4578 48.9673 97.5315C48.8327 97.6789 48.6952 97.8233 48.5729 97.9615C48.4506 98.0997 48.3191 98.2379 48.206 98.373C47.9797 98.6372 47.781 98.8921 47.5945 99.1255C47.5639 99.1655 47.5334 99.2023 47.5058 99.2422C47.4172 99.359 47.3346 99.4695 47.2643 99.574C47.194 99.6784 47.1665 99.7122 47.1298 99.7767C47.0801 99.8337 47.0361 99.8954 46.9983 99.9609C46.9372 100.059 46.876 100.145 46.824 100.228C46.7721 100.311 46.7354 100.366 46.7017 100.428C46.6834 100.47 46.6597 100.509 46.6314 100.545C46.5933 100.605 46.5596 100.669 46.5305 100.735C46.5305 100.735 46.5305 100.735 46.5305 100.753C46.5143 100.773 46.5019 100.796 46.4938 100.821V100.882C45.9527 101.103 36.0436 104.995 24.6548 92.1689C12.9817 79.0295 1.20152 83.5537 0.617554 83.7871V83.5782C0.923294 82.964 4.24668 76.9502 14.2199 75.737C17.0747 75.4188 19.958 75.4621 22.802 75.866C40.0916 78.148 46.1086 67.1279 46.451 66.4615C46.451 66.4277 46.4755 66.3785 46.4877 66.3785C47.2368 66.0714 57.0419 62.4072 68.3084 75.0951C69.3538 76.2737 70.4774 77.3799 71.6715 78.406C82.4489 87.6417 92.3762 83.4707 92.3762 83.4707Z" stroke="black" stroke-linecap="round" stroke-linejoin="round"></path>
    <path d="M0.629547 137.18H0.623779V137.174L0.629547 137.18Z" stroke="black" stroke-linecap="round" stroke-linejoin="round"></path>
    <path d="M0.623779 137.174L0.629547 137.18H0.623779V137.174Z" stroke="black" stroke-linecap="round" stroke-linejoin="round"></path>
    <path d="M46.5027 119.977H46.4969V119.983H46.5027V119.977Z" stroke="black" stroke-linecap="round" stroke-linejoin="round"></path>
    <path d="M92.3763 83.6489V137.189L46.5153 154.389V119.989V100.839C46.5297 100.818 46.542 100.795 46.5519 100.772C46.5519 100.772 46.5519 100.756 46.5519 100.753L46.6528 100.563C46.6812 100.527 46.7048 100.488 46.7232 100.446C46.766 100.385 46.7996 100.323 46.8455 100.247C46.8913 100.17 46.9586 100.078 47.0197 99.9794C47.0809 99.8811 47.0992 99.8565 47.1512 99.7951C47.2032 99.7337 47.2399 99.663 47.2857 99.5924C47.3316 99.5217 47.4417 99.3774 47.5273 99.2607C47.5548 99.2207 47.5854 99.1839 47.6159 99.144C47.7933 98.9105 47.992 98.6556 48.2274 98.3915C48.3436 98.2563 48.4628 98.1181 48.5943 97.9799C48.7258 97.8417 48.8542 97.6973 48.9887 97.5499C49.0651 97.4762 49.1354 97.4086 49.2088 97.3318C52.468 94.0639 58.9466 89.936 70.1704 91.4102C73.1914 91.8457 76.2571 91.8694 79.2845 91.4809C79.6147 91.4317 79.9357 91.3764 80.2537 91.3212C80.5716 91.2659 80.9171 91.1891 81.2412 91.1215C81.5653 91.0539 81.871 90.971 82.1798 90.885C82.3786 90.8328 82.5712 90.7775 82.7638 90.7222L83.0695 90.627C84.412 90.2092 85.7049 89.6448 86.9249 88.9439C87.0992 88.8456 87.2643 88.7504 87.4294 88.6368L87.7351 88.4525L88.2855 88.0809C88.7288 87.7737 89.1354 87.4389 89.5084 87.1257L89.6705 86.9844C89.8254 86.8451 89.9752 86.7069 90.1199 86.5697C90.1872 86.5083 90.2483 86.4469 90.3033 86.3885L90.4837 86.2104C91.0069 85.6679 91.4864 85.0846 91.9176 84.4659C91.9437 84.4166 91.9733 84.3694 92.0063 84.3246C92.2448 83.9499 92.3671 83.7103 92.3977 83.655L92.3763 83.6489Z" stroke="black" stroke-linecap="round" stroke-linejoin="round"></path>
    <path d="M46.5153 100.889V119.974V154.373L0.654297 137.174V83.7933C1.23826 83.5598 13.0184 79.0357 24.6916 92.175C36.0498 105.001 45.9588 101.11 46.5153 100.889Z" stroke="black" stroke-linecap="round" stroke-linejoin="round"></path>
    <path d="M46.5027 119.977H46.4969V119.983H46.5027V119.977Z" stroke="black" stroke-linecap="round" stroke-linejoin="round"></path>
    <path d="M48.6554 53.703C48.8511 51.9062 47.0472 51.0585 47.0472 51.0585L50.3187 49.5689L51.19 53.703H48.6554Z" fill="#69ADF8" stroke="black" stroke-linecap="round" stroke-linejoin="round"></path>
    <path d="M50.9516 62.567C50.3688 62.5933 49.7883 62.477 49.26 62.2283C48.7317 61.9795 48.2714 61.6056 47.9187 61.1388C47.9187 61.1388 51.0464 59.6031 53.6177 55.0329C54.1176 55.8072 54.4103 56.6979 54.4677 57.619C54.6511 60.202 53.0765 62.4165 50.9516 62.567Z" fill="#F25453" stroke="black" stroke-linecap="round" stroke-linejoin="round"></path>
    <path d="M53.6176 55.0329C51.0464 59.597 47.9186 61.1388 47.9186 61.1388C47.2422 60.2886 46.8439 59.2491 46.7782 58.1626C46.5978 55.5796 48.1724 53.3621 50.2973 53.2147C51.6181 53.1195 52.838 53.8566 53.6176 55.0329Z" fill="#69ADF8" stroke="black" stroke-linecap="round" stroke-linejoin="round"></path>
    <path d="M52.8044 51.12C51.5815 52.37 47.2858 51.9554 44.8552 49.8669C40.6726 46.2519 43.5588 42.5293 43.5588 42.5293C42.8128 40.9414 42.1555 39.0249 40.694 34.4086C39.8196 31.6444 39.6515 28.7634 38.9972 27.194C40.1306 28.8485 41.633 30.2144 43.3846 31.1827C45.1362 32.151 47.0887 32.6951 49.0866 32.7716C48.922 33.2035 48.8519 33.666 48.8809 34.1275C48.9099 34.5891 49.0374 35.039 49.2548 35.4468C50.6031 37.9192 52.6699 41.0367 53.6054 43.6258C53.6177 43.6258 54.862 49.0069 52.8044 51.12Z" fill="white" stroke="black" stroke-linecap="round" stroke-linejoin="round"></path>
    <path d="M46.4388 46.3593C46.4388 46.3593 48.0562 42.9962 51.1931 45.3949C51.1931 45.3949 53.1193 53.7398 53.3547 57.6282C53.3547 57.6282 53.743 58.6018 54.4798 62.9447C54.817 64.8095 54.9584 66.7047 54.9017 68.5991C54.9017 68.5991 54.8681 74.4102 54.596 75.6203C54.3239 76.8304 53.2477 73.4888 52.9022 71.9592C52.5567 70.4297 52.4528 69.2349 52.8533 68.5623C52.8533 68.5623 49.9212 60.5122 50.2147 58.5312C50.6428 55.6994 47.7382 51.2489 46.4388 46.3593Z" fill="#69ADF8" stroke="black" stroke-linecap="round" stroke-linejoin="round"></path>
    <path d="M49.0989 32.7715C47.101 32.6951 45.1485 32.151 43.3968 31.1827C41.6452 30.2143 40.1429 28.8485 39.0094 27.1939C36.163 20.3663 36.2578 17.3072 36.2578 17.3072C35.4867 15.9271 34.7996 14.5014 34.2001 13.0379C33.7843 11.9538 31.6136 7.07642 31.6136 7.07642C31.6136 7.07642 26.6698 -0.663443 30.0849 0.820031C30.0849 0.820031 30.8829 1.69845 31.7695 2.59222C32.6562 3.48599 33.7874 4.60396 33.0383 5.80179C33.0383 5.80179 39.8747 12.4237 39.3794 15.5381C39.3794 15.5381 43.9655 22.4916 44.7084 23.7356C44.7145 23.7294 51.7129 27.0342 49.0989 32.7715Z" fill="#69ADF8" stroke="black" stroke-linecap="round" stroke-linejoin="round"></path>
    <path d="M64.4103 65.7397C64.4103 65.7397 68.2871 59.5663 72.1302 61.5197C72.4545 61.655 72.732 61.8832 72.9283 62.1757C73.1246 62.4682 73.231 62.8122 73.2342 63.165C73.2375 63.5177 73.1375 63.8637 72.9466 64.1598C72.7558 64.4559 72.4825 64.6892 72.1608 64.8306C70.8645 65.3097 68.4216 62.9663 64.4103 65.7397Z" fill="#69ADF8" stroke="black" stroke-linecap="round" stroke-linejoin="round"></path>
    <path d="M42.3113 64.1917C42.3113 64.1917 38.4131 56.5133 33.6772 58.3838C31.4942 59.2499 32.017 61.6701 33.2828 62.2752C34.7565 62.9847 37.8873 60.4876 42.3113 64.1917Z" fill="#69ADF8" stroke="black" stroke-linecap="round" stroke-linejoin="round"></path>
    <path d="M58.1334 70.2577C58.1334 70.2577 60.5488 58.8721 70.6871 57.8985" stroke="black" stroke-linecap="round" stroke-linejoin="round"></path>
    <path d="M35.8328 66.2803C35.8328 66.2803 45.6348 65.7827 49.6797 75.8691" stroke="black" stroke-linecap="round" stroke-linejoin="round"></path>
  </g>
  <defs>
    <clipPath id="clip0_615_4385">
      <rect width="93" height="89.322" fill="white" transform="translate(0 65.678)"></rect>
    </clipPath>
    <clipPath id="clip1_615_4385">
      <rect width="93" height="155" fill="white"></rect>
    </clipPath>
  </defs>
</svg>
