<?xml version="1.0" encoding="UTF-8"?>
<svg xmlns="http://www.w3.org/2000/svg" width="340" height="194" viewBox="0 0 340 194" fill="none">
  <path d="M294.602 128.069C303.086 119.258 319.517 116.064 307.377 81.1621C293.968 42.4364 233.46 73.5137 233.46 73.5137C199.793 88.1561 168.111 106.94 139.161 129.424C126.633 133.23 114.355 137.805 102.398 143.123C93.6701 147.189 52.7617 163.89 52.7617 163.89C52.7617 163.89 -21.3018 181.8 7.75803 192.402C7.75803 192.402 17.5098 191.675 27.9928 191.433C38.4758 191.191 51.689 190.949 53.9807 179.574C53.9807 179.574 133.018 179.09 147.84 157.742C147.84 157.694 280.121 143.172 294.602 128.069Z" fill="#69ADF8" stroke="black" stroke-width="1.92" stroke-linecap="round" stroke-linejoin="round"></path>
  <path d="M259.788 62.1866C259.788 62.1866 206.154 90.892 196.402 92.1506C154.421 97.6206 129.799 72.0616 133.407 60.9764C139.502 42.2913 167.538 -6.01895 245.551 2.88795C314.885 10.8751 388.607 78.4029 294.309 127.972C294.601 128.069 332.779 54.1994 259.788 62.1866Z" fill="#F25453" stroke="black" stroke-width="1.92" stroke-linecap="round" stroke-linejoin="round"></path>
  <path d="M135.65 94.7646C137.552 92.0553 140.328 90.0705 143.519 89.1377C146.71 88.2049 150.126 88.3798 153.203 89.6334C155.348 61.7026 133.7 60.8796 133.7 60.8796C133.7 60.8796 131.213 67.221 122.876 83.631C120.779 87.5036 135.65 94.7646 135.65 94.7646Z" fill="#69ADF8" stroke="black" stroke-width="1.92" stroke-linecap="round" stroke-linejoin="round"></path>
  <path d="M96.1553 129.811C99.1465 131.893 102.582 133.261 106.194 133.807C109.805 134.353 113.495 134.062 116.975 132.958C113.826 129.859 111.339 126.16 109.664 122.085C107.988 118.009 107.158 113.64 107.223 109.238C106.944 102.047 109.239 94.9893 113.702 89.3181C118.164 83.6468 124.506 79.7283 131.603 78.2576C127.992 76.3296 123.968 75.2924 119.869 75.2334C115.77 75.1744 111.717 76.0954 108.052 77.9188C102.455 80.5016 97.6192 84.4687 94.0096 89.4397C83.4778 103.381 84.5508 121.437 96.1553 129.811Z" fill="#CFFF5E" stroke="black" stroke-width="1.92" stroke-linecap="round" stroke-linejoin="round"></path>
  <path d="M107.078 109.287C107.013 113.688 107.843 118.057 109.518 122.133C111.194 126.209 113.681 129.907 116.83 133.006L118.341 132.522C125.222 130.164 131.189 125.73 135.406 119.839C145.646 105.946 144.524 87.8422 132.92 79.4678C132.349 79.0359 131.746 78.6476 131.116 78.306C124.083 79.846 117.82 83.7941 113.425 89.4585C109.03 95.1229 106.783 102.142 107.078 109.287Z" fill="#69ADF8" stroke="black" stroke-width="1.92" stroke-linecap="round" stroke-linejoin="round"></path>
  <path d="M183.773 63.2031C179.966 61.763 176.008 60.7561 171.973 60.2017C164.708 59.1851 155.834 59.7178 150.959 66.3979C150.959 66.3979 155.006 106.673 164.416 154.644L147.838 157.742C143.859 162.393 138.854 166.07 133.211 168.488C133.211 168.488 165.196 184.898 182.749 174.685C188.99 171.054 194.353 165.729 194.207 150.481C194.158 136.056 183.773 63.2031 183.773 63.2031Z" fill="#69ADF8" stroke="black" stroke-width="1.92" stroke-linecap="round" stroke-linejoin="round"></path>
</svg>
