<?xml version="1.0" encoding="UTF-8"?>
<svg xmlns="http://www.w3.org/2000/svg" width="64" height="64" viewBox="0 0 64 64" fill="none">
  <rect x="9" y="24" width="8" height="5" rx="2" transform="rotate(-90 9 24)" fill="#CFFF5E" stroke="black" stroke-width="2"></rect>
  <rect x="9" y="32" width="5" height="5" rx="2" transform="rotate(-90 9 32)" fill="#CFFF5E" stroke="black" stroke-width="2"></rect>
  <rect x="12" y="5" width="41" height="54" rx="3" fill="#69ADF8" stroke="black" stroke-width="2"></rect>
  <rect x="18" y="11" width="29" height="22" rx="3" fill="#545DEC" stroke="black" stroke-width="2"></rect>
  <mask id="path-5-outside-1_96_681" maskUnits="userSpaceOnUse" x="16" y="38" width="15" height="15" fill="black">
    <rect fill="white" x="16" y="38" width="15" height="15"></rect>
    <path fill-rule="evenodd" clip-rule="evenodd" d="M25 41C25 40.4477 24.5523 40 24 40H23C22.4477 40 22 40.4477 22 41V43C22 43.5523 21.5523 44 21 44H19C18.4477 44 18 44.4477 18 45V46C18 46.5523 18.4477 47 19 47H21C21.5523 47 22 47.4477 22 48V50C22 50.5523 22.4477 51 23 51H24C24.5523 51 25 50.5523 25 50V48C25 47.4477 25.4477 47 26 47H28C28.5523 47 29 46.5523 29 46V45C29 44.4477 28.5523 44 28 44H26C25.4477 44 25 43.5523 25 43V41Z"></path>
  </mask>
  <path fill-rule="evenodd" clip-rule="evenodd" d="M25 41C25 40.4477 24.5523 40 24 40H23C22.4477 40 22 40.4477 22 41V43C22 43.5523 21.5523 44 21 44H19C18.4477 44 18 44.4477 18 45V46C18 46.5523 18.4477 47 19 47H21C21.5523 47 22 47.4477 22 48V50C22 50.5523 22.4477 51 23 51H24C24.5523 51 25 50.5523 25 50V48C25 47.4477 25.4477 47 26 47H28C28.5523 47 29 46.5523 29 46V45C29 44.4477 28.5523 44 28 44H26C25.4477 44 25 43.5523 25 43V41Z" fill="#CFFF5E"></path>
  <path d="M23 42H24V38H23V42ZM24 43V41H20V43H24ZM19 46H21V42H19V46ZM20 46V45H16V46H20ZM21 45H19V49H21V45ZM24 50V48H20V50H24ZM24 49H23V53H24V49ZM23 48V50H27V48H23ZM28 45H26V49H28V45ZM27 45V46H31V45H27ZM26 46H28V42H26V46ZM23 41V43H27V41H23ZM26 42C26.5523 42 27 42.4477 27 43H23C23 44.6569 24.3431 46 26 46V42ZM31 45C31 43.3431 29.6569 42 28 42V46C27.4477 46 27 45.5523 27 45H31ZM28 49C29.6569 49 31 47.6569 31 46H27C27 45.4477 27.4477 45 28 45V49ZM27 48C27 48.5523 26.5523 49 26 49V45C24.3431 45 23 46.3431 23 48H27ZM24 53C25.6569 53 27 51.6569 27 50H23C23 49.4477 23.4477 49 24 49V53ZM20 50C20 51.6569 21.3431 53 23 53V49C23.5523 49 24 49.4477 24 50H20ZM21 49C20.4477 49 20 48.5523 20 48H24C24 46.3431 22.6569 45 21 45V49ZM16 46C16 47.6569 17.3431 49 19 49V45C19.5523 45 20 45.4477 20 46H16ZM19 42C17.3431 42 16 43.3431 16 45H20C20 45.5523 19.5523 46 19 46V42ZM20 43C20 42.4477 20.4477 42 21 42V46C22.6569 46 24 44.6569 24 43H20ZM24 42C23.4477 42 23 41.5523 23 41H27C27 39.3431 25.6569 38 24 38V42ZM23 38C21.3431 38 20 39.3431 20 41H24C24 41.5523 23.5523 42 23 42V38Z" fill="black" mask="url(#path-5-outside-1_96_681)"></path>
  <circle cx="41" cy="41" r="2" fill="#F25453" stroke="black" stroke-width="2"></circle>
  <circle cx="46" cy="46" r="2" fill="#F25453" stroke="black" stroke-width="2"></circle>
  <circle cx="41" cy="51" r="2" fill="#F25453" stroke="black" stroke-width="2"></circle>
  <circle cx="36" cy="46" r="2" fill="#F25453" stroke="black" stroke-width="2"></circle>
</svg>
