<?xml version="1.0" encoding="UTF-8"?>
<svg xmlns="http://www.w3.org/2000/svg" width="64" height="64" viewBox="0 0 64 64" fill="none">
  <path d="M21.1163 18.8458C22.257 17.7051 24.0955 17.6707 25.278 18.7678L58.5693 49.6546C59.8162 50.8114 59.8529 52.7724 58.6502 53.9751L54.9749 57.6505C53.7721 58.8532 51.8111 58.8165 50.6543 57.5696L19.7676 24.2783C18.6704 23.0957 18.7048 21.2572 19.8455 20.1166L21.1163 18.8458Z" fill="#69ADF8" stroke="black" stroke-width="2"></path>
  <mask id="path-2-inside-1_96_732" fill="white">
    <path fill-rule="evenodd" clip-rule="evenodd" d="M3.41421 22.5061C2.63317 23.2871 2.63316 24.5535 3.41421 25.3345L9.77817 31.6985C10.5592 32.4795 11.8256 32.4795 12.6066 31.6985L14.7279 29.5771C15.509 28.7961 15.509 27.5298 14.7279 26.7487L13.9448 25.9656C14.1793 25.7168 14.4549 25.471 14.7279 25.3345C15.0631 25.1669 15.4964 25.113 15.9226 25.115L16.1421 25.3345C16.9232 26.1156 18.1895 26.1156 18.9706 25.3345L26.0416 18.2634C26.8227 17.4824 26.8227 16.2161 26.0416 15.435L24.2739 13.6672L24.2135 13.5827C23.3937 12.4349 23.9875 10.822 25.3559 10.4799L29.2779 9.49941C30.032 9.31089 30.2921 8.37179 29.7425 7.82216L29.5772 7.65683C26.453 4.53264 21.3876 4.53264 18.2635 7.65683L16.8492 9.07105L14.0208 11.8995L9.77817 16.1421C8.99713 16.9232 8.99713 18.1895 9.77817 18.9705L10.1876 19.38C10.1582 19.7354 10.0427 20.0891 9.77817 20.3848C9.56338 20.6248 9.31461 20.8802 9.08617 21.107L8.36396 20.3848C7.58291 19.6037 6.31658 19.6037 5.53553 20.3848L3.41421 22.5061Z"></path>
  </mask>
  <path fill-rule="evenodd" clip-rule="evenodd" d="M3.41421 22.5061C2.63317 23.2871 2.63316 24.5535 3.41421 25.3345L9.77817 31.6985C10.5592 32.4795 11.8256 32.4795 12.6066 31.6985L14.7279 29.5771C15.509 28.7961 15.509 27.5298 14.7279 26.7487L13.9448 25.9656C14.1793 25.7168 14.4549 25.471 14.7279 25.3345C15.0631 25.1669 15.4964 25.113 15.9226 25.115L16.1421 25.3345C16.9232 26.1156 18.1895 26.1156 18.9706 25.3345L26.0416 18.2634C26.8227 17.4824 26.8227 16.2161 26.0416 15.435L24.2739 13.6672L24.2135 13.5827C23.3937 12.4349 23.9875 10.822 25.3559 10.4799L29.2779 9.49941C30.032 9.31089 30.2921 8.37179 29.7425 7.82216L29.5772 7.65683C26.453 4.53264 21.3876 4.53264 18.2635 7.65683L16.8492 9.07105L14.0208 11.8995L9.77817 16.1421C8.99713 16.9232 8.99713 18.1895 9.77817 18.9705L10.1876 19.38C10.1582 19.7354 10.0427 20.0891 9.77817 20.3848C9.56338 20.6248 9.31461 20.8802 9.08617 21.107L8.36396 20.3848C7.58291 19.6037 6.31658 19.6037 5.53553 20.3848L3.41421 22.5061Z" fill="#545DEC"></path>
  <path d="M13.9448 25.9656L12.4893 24.594L11.1577 26.0069L12.5306 27.3798L13.9448 25.9656ZM14.7279 25.3345L13.8335 23.5456L13.8335 23.5456L14.7279 25.3345ZM15.9226 25.115L17.3369 23.7008L16.7549 23.1188L15.9319 23.115L15.9226 25.115ZM24.2739 13.6672L22.6464 14.8297L22.7426 14.9644L22.8596 15.0815L24.2739 13.6672ZM24.2135 13.5827L22.586 14.7452L22.586 14.7452L24.2135 13.5827ZM25.3559 10.4799L24.8708 8.53964L24.8708 8.53964L25.3559 10.4799ZM29.2779 9.49941L29.763 11.4397L29.2779 9.49941ZM10.1876 19.38L12.1808 19.5447L12.2571 18.6211L11.6018 17.9657L10.1876 19.38ZM9.77817 20.3848L8.28769 19.0512L9.77817 20.3848ZM9.08617 21.107L7.67195 22.5212L9.08089 23.9301L10.4951 22.5264L9.08617 21.107ZM4.82843 23.9203L2 21.0919C0.437903 22.654 0.437903 25.1866 2 26.7487L4.82843 23.9203ZM11.1924 30.2842L4.82843 23.9203L2 26.7487L8.36396 33.1127L11.1924 30.2842ZM11.1924 30.2842L11.1924 30.2842L8.36396 33.1127C9.92606 34.6748 12.4587 34.6748 14.0208 33.1127L11.1924 30.2842ZM13.3137 28.1629L11.1924 30.2842L14.0208 33.1127L16.1421 30.9914L13.3137 28.1629ZM13.3137 28.1629L13.3137 28.1629L16.1421 30.9914C17.7042 29.4293 17.7042 26.8966 16.1421 25.3345L13.3137 28.1629ZM12.5306 27.3798L13.3137 28.1629L16.1421 25.3345L15.359 24.5514L12.5306 27.3798ZM13.8335 23.5456C13.2423 23.8413 12.7732 24.2927 12.4893 24.594L15.4003 27.3373C15.4776 27.2553 15.5447 27.1921 15.5977 27.1482C15.6555 27.1003 15.664 27.1025 15.6224 27.1234L13.8335 23.5456ZM15.9319 23.115C15.3879 23.1125 14.5834 23.1707 13.8335 23.5456L15.6223 27.1234C15.5652 27.1519 15.5549 27.1449 15.6223 27.1336C15.6859 27.1229 15.7827 27.1144 15.9134 27.115L15.9319 23.115ZM17.5563 23.9203L17.3369 23.7008L14.5084 26.5292L14.7279 26.7487L17.5563 23.9203ZM17.5563 23.9203L14.7279 26.7487C16.29 28.3108 18.8227 28.3108 20.3848 26.7487L17.5563 23.9203ZM24.6274 16.8492L17.5563 23.9203L20.3848 26.7487L27.4558 19.6776L24.6274 16.8492ZM24.6274 16.8492L24.6274 16.8492L27.4558 19.6776C29.0179 18.1156 29.0179 15.5829 27.4558 14.0208L24.6274 16.8492ZM22.8596 15.0815L24.6274 16.8492L27.4558 14.0208L25.6881 12.253L22.8596 15.0815ZM22.586 14.7452L22.6464 14.8297L25.9013 12.5048L25.8409 12.4202L22.586 14.7452ZM24.8708 8.53964C22.1341 9.22381 20.9464 12.4497 22.586 14.7452L25.8409 12.4202L24.8708 8.53964ZM28.7929 7.55913L24.8708 8.53964L25.8409 12.4202L29.763 11.4397L28.7929 7.55913ZM28.3283 9.23637C27.7786 8.68675 28.0388 7.74765 28.7929 7.55913L29.763 11.4397C32.0253 10.8741 32.8056 8.05684 31.1567 6.40795L28.3283 9.23637ZM28.163 9.07105L28.3283 9.23637L31.1567 6.40795L30.9914 6.24262L28.163 9.07105ZM19.6777 9.07105C22.0208 6.7279 25.8198 6.7279 28.163 9.07105L30.9914 6.24262C27.0861 2.33738 20.7545 2.33738 16.8492 6.24262L19.6777 9.07105ZM18.2635 10.4853L19.6777 9.07105L16.8492 6.24262L15.435 7.65683L18.2635 10.4853ZM15.435 13.3137L18.2635 10.4853L15.435 7.65683L12.6066 10.4853L15.435 13.3137ZM11.1924 17.5563L15.435 13.3137L12.6066 10.4853L8.36396 14.7279L11.1924 17.5563ZM11.1924 17.5563L8.36396 14.7279C6.80186 16.29 6.80186 18.8227 8.36396 20.3848L11.1924 17.5563ZM11.6018 17.9657L11.1924 17.5563L8.36396 20.3848L8.77338 20.7942L11.6018 17.9657ZM11.2687 21.7183C11.8899 21.024 12.1247 20.2232 12.1808 19.5447L8.19439 19.2152C8.19281 19.2343 8.19158 19.22 8.20549 19.1839C8.22094 19.144 8.2483 19.0952 8.28769 19.0512L11.2687 21.7183ZM10.4951 22.5264C10.7375 22.2859 11.017 21.9996 11.2687 21.7183L8.28769 19.0512C8.10979 19.25 7.89176 19.4746 7.67725 19.6875L10.4951 22.5264ZM6.94975 21.799L7.67195 22.5212L10.5004 19.6927L9.77817 18.9705L6.94975 21.799ZM6.94975 21.799L6.94975 21.799L9.77817 18.9705C8.21608 17.4084 5.68342 17.4084 4.12132 18.9705L6.94975 21.799ZM4.82843 23.9203L6.94975 21.799L4.12132 18.9705L2 21.0919L4.82843 23.9203Z" fill="black" mask="url(#path-2-inside-1_96_732)"></path>
  <path fill-rule="evenodd" clip-rule="evenodd" d="M61.4647 12.9374C62.3556 16.2736 61.4924 19.9808 58.8751 22.598C56.3867 25.0864 52.9132 25.9892 49.71 25.3065L24.8897 50.1268C24.9623 50.5738 25 51.0325 25 51.5C25 56.1944 21.1944 60 16.5 60C11.8056 60 8 56.1944 8 51.5C8 46.8056 11.8056 43 16.5 43C17.1427 43 17.7687 43.0713 18.3706 43.2065L42.4658 19.1113C41.0965 15.5378 41.8522 11.3367 44.733 8.45591C47.3503 5.83862 51.0574 4.97543 54.3936 5.86636L49.6083 10.6517L51.097 16.2341L56.6794 17.7227L61.4647 12.9374ZM20 51.5C20 53.433 18.433 55 16.5 55C14.567 55 13 53.433 13 51.5C13 49.567 14.567 48 16.5 48C18.433 48 20 49.567 20 51.5Z" fill="#49D9B0"></path>
  <path d="M58.8751 22.598L59.5822 23.3052L58.8751 22.598ZM61.4647 12.9374L62.4308 12.6794L61.9835 11.0044L60.7576 12.2303L61.4647 12.9374ZM49.71 25.3065L49.9185 24.3284L49.3871 24.2152L49.0029 24.5994L49.71 25.3065ZM24.8897 50.1268L24.1825 49.4197L23.8205 49.7818L23.9026 50.2871L24.8897 50.1268ZM18.3706 43.2065L18.1515 44.1822L18.6885 44.3028L19.0777 43.9136L18.3706 43.2065ZM42.4658 19.1113L43.1729 19.8184L43.6318 19.3595L43.3996 18.7534L42.4658 19.1113ZM44.733 8.45591L44.0259 7.7488L44.733 8.45591ZM54.3936 5.86636L55.1007 6.57347L56.3266 5.34753L54.6516 4.90022L54.3936 5.86636ZM49.6083 10.6517L48.9012 9.94456L48.4935 10.3522L48.6421 10.9093L49.6083 10.6517ZM51.097 16.2341L50.1307 16.4917L50.2799 17.0511L50.8393 17.2003L51.097 16.2341ZM56.6794 17.7227L56.4217 18.689L56.9788 18.8375L57.3865 18.4298L56.6794 17.7227ZM59.5822 23.3052C62.4622 20.4252 63.4101 16.3463 62.4308 12.6794L60.4985 13.1954C61.3011 16.2009 60.5227 19.5363 58.168 21.8909L59.5822 23.3052ZM49.5015 26.2845C53.0221 27.0349 56.8443 26.0431 59.5822 23.3052L58.168 21.8909C55.9292 24.1298 52.8044 24.9436 49.9185 24.3284L49.5015 26.2845ZM25.5968 50.8339L50.4171 26.0136L49.0029 24.5994L24.1825 49.4197L25.5968 50.8339ZM26 51.5C26 50.9786 25.9579 50.4663 25.8767 49.9665L23.9026 50.2871C23.9666 50.6813 24 51.0864 24 51.5H26ZM16.5 61C21.7467 61 26 56.7467 26 51.5H24C24 55.6421 20.6421 59 16.5 59V61ZM7 51.5C7 56.7467 11.2533 61 16.5 61V59C12.3579 59 9 55.6421 9 51.5H7ZM16.5 42C11.2533 42 7 46.2533 7 51.5H9C9 47.3579 12.3579 44 16.5 44V42ZM18.5897 42.2308C17.9164 42.0796 17.2169 42 16.5 42V44C17.0685 44 17.621 44.0631 18.1515 44.1822L18.5897 42.2308ZM41.7587 18.4042L17.6635 42.4994L19.0777 43.9136L43.1729 19.8184L41.7587 18.4042ZM44.0259 7.7488C40.856 10.9187 40.0266 15.5404 41.532 19.4691L43.3996 18.7534C42.1664 15.5351 42.8485 11.7546 45.4401 9.16302L44.0259 7.7488ZM54.6516 4.90022C50.9847 3.92098 46.9058 4.86889 44.0259 7.7488L45.4401 9.16302C47.7948 6.80834 51.1301 6.02989 54.1356 6.8325L54.6516 4.90022ZM50.3154 11.3588L55.1007 6.57347L53.6865 5.15925L48.9012 9.94456L50.3154 11.3588ZM52.0632 15.9764L50.5745 10.394L48.6421 10.9093L50.1307 16.4917L52.0632 15.9764ZM56.937 16.7565L51.3546 15.2678L50.8393 17.2003L56.4217 18.689L56.937 16.7565ZM60.7576 12.2303L55.9723 17.0156L57.3865 18.4298L62.1718 13.6445L60.7576 12.2303ZM16.5 56C18.9853 56 21 53.9853 21 51.5H19C19 52.8807 17.8807 54 16.5 54V56ZM12 51.5C12 53.9853 14.0147 56 16.5 56V54C15.1193 54 14 52.8807 14 51.5H12ZM16.5 47C14.0147 47 12 49.0147 12 51.5H14C14 50.1193 15.1193 49 16.5 49V47ZM21 51.5C21 49.0147 18.9853 47 16.5 47V49C17.8807 49 19 50.1193 19 51.5H21Z" fill="black"></path>
</svg>
