<?xml version="1.0" encoding="UTF-8"?>
<svg xmlns="http://www.w3.org/2000/svg" width="64" height="64" viewBox="0 0 64 64" fill="none">
  <rect x="7" y="11" width="6" height="27" fill="#49D9B0" stroke="black" stroke-width="2"></rect>
  <circle cx="10" cy="24" r="7" fill="#49D9B0" stroke="black" stroke-width="2"></circle>
  <circle cx="40" cy="14" r="7" stroke="black" stroke-width="2"></circle>
  <path d="M19.5317 19.2221C19.3891 18.5962 19.8648 18 20.5067 18H59.4933C60.1352 18 60.6109 18.5962 60.4683 19.2221L56.1412 38.2221C56.0376 38.6771 55.6329 39 55.1662 39H24.8338C24.3671 39 23.9624 38.6771 23.8588 38.2221L19.5317 19.2221Z" fill="#545DEC" stroke="black" stroke-width="2"></path>
  <path d="M30 54.2736C30 55.4413 29.3447 56.593 28.0102 57.494C26.6724 58.3972 24.7033 59 22.3023 59C19.147 59 16.0625 57.1329 13.7108 54.7562C12.5476 53.5806 11.6022 52.3174 10.9536 51.1766C10.2849 50.0006 10 49.0744 10 48.5471C10 48.3388 10.1151 48.0159 10.8797 47.6727C11.6321 47.3351 12.761 47.1134 14.1304 47.0334C16.8565 46.8742 20.1822 47.2941 22.4984 48.0645C24.3782 48.6897 26.3127 49.6405 27.7552 50.7814C29.2298 51.9475 30 53.1541 30 54.2736Z" fill="black" stroke="black" stroke-width="2"></path>
  <path d="M34 54.2736C34 55.4413 34.6553 56.593 35.9898 57.494C37.3276 58.3972 39.2967 59 41.6977 59C44.853 59 47.9375 57.1329 50.2892 54.7562C51.4524 53.5806 52.3978 52.3174 53.0464 51.1766C53.7151 50.0006 54 49.0744 54 48.5471C54 48.3388 53.8849 48.0159 53.1203 47.6727C52.3679 47.3351 51.239 47.1134 49.8696 47.0334C47.1435 46.8742 43.8178 47.2941 41.5016 48.0645C39.6218 48.6897 37.6873 49.6405 36.2448 50.7814C34.7702 51.9475 34 53.1541 34 54.2736Z" fill="black" stroke="black" stroke-width="2"></path>
  <path d="M30 55C30 55 30.8117 54.5 32 54.5C33.1883 54.5 34 55 34 55" stroke="black" stroke-width="2"></path>
  <path d="M29 54.5007C29 56.9856 26.5581 59 23.0698 59C18.2495 59 14 52.4862 14 50.0013C14 47.5164 20.0824 47.5979 23.4186 48.8765C26.0887 49.8998 29 52.0158 29 54.5007Z" fill="#69ADF8"></path>
  <path d="M35 54.5007C35 56.9856 37.4419 59 40.9302 59C45.7505 59 50 52.4862 50 50.0013C50 47.5164 43.9176 47.5979 40.5814 48.8765C37.9113 49.8998 35 52.0158 35 54.5007Z" fill="#69ADF8"></path>
  <path d="M24 14C24 13.4477 24.4477 13 25 13H55C55.5523 13 56 13.4477 56 14V38C56 38.5523 55.5523 39 55 39H25C24.4477 39 24 38.5523 24 38V14Z" fill="#545DEC" stroke="black" stroke-width="2"></path>
  <path d="M24 14C24 13.4477 24.4477 13 25 13H55C55.5523 13 56 13.4477 56 14V22C56 23.6569 54.6569 25 53 25H27C25.3431 25 24 23.6569 24 22V14Z" fill="#545DEC" stroke="black" stroke-width="2"></path>
  <rect x="36" y="23" width="8" height="5" rx="1" fill="#CFFF5E" stroke="black" stroke-width="2"></rect>
  <path d="M7 22L10 25L11.5 23.5" stroke="black" stroke-width="2"></path>
</svg>
