<?xml version="1.0" encoding="UTF-8"?>
<svg xmlns="http://www.w3.org/2000/svg" width="64" height="64" viewBox="0 0 64 64" fill="none">
  <path d="M10.1157 7.05547C10.0839 6.48227 10.5401 6 11.1142 6H28.8858C29.4599 6 29.9161 6.48227 29.8843 7.05547L27.1065 57.0555C27.077 57.5854 26.6388 58 26.108 58H13.892C13.3612 58 12.923 57.5854 12.8935 57.0555L10.1157 7.05547Z" fill="#49D9B0" stroke="black" stroke-width="2"></path>
  <rect x="14" y="13" width="12" height="5" fill="white" stroke="black" stroke-width="2"></rect>
  <mask id="path-3-inside-1_96_697" fill="white">
    <path d="M13 46H27V55H13V46Z"></path>
  </mask>
  <path d="M13 46H27V55H13V46Z" fill="white"></path>
  <path d="M13 48H27V44H13V48ZM27 53H13V57H27V53Z" fill="black" mask="url(#path-3-inside-1_96_697)"></path>
  <rect x="15.5" y="21.5" width="9" height="1" stroke="black"></rect>
  <rect x="10" y="6" width="20" height="4" fill="white"></rect>
  <path d="M17 52C17 50.8954 17.8954 50 19 50H20C21.1046 50 22 50.8954 22 52V54H17V52Z" fill="#49D9B0" stroke="black" stroke-width="2"></path>
  <path d="M10.1157 7.05547C10.0839 6.48227 10.5401 6 11.1142 6H28.8858C29.4599 6 29.9161 6.48227 29.8843 7.05547L27.1065 57.0555C27.077 57.5854 26.6388 58 26.108 58H13.892C13.3612 58 12.923 57.5854 12.8935 57.0555L10.1157 7.05547Z" stroke="black" stroke-width="2"></path>
  <path d="M25.9416 34.5476C25.9324 33.0324 26.3116 31.5295 27.4467 30.338C29.0787 28.9088 30.94 28.7516 33.1383 28.9152C33.6713 28.9549 34.2103 29.012 34.7691 29.0713L34.8338 29.0781C35.4098 29.1392 36.0062 29.2017 36.6043 29.2431C37.7988 29.3257 39.0546 29.3288 40.3039 29.0535C42.2964 28.6144 43.7467 27.4795 44.7163 26.4182C45.0158 26.0904 45.4455 25.8657 45.8679 25.803C46.2819 25.7416 46.6169 25.8408 46.8464 26.0527C48.1422 27.2495 49.7 28.758 50.5953 29.861C51.6291 31.1347 52.0095 32.7304 52.0394 34.3279C52.0693 35.9249 51.7463 37.442 51.4589 38.4557C51.3738 38.7559 51.0772 39 50.657 39H27.4789C27.0859 39 26.8068 38.786 26.7106 38.5194C26.3624 37.5543 25.9508 36.0845 25.9416 34.5476Z" fill="white" stroke="black" stroke-width="2"></path>
  <rect x="26" y="35" width="26" height="12" rx="1" fill="#69ADF8" stroke="black" stroke-width="2"></rect>
  <rect x="24" y="40" width="30" height="18" rx="1" fill="#545DEC" stroke="black" stroke-width="2"></rect>
  <rect x="24" y="44" width="30" height="10" fill="#69ADF8" stroke="black" stroke-width="2"></rect>
  <path d="M46 49C46 49.0255 45.9898 49.1696 45.7079 49.4195C45.4272 49.6683 44.964 49.9381 44.3057 50.185C42.9966 50.6759 41.121 51 39 51C36.879 51 35.0034 50.6759 33.6943 50.185C33.036 49.9381 32.5728 49.6683 32.2921 49.4195C32.0102 49.1696 32 49.0255 32 49C32 48.9745 32.0102 48.8304 32.2921 48.5805C32.5728 48.3317 33.036 48.0619 33.6943 47.815C35.0034 47.3241 36.879 47 39 47C41.121 47 42.9966 47.3241 44.3057 47.815C44.964 48.0619 45.4272 48.3317 45.7079 48.5805C45.9898 48.8304 46 48.9745 46 49Z" fill="white" stroke="black" stroke-width="2"></path>
</svg>
