<?xml version="1.0" encoding="UTF-8"?>
<svg xmlns="http://www.w3.org/2000/svg" width="64" height="64" viewBox="0 0 64 64" fill="none">
  <circle cx="53" cy="14" r="3" fill="#CFFF5E" stroke="black" stroke-width="2"></circle>
  <path d="M25 10.4142L29.5858 15H20.4142L25 10.4142Z" stroke="black" stroke-width="2"></path>
  <path d="M47.095 24L47.9132 15H58.0868L58.905 24H47.095Z" fill="#F25453" stroke="black" stroke-width="2"></path>
  <rect x="52" y="51" width="28" height="2" transform="rotate(-90 52 51)" fill="black"></rect>
  <rect x="47" y="51" width="12" height="4" fill="#69ADF8" stroke="black" stroke-width="2"></rect>
  <rect x="17" y="16" width="16" height="12" fill="#69ADF8" stroke="black" stroke-width="2"></rect>
  <path d="M17 26C17 26 21.1667 22 22.5 20.5L26.9161 24.859M33 25.5L29.5 21.5L24.5 28" stroke="black" stroke-width="2"></path>
  <circle cx="27" cy="19" r="1" fill="black"></circle>
  <rect x="9" y="33" width="32" height="13" rx="1" fill="#49D9B0" stroke="black" stroke-width="2"></rect>
  <rect x="11" y="49" width="4" height="6" fill="#49D9B0" stroke="black" stroke-width="2"></rect>
  <rect x="35" y="49" width="4" height="6" fill="#49D9B0" stroke="black" stroke-width="2"></rect>
  <rect x="24" y="43" width="7" height="2" transform="rotate(-90 24 43)" fill="black"></rect>
  <path d="M42.7507 45.9055L42 46.0988V46.874V51C42 51.5523 41.5523 52 41 52H9C8.44771 52 8 51.5523 8 51V46.874V46.0988L7.24926 45.9055C5.95512 45.5725 5 44.3965 5 43C5 41.3431 6.34315 40 8 40C9.65685 40 11 41.3431 11 43V43.0026V43.0051V43.0077V43.0102V43.0128V43.0154V43.018V43.0205V43.0231V43.0257V43.0283V43.0309V43.0335V43.0361V43.0387V43.0414V43.044V43.0466V43.0492V43.0519V43.0545V43.0571V43.0598V43.0624V43.0651V43.0678V43.0704V43.0731V43.0758V43.0784V43.0811V43.0838V43.0865V43.0892V43.0919V43.0946V43.0973V43.1V43.1027V43.1054V43.1081V43.1108V43.1135V43.1163V43.119V43.1217V43.1245V43.1272V43.13V43.1327V43.1355V43.1382V43.141V43.1437V43.1465V43.1493V43.152V43.1548V43.1576V43.1604V43.1632V43.166V43.1688V43.1715V43.1743V43.1772V43.18V43.1828V43.1856V43.1884V43.1912V43.194V43.1969V43.1997V43.2025V43.2054V43.2082V43.211V43.2139V43.2167V43.2196V43.2224V43.2253V43.2282V43.231V43.2339V43.2368V43.2396V43.2425V43.2454V43.2483V43.2512V43.254V43.2569V43.2598V43.2627V43.2656V43.2685V43.2714V43.2743V43.2772V43.2801V43.2831V43.286V43.2889V43.2918V43.2947V43.2977V43.3006V43.3035V43.3065V43.3094V43.3123V43.3153V43.3182V43.3212V43.3241V43.3271V43.33V43.333V43.3359V43.3389V43.3419V43.3448V43.3478V43.3508V43.3537V43.3567V43.3597V43.3627V43.3657V43.3686V43.3716V43.3746V43.3776V43.3806V43.3836V43.3866V43.3896V43.3926V43.3956V43.3986V43.4016V43.4046V43.4076V43.4106V43.4137V43.4167V43.4197V43.4227V43.4257V43.4288V43.4318V43.4348V43.4378V43.4409V43.4439V43.4469V43.45V43.453V43.456V43.4591V43.4621V43.4652V43.4682V43.4713V43.4743V43.4774V43.4804V43.4835V43.4865V43.4896V43.4926V43.4957V43.4988V43.5018V43.5049V43.508V43.511V43.5141V43.5172V43.5202V43.5233V43.5264V43.5294V43.5325V43.5356V43.5387V43.5418V43.5448V43.5479V43.551V43.5541V43.5572V43.5603V43.5633V43.5664V43.5695V43.5726V43.5757V43.5788V43.5819V43.585V43.5881V43.5912V43.5943V43.5974V43.6005V43.6036V43.6067V43.6098V43.6129V43.616V43.6191V43.6222V43.6253V43.6284V43.6315V43.6346V43.6377V43.6408V43.6439V43.647V43.6501V43.6532V43.6564V43.6595V43.6626V43.6657V43.6688V43.6719V43.675V43.6781V43.6813V43.6844V43.6875V43.6906V43.6937V43.6968V43.6999V43.7031V43.7062V43.7093V43.7124V43.7155V43.7187V43.7218V43.7249V43.728V43.7311V43.7342V43.7374V43.7405V43.7436V43.7467V43.7498V43.753V43.7561V43.7592V43.7623V43.7654V43.7686V43.7717V43.7748V43.7779V43.781V43.7841V43.7873V43.7904V43.7935V43.7966V43.7997V43.8028V43.806V43.8091V43.8122V43.8153V43.8184V43.8215V43.8247V43.8278V43.8309V43.834V43.8371V43.8402V43.8433V43.8464V43.8496V43.8527V43.8558V43.8589V43.862V43.8651V43.8682V43.8713V43.8744V43.8775V43.8806V43.8837V43.8868V43.8899V43.893V43.8961V43.8992V43.9023V43.9054V43.9085V43.9116V43.9147V43.9178V43.9209V43.924V43.9271V43.9302V43.9333V43.9364V43.9395V43.9425V43.9456V43.9487V43.9518V43.9549V43.958V43.961V43.9641V43.9672V43.9703V43.9733V43.9764V43.9795V43.9826V43.9856V43.9887V43.9918V43.9948V43.9979V44.001V44.004V44.0071V44.0101V44.0132V44.0163V44.0193V44.0224V44.0254V44.0285V44.0315V44.0346V44.0376V44.0407V44.0437V44.0467V44.0498V44.0528V44.0558V44.0589V44.0619V44.0649V44.068V44.071V44.074V44.0771V44.0801V44.0831V44.0861V44.0891V44.0921V44.0952V44.0982V44.1012V44.1042V44.1072V44.1102V44.1132V44.1162V44.1192V44.1222V44.1252V44.1282V44.1311V44.1341V44.1371V44.1401V44.1431V44.1461V44.149V44.152V44.155V44.1579V44.1609V44.1639V44.1668V44.1698V44.1727V44.1757V44.1786V44.1816V44.1845V44.1875V44.1904V44.1934V44.1963V44.1992V44.2022V44.2051V44.208V44.211V44.2139V44.2168V44.2197V44.2226V44.2255V44.2284V44.2313V44.2343V44.2372V44.2401V44.2429V44.2458V44.2487V44.2516V44.2545V44.2574V44.2603V44.2631V44.266V44.2689V44.2717V44.2746V44.2775V44.2803V44.2832V44.286V44.2889V44.2917V44.2946V44.2974V44.3002V44.3031V44.3059V44.3087V44.3115V44.3144V44.3172V44.32V44.3228V44.3256V44.3284V44.3312V44.334V44.3368V44.3396V44.3424V44.3452V44.3479V44.3507V44.3535V44.3563V44.359V44.3618V44.3645V44.3673V44.37V44.3728V44.3755V44.3783V44.381V44.3838V44.3865V44.3892V44.3919V44.3947V44.3974V44.4001V44.4028V44.4055V44.4082V44.4109V44.4136V44.4163V44.419V44.4216V44.4243V44.427V44.4297V44.4323V44.435V44.4376V44.4403V44.4429V44.4456V44.4482V44.4509V44.4535V44.4561V44.4587V44.4614V44.464V44.4666V44.4692V44.4718V44.4744V44.477V44.4796V44.4822V44.4848V44.4873V44.4899V44.4925V44.4951V44.4976V44.5002C11 45.329 11.672 46 12.5 46H37.5C38.328 46 39 45.329 39 44.5002V44.4976V44.4951V44.4925V44.4899V44.4873V44.4848V44.4822V44.4796V44.477V44.4744V44.4718V44.4692V44.4666V44.464V44.4614V44.4587V44.4561V44.4535V44.4509V44.4482V44.4456V44.4429V44.4403V44.4376V44.435V44.4323V44.4297V44.427V44.4243V44.4216V44.419V44.4163V44.4136V44.4109V44.4082V44.4055V44.4028V44.4001V44.3974V44.3947V44.3919V44.3892V44.3865V44.3838V44.381V44.3783V44.3755V44.3728V44.37V44.3673V44.3645V44.3618V44.359V44.3563V44.3535V44.3507V44.3479V44.3452V44.3424V44.3396V44.3368V44.334V44.3312V44.3284V44.3256V44.3228V44.32V44.3172V44.3144V44.3115V44.3087V44.3059V44.3031V44.3002V44.2974V44.2946V44.2917V44.2889V44.286V44.2832V44.2803V44.2775V44.2746V44.2717V44.2689V44.266V44.2631V44.2603V44.2574V44.2545V44.2516V44.2487V44.2458V44.2429V44.2401V44.2372V44.2343V44.2313V44.2284V44.2255V44.2226V44.2197V44.2168V44.2139V44.211V44.208V44.2051V44.2022V44.1992V44.1963V44.1934V44.1904V44.1875V44.1845V44.1816V44.1786V44.1757V44.1727V44.1698V44.1668V44.1639V44.1609V44.1579V44.155V44.152V44.149V44.1461V44.1431V44.1401V44.1371V44.1341V44.1311V44.1282V44.1252V44.1222V44.1192V44.1162V44.1132V44.1102V44.1072V44.1042V44.1012V44.0982V44.0952V44.0921V44.0891V44.0861V44.0831V44.0801V44.0771V44.074V44.071V44.068V44.0649V44.0619V44.0589V44.0558V44.0528V44.0498V44.0467V44.0437V44.0407V44.0376V44.0346V44.0315V44.0285V44.0254V44.0224V44.0193V44.0163V44.0132V44.0101V44.0071V44.004V44.001V43.9979V43.9948V43.9918V43.9887V43.9856V43.9826V43.9795V43.9764V43.9733V43.9703V43.9672V43.9641V43.961V43.958V43.9549V43.9518V43.9487V43.9456V43.9425V43.9395V43.9364V43.9333V43.9302V43.9271V43.924V43.9209V43.9178V43.9147V43.9116V43.9085V43.9054V43.9023V43.8992V43.8961V43.893V43.8899V43.8868V43.8837V43.8806V43.8775V43.8744V43.8713V43.8682V43.8651V43.862V43.8589V43.8558V43.8527V43.8496V43.8464V43.8433V43.8402V43.8371V43.834V43.8309V43.8278V43.8247V43.8215V43.8184V43.8153V43.8122V43.8091V43.806V43.8028V43.7997V43.7966V43.7935V43.7904V43.7873V43.7841V43.781V43.7779V43.7748V43.7717V43.7686V43.7654V43.7623V43.7592V43.7561V43.753V43.7498V43.7467V43.7436V43.7405V43.7374V43.7342V43.7311V43.728V43.7249V43.7218V43.7187V43.7155V43.7124V43.7093V43.7062V43.7031V43.6999V43.6968V43.6937V43.6906V43.6875V43.6844V43.6813V43.6781V43.675V43.6719V43.6688V43.6657V43.6626V43.6595V43.6564V43.6532V43.6501V43.647V43.6439V43.6408V43.6377V43.6346V43.6315V43.6284V43.6253V43.6222V43.6191V43.616V43.6129V43.6098V43.6067V43.6036V43.6005V43.5974V43.5943V43.5912V43.5881V43.585V43.5819V43.5788V43.5757V43.5726V43.5695V43.5664V43.5633V43.5603V43.5572V43.5541V43.551V43.5479V43.5448V43.5418V43.5387V43.5356V43.5325V43.5294V43.5264V43.5233V43.5202V43.5172V43.5141V43.511V43.508V43.5049V43.5018V43.4988V43.4957V43.4926V43.4896V43.4865V43.4835V43.4804V43.4774V43.4743V43.4713V43.4682V43.4652V43.4621V43.4591V43.456V43.453V43.45V43.4469V43.4439V43.4409V43.4378V43.4348V43.4318V43.4288V43.4257V43.4227V43.4197V43.4167V43.4137V43.4106V43.4076V43.4046V43.4016V43.3986V43.3956V43.3926V43.3896V43.3866V43.3836V43.3806V43.3776V43.3746V43.3716V43.3686V43.3657V43.3627V43.3597V43.3567V43.3537V43.3508V43.3478V43.3448V43.3419V43.3389V43.3359V43.333V43.33V43.3271V43.3241V43.3212V43.3182V43.3153V43.3123V43.3094V43.3065V43.3035V43.3006V43.2977V43.2947V43.2918V43.2889V43.286V43.2831V43.2801V43.2772V43.2743V43.2714V43.2685V43.2656V43.2627V43.2598V43.2569V43.254V43.2512V43.2483V43.2454V43.2425V43.2396V43.2368V43.2339V43.231V43.2282V43.2253V43.2224V43.2196V43.2167V43.2139V43.211V43.2082V43.2054V43.2025V43.1997V43.1969V43.194V43.1912V43.1884V43.1856V43.1828V43.18V43.1772V43.1743V43.1715V43.1688V43.166V43.1632V43.1604V43.1576V43.1548V43.152V43.1493V43.1465V43.1437V43.141V43.1382V43.1355V43.1327V43.13V43.1272V43.1245V43.1217V43.119V43.1163V43.1135V43.1108V43.1081V43.1054V43.1027V43.1V43.0973V43.0946V43.0919V43.0892V43.0865V43.0838V43.0811V43.0784V43.0758V43.0731V43.0704V43.0678V43.0651V43.0624V43.0598V43.0571V43.0545V43.0519V43.0492V43.0466V43.044V43.0414V43.0387V43.0361V43.0335V43.0309V43.0283V43.0257V43.0231V43.0205V43.018V43.0154V43.0128V43.0102V43.0077V43.0051V43.0026V43C39 41.3431 40.3431 40 42 40C43.6569 40 45 41.3431 45 43C45 44.3965 44.0449 45.5725 42.7507 45.9055Z" fill="#49D9B0" stroke="black" stroke-width="2"></path>
</svg>
