<?xml version="1.0" encoding="UTF-8"?>
<svg xmlns="http://www.w3.org/2000/svg" width="141" height="33" viewBox="0 0 141 33" fill="none">
  <path d="M0 19.6046V0.536113H7.14238C8.60164 0.530303 10.0574 0.679503 11.4848 0.981179C12.7925 1.24655 14.0342 1.76814 15.1376 2.51563C16.2069 3.25948 17.0759 4.25395 17.6678 5.41126C18.2987 6.61398 18.6141 8.13002 18.6141 9.95937C18.6141 11.6292 18.3121 13.0748 17.708 14.2963C17.1427 15.4688 16.3143 16.4962 15.2866 17.2992C14.2454 18.0935 13.0608 18.6817 11.797 19.0318C10.4595 19.4114 9.07491 19.6017 7.6841 19.597L0 19.6046ZM6.20036 5.97761V14.0841H7.38713C8.90205 14.0841 10.0656 13.7574 10.8778 13.1041C11.69 12.4507 12.0958 11.3816 12.0951 9.89657C12.0951 8.66136 11.6893 7.69939 10.8778 7.01068C10.0663 6.32197 8.984 5.97761 7.6308 5.97761H6.20036Z" fill="white"></path>
  <path d="M20.0312 0.53595H35.7269V5.86916H26.0967V7.51189H34.7337V12.4932H26.0967V14.2713H35.7323V19.6034H20.0312V0.53595Z" fill="white"></path>
  <path d="M37.7236 0.53595H53.4192V5.86916H43.7848V7.51189H52.4272V12.4932H43.7848V14.2713H53.4192V19.6034H37.7236V0.53595Z" fill="white"></path>
  <path d="M61.849 13.4645V19.6045H55.4365V0.53595H63.6613C64.6257 0.537065 65.5872 0.642728 66.5286 0.851069C67.4264 1.04108 68.2803 1.3974 69.0458 1.90147C69.7915 2.40396 70.4039 3.07868 70.8308 3.86799C71.2812 4.68592 71.5067 5.71394 71.5074 6.95204C71.5074 8.13671 71.2866 9.14199 70.845 9.96787C70.4239 10.7665 69.8216 11.4565 69.086 11.9831C68.3275 12.5164 67.4735 12.9002 66.57 13.1137C65.6184 13.3481 64.6416 13.4659 63.6613 13.4645H61.849ZM61.849 5.51938V8.58936H63.2011C63.6727 8.59363 64.1362 8.46768 64.5402 8.22551C64.947 7.98295 65.1501 7.57434 65.1493 6.99969C65.1602 6.74337 65.1044 6.4886 64.9873 6.26008C64.8815 6.07414 64.727 5.9203 64.5402 5.81501C64.3425 5.70449 64.1279 5.62728 63.9049 5.58652C63.673 5.54171 63.4373 5.51923 63.2011 5.51938H61.849Z" fill="white"></path>
  <path d="M75.9082 19.6046V0.536113H83.0506C84.5098 0.530303 85.9656 0.679503 87.393 0.981179C88.7007 1.24655 89.9424 1.76814 91.0458 2.51563C92.1151 3.25948 92.9841 4.25395 93.576 5.41126C94.2069 6.61398 94.5223 8.13002 94.5223 9.95937C94.5223 11.6292 94.2203 13.0748 93.6162 14.2963C93.0509 15.4688 92.2225 16.4962 91.1948 17.2992C90.1534 18.0938 88.9683 18.682 87.7041 19.0318C86.367 19.4114 84.9828 19.6017 83.5923 19.597L75.9082 19.6046ZM82.1086 5.97761V14.0841H83.2986C84.8142 14.0841 85.9778 13.7574 86.7893 13.1041C87.6008 12.4507 88.0065 11.3816 88.0065 9.89657C88.0065 8.66136 87.6008 7.69939 86.7893 7.01068C85.9778 6.32197 84.8955 5.97761 83.5423 5.97761H82.1086Z" fill="white"></path>
  <path d="M95.876 0.53595H102.369V19.6045H95.876V0.53595Z" fill="white"></path>
  <path d="M103.111 0.536085H110.389L113.554 12.3298H113.663L116.693 0.532837H123.971L117.045 19.6013H109.902L103.111 0.536085Z" fill="white"></path>
  <path d="M124.583 0.53595H140.279V5.86916H130.643V7.51189H139.285V12.4932H130.643V14.2713H140.279V19.6034H124.583V0.53595Z" fill="white"></path>
  <path d="M46.873 25.9645H49.2955C51.5211 25.9645 52.8178 27.2466 52.8178 29.0442V29.0626C52.8178 30.8591 51.5037 32.1943 49.2596 32.1943H46.873V25.9645ZM48.6135 27.4903V30.6674H49.3195C50.3659 30.6674 51.0534 30.0978 51.0534 29.0918V29.0745C51.0534 28.0772 50.3659 27.4903 49.3195 27.4903H48.6135Z" fill="white"></path>
  <path d="M57.7451 25.9645H62.7783V27.4242H59.4616V28.3771H62.465V29.7383H59.4616V30.7259H62.8229V32.1943H57.7451V25.9645Z" fill="white"></path>
  <path d="M69.9033 25.9199H71.5752L74.2392 32.1942H72.3791L71.9331 31.0734H69.5096L69.0646 32.1942H67.248L69.9033 25.9199ZM71.4262 29.7295L70.729 27.9677L70.023 29.7295H71.4262Z" fill="white"></path>
  <path d="M78.8691 25.9645H80.6096V30.6815H83.6402V32.1976H78.8691V25.9645Z" fill="white"></path>
  <path d="M87.9346 31.2694L88.9005 30.1204C89.526 30.6099 90.2059 30.8687 90.9292 30.8687C91.4035 30.8687 91.6537 30.7085 91.6537 30.441V30.4237C91.6537 30.1562 91.4481 30.023 90.5898 29.8183C89.2573 29.5162 88.2294 29.1415 88.2294 27.8691V27.8518C88.2294 26.6942 89.1507 25.8582 90.6529 25.8582C91.7168 25.8582 92.5479 26.143 93.2277 26.6855L92.3575 27.9049C91.8509 27.5252 91.2388 27.3107 90.6051 27.2909C90.1841 27.2909 89.9785 27.4598 89.9785 27.6915V27.7067C89.9785 27.9915 90.1961 28.116 91.0663 28.312C92.4967 28.6239 93.3909 29.0863 93.3909 30.2526V30.2699C93.3909 31.5423 92.3803 32.2992 90.8607 32.2992C89.7588 32.3014 88.7123 31.9538 87.9346 31.2694Z" fill="white"></path>
</svg>
