<?xml version="1.0" encoding="UTF-8"?>
<svg xmlns="http://www.w3.org/2000/svg" width="178" height="40" viewBox="0 0 178 40" fill="none">
  <path d="M0 24.015V0.0041119H8.95312C10.7823 -0.00320349 12.6071 0.184667 14.3965 0.564535C16.0357 0.898683 17.5922 1.55547 18.9753 2.4967C20.3157 3.43335 21.405 4.68558 22.1469 6.14285C22.9378 7.65731 23.3332 9.56629 23.3332 11.8698C23.3332 13.9724 22.9546 15.7928 22.1974 17.3309C21.4888 18.8072 20.4503 20.1009 19.1621 21.112C17.8569 22.1123 16.372 22.8529 14.7878 23.2937C13.1112 23.7717 11.3756 24.0113 9.63218 24.0055L0 24.015ZM7.77228 6.85599V17.0636H9.25992C11.1589 17.0636 12.6175 16.6523 13.6356 15.8296C14.6537 15.0069 15.1623 13.6606 15.1614 11.7907C15.1614 10.2353 14.6528 9.02405 13.6356 8.15683C12.6184 7.28961 11.2616 6.85599 9.56536 6.85599H7.77228Z" fill="black"></path>
  <path d="M25.1094 0.00390625H44.7842V6.71943H32.7126V8.78795H43.5392V15.0603H32.7126V17.2993H44.791V24.0134H25.1094V0.00390625Z" fill="black"></path>
  <path d="M47.2871 0.00390625H66.9619V6.71943H54.8849V8.78795H65.7183V15.0603H54.8849V17.2993H66.9619V24.0134H47.2871V0.00390625Z" fill="black"></path>
  <path d="M77.5294 16.2834V24.0148H69.4912V0.00390625H79.8011C81.01 0.00531044 82.2153 0.13836 83.3954 0.400702C84.5208 0.639958 85.5911 1.08863 86.5507 1.72335C87.4855 2.35609 88.2532 3.20569 88.7883 4.19958C89.3528 5.22952 89.6355 6.52399 89.6364 8.08299C89.6364 9.57472 89.3596 10.8406 88.806 11.8805C88.2782 12.8862 87.5233 13.755 86.6011 14.4181C85.6504 15.0896 84.5798 15.5728 83.4472 15.8416C82.2544 16.1368 81.0299 16.2852 79.8011 16.2834H77.5294ZM77.5294 6.279V10.1447H79.2243C79.8154 10.1501 80.3964 9.99147 80.9028 9.68653C81.4128 9.3811 81.6673 8.86658 81.6664 8.14299C81.6801 7.82023 81.6101 7.49943 81.4633 7.21168C81.3307 6.97754 81.137 6.78384 80.9028 6.65125C80.6551 6.51208 80.386 6.41486 80.1065 6.36354C79.8158 6.30712 79.5204 6.27881 79.2243 6.279H77.5294Z" fill="black"></path>
  <path d="M95.1514 24.015V0.0041119H104.104C105.934 -0.00320349 107.758 0.184667 109.548 0.564535C111.187 0.898683 112.744 1.55547 114.127 2.4967C115.467 3.43335 116.556 4.68558 117.298 6.14285C118.089 7.65731 118.485 9.56629 118.485 11.8698C118.485 13.9724 118.106 15.7928 117.349 17.3309C116.64 18.8072 115.602 20.1009 114.313 21.112C113.008 22.1126 111.523 22.8532 109.938 23.2937C108.262 23.7718 106.527 24.0114 104.784 24.0055L95.1514 24.015ZM102.924 6.85599V17.0636H104.415C106.315 17.0636 107.774 16.6523 108.791 15.8296C109.808 15.0069 110.317 13.6606 110.317 11.7907C110.317 10.2353 109.808 9.02405 108.791 8.15683C107.774 7.28961 106.417 6.85599 104.721 6.85599H102.924Z" fill="black"></path>
  <path d="M120.183 0.00390625H128.322V24.0148H120.183V0.00390625Z" fill="black"></path>
  <path d="M129.253 0.00409051H138.375L142.343 14.8546H142.479L146.278 0H155.401L146.719 24.0109H137.766L129.253 0.00409051Z" fill="black"></path>
  <path d="M156.167 0.00390625H175.842V6.71943H163.763V8.78795H174.597V15.0603H163.763V17.2993H175.842V24.0134H156.167V0.00390625Z" fill="black"></path>
  <path d="M58.7568 32.0232H61.7935C64.5833 32.0232 66.2087 33.6376 66.2087 35.9012V35.9243C66.2087 38.1865 64.5615 39.8677 61.7485 39.8677H58.7568V32.0232ZM60.9385 33.9444V37.9451H61.8235C63.1352 37.9451 63.997 37.2279 63.997 35.9612V35.9393C63.997 34.6835 63.1352 33.9444 61.8235 33.9444H60.9385Z" fill="black"></path>
  <path d="M72.3848 32.0232H78.694V33.8613H74.5365V35.0612H78.3012V36.7752H74.5365V38.0188H78.7499V39.8677H72.3848V32.0232Z" fill="black"></path>
  <path d="M87.6253 31.9673H89.7211L93.0605 39.8677H90.7288L90.1697 38.4565H87.1317L86.574 39.8677H84.2969L87.6253 31.9673ZM89.5343 36.7643L88.6603 34.5458L87.7753 36.7643H89.5343Z" fill="black"></path>
  <path d="M98.8652 32.0232H101.047V37.9629H104.846V39.8718H98.8652V32.0232Z" fill="black"></path>
  <path d="M110.228 38.7032L111.438 37.2565C112.222 37.8728 113.075 38.1987 113.981 38.1987C114.576 38.1987 114.89 37.9969 114.89 37.6601V37.6383C114.89 37.3015 114.632 37.1338 113.556 36.8761C111.886 36.4956 110.597 36.0238 110.597 34.4217V34.3998C110.597 32.9422 111.752 31.8895 113.635 31.8895C114.969 31.8895 116.01 32.2481 116.863 32.9313L115.772 34.4667C115.137 33.9886 114.37 33.7185 113.575 33.6935C113.047 33.6935 112.79 33.9062 112.79 34.198V34.2171C112.79 34.5757 113.062 34.7325 114.153 34.9794C115.946 35.3721 117.067 35.9543 117.067 37.4228V37.4447C117.067 39.0468 115.8 40 113.896 40C112.514 40.0027 111.202 39.565 110.228 38.7032Z" fill="black"></path>
</svg>
